<svg width="264" height="52" viewBox="0 0 264 52" fill="none" xmlns="http://www.w3.org/2000/svg">
<path d="M12.6455 27.0566L16 27.0127C15.8242 28.4482 15.4092 29.7227 14.7549 30.8359C14.1006 31.9395 13.2266 32.8037 12.1328 33.4287C11.0391 34.0439 9.73535 34.332 8.22168 34.293C6.97168 34.2637 5.94629 33.9756 5.14551 33.4287C4.34473 32.8818 3.72949 32.1689 3.2998 31.29C2.87012 30.4111 2.60156 29.4443 2.49414 28.3896C2.39648 27.335 2.41602 26.2803 2.55273 25.2256L3.13867 21.4463C3.31445 20.3037 3.60742 19.1855 4.01758 18.0918C4.4375 16.9883 4.98926 16.002 5.67285 15.1328C6.36621 14.2637 7.20605 13.5801 8.19238 13.082C9.18848 12.584 10.3359 12.3496 11.6348 12.3789C13.1094 12.4082 14.2764 12.7598 15.1357 13.4336C15.9951 14.0977 16.6055 14.9863 16.9668 16.0996C17.3281 17.2031 17.499 18.4141 17.4795 19.7324L14.0078 19.7178C14.0371 19.0049 14.0078 18.3213 13.9199 17.667C13.8418 17.0029 13.6172 16.4561 13.2461 16.0264C12.875 15.5967 12.2549 15.3672 11.3857 15.3379C10.5459 15.3086 9.83789 15.4795 9.26172 15.8506C8.69531 16.2119 8.23145 16.7002 7.87012 17.3154C7.50879 17.9209 7.23047 18.585 7.03516 19.3076C6.83984 20.0303 6.69336 20.7334 6.5957 21.417L6.02441 25.2402C5.94629 25.7871 5.8877 26.4023 5.84863 27.0859C5.81934 27.7695 5.86328 28.4287 5.98047 29.0635C6.09766 29.6982 6.34668 30.2305 6.72754 30.6602C7.1084 31.0801 7.68457 31.3096 8.45605 31.3486C9.40332 31.3877 10.1504 31.2168 10.6973 30.8359C11.2539 30.4551 11.6738 29.9326 11.957 29.2686C12.25 28.6045 12.4795 27.8672 12.6455 27.0566ZM18.4902 26.7197L18.6514 25.46C18.7686 24.4834 19.0029 23.541 19.3545 22.6328C19.7061 21.7148 20.1748 20.8896 20.7607 20.1572C21.3564 19.4248 22.0693 18.8535 22.8994 18.4434C23.7393 18.0234 24.7061 17.8281 25.7998 17.8574C26.8545 17.877 27.7285 18.1113 28.4219 18.5605C29.1152 19.0098 29.6572 19.6006 30.0479 20.333C30.4385 21.0654 30.6924 21.876 30.8096 22.7646C30.9268 23.6436 30.9414 24.5371 30.8535 25.4453L30.6924 26.7197C30.5752 27.6865 30.3408 28.6289 29.9893 29.5469C29.6377 30.4648 29.1641 31.2852 28.5684 32.0078C27.9824 32.7305 27.2695 33.3018 26.4297 33.7217C25.5996 34.1318 24.6377 34.3223 23.5439 34.293C22.4795 34.2734 21.6006 34.0391 20.9072 33.5898C20.2236 33.1406 19.6865 32.5547 19.2959 31.832C18.915 31.0996 18.6611 30.2891 18.5342 29.4004C18.417 28.5117 18.4023 27.6182 18.4902 26.7197ZM21.9912 25.4453L21.8447 26.749C21.8057 27.1396 21.7764 27.5986 21.7568 28.126C21.7471 28.6436 21.7959 29.1562 21.9033 29.6641C22.0205 30.1621 22.2256 30.5771 22.5186 30.9092C22.8213 31.2412 23.251 31.417 23.8076 31.4365C24.4424 31.4756 24.9746 31.3486 25.4043 31.0557C25.8438 30.7529 26.1953 30.3574 26.459 29.8691C26.7227 29.3809 26.9229 28.8584 27.0596 28.3018C27.2061 27.7451 27.3135 27.2129 27.3818 26.7051L27.5283 25.4307C27.5576 25.04 27.5771 24.5811 27.5869 24.0537C27.5967 23.5264 27.543 23.0137 27.4258 22.5156C27.3184 22.0176 27.1182 21.6025 26.8252 21.2705C26.5322 20.9287 26.1025 20.7432 25.5361 20.7139C24.9307 20.6748 24.4131 20.8115 23.9834 21.124C23.5635 21.4268 23.2168 21.8223 22.9434 22.3105C22.6699 22.7988 22.4551 23.3262 22.2988 23.8926C22.1523 24.4492 22.0498 24.9668 21.9912 25.4453ZM37.7236 21.5635L35.5557 34H32.2305L34.9844 18.1504H38.1045L37.7236 21.5635ZM36.5371 25.5039L35.4678 25.5186C35.5557 24.6592 35.7266 23.7754 35.9805 22.8672C36.2441 21.959 36.6055 21.1191 37.0645 20.3477C37.5332 19.5762 38.1338 18.9609 38.8662 18.502C39.5986 18.0332 40.4873 17.8184 41.5322 17.8574C42.2939 17.877 42.9043 18.0625 43.3633 18.4141C43.832 18.7559 44.1836 19.2002 44.418 19.7471C44.6621 20.2939 44.8086 20.8896 44.8574 21.5342C44.916 22.1787 44.9111 22.8135 44.8428 23.4385L43.0996 34H39.7598L41.4736 23.7461C41.5225 23.3066 41.5273 22.8574 41.4883 22.3984C41.459 21.9395 41.3271 21.5537 41.0928 21.2412C40.8682 20.9189 40.4727 20.748 39.9062 20.7285C39.3008 20.709 38.793 20.8555 38.3828 21.168C37.9727 21.4707 37.6406 21.876 37.3867 22.3838C37.1426 22.8818 36.9521 23.4092 36.8154 23.9658C36.6885 24.5225 36.5957 25.0352 36.5371 25.5039ZM44.5205 24.5957L42.9824 24.9619C43.0605 24.1514 43.2266 23.3262 43.4805 22.4863C43.7441 21.6367 44.1055 20.8604 44.5645 20.1572C45.0332 19.4443 45.6191 18.8779 46.3223 18.458C47.0254 18.0283 47.8604 17.8232 48.8271 17.8428C49.6475 17.8623 50.3066 18.0527 50.8047 18.4141C51.3027 18.7656 51.6738 19.2344 51.918 19.8203C52.1621 20.3965 52.3086 21.0264 52.3574 21.71C52.416 22.3936 52.4062 23.0771 52.3281 23.7607L50.6143 34H47.2744L48.9736 23.7314C49.0225 23.292 49.0322 22.8428 49.0029 22.3838C48.9736 21.9248 48.8418 21.5391 48.6074 21.2266C48.3828 20.9141 47.9824 20.7529 47.4062 20.7432C46.918 20.7334 46.5029 20.8555 46.1611 21.1094C45.8291 21.3535 45.5459 21.6758 45.3115 22.0762C45.0869 22.4668 44.9111 22.8867 44.7842 23.3359C44.667 23.7852 44.5791 24.2051 44.5205 24.5957ZM59.4766 21.3877L56.2246 40.0938H52.8994L56.708 18.1504H59.7549L59.4766 21.3877ZM66.9912 25.4453L66.8447 26.6904C66.7373 27.54 66.5566 28.4189 66.3027 29.3271C66.0488 30.2256 65.6924 31.0605 65.2334 31.832C64.7842 32.5938 64.1982 33.2041 63.4756 33.6631C62.7529 34.1221 61.8643 34.332 60.8096 34.293C59.9307 34.2637 59.2178 34.0146 58.6709 33.5459C58.1338 33.0674 57.7236 32.4668 57.4404 31.7441C57.167 31.0117 56.9912 30.2402 56.9131 29.4297C56.835 28.6094 56.8154 27.8525 56.8545 27.1592L57.1182 25.2402C57.2549 24.459 57.46 23.6387 57.7334 22.7793C58.0068 21.9199 58.373 21.1143 58.832 20.3623C59.3008 19.6006 59.877 18.9854 60.5605 18.5166C61.2441 18.0381 62.0596 17.8135 63.0068 17.8428C64.0322 17.8721 64.8379 18.1309 65.4238 18.6191C66.0098 19.0977 66.4297 19.7178 66.6836 20.4795C66.9375 21.2412 67.0742 22.0615 67.0938 22.9404C67.1133 23.8193 67.0791 24.6543 66.9912 25.4453ZM63.5195 26.7051L63.6514 25.4307C63.7002 25.0107 63.7393 24.542 63.7686 24.0244C63.7979 23.4971 63.7686 22.9844 63.6807 22.4863C63.5928 21.9883 63.4023 21.5781 63.1094 21.2559C62.8164 20.9238 62.3721 20.748 61.7764 20.7285C61.2783 20.7188 60.834 20.8213 60.4434 21.0361C60.0527 21.251 59.7158 21.5391 59.4326 21.9004C59.1592 22.2617 58.9297 22.6621 58.7441 23.1016C58.5684 23.5312 58.4414 23.9609 58.3633 24.3906L57.8213 28.0088C57.792 28.5264 57.8408 29.0439 57.9678 29.5615C58.0947 30.0791 58.3193 30.5186 58.6416 30.8799C58.9736 31.2314 59.4424 31.4219 60.0479 31.4512C60.6924 31.4805 61.2246 31.3486 61.6445 31.0557C62.0645 30.7529 62.4014 30.3623 62.6553 29.8838C62.9092 29.3955 63.0996 28.8682 63.2266 28.3018C63.3535 27.7354 63.4512 27.2031 63.5195 26.7051ZM74.4326 34.293C73.3877 34.2734 72.5039 34.0684 71.7812 33.6777C71.0586 33.2871 70.4873 32.7549 70.0674 32.0811C69.6572 31.4072 69.3789 30.6455 69.2324 29.7959C69.0859 28.9463 69.0615 28.043 69.1592 27.0859L69.3496 25.5625C69.4668 24.5859 69.6914 23.6338 70.0234 22.7061C70.3652 21.7686 70.8193 20.9287 71.3857 20.1865C71.9521 19.4443 72.6455 18.8633 73.4658 18.4434C74.2959 18.0234 75.2676 17.8232 76.3809 17.8428C77.4551 17.8721 78.3193 18.1162 78.9736 18.5752C79.6377 19.0244 80.126 19.6152 80.4385 20.3477C80.7607 21.0801 80.9512 21.8906 81.0098 22.7793C81.0781 23.668 81.0586 24.5566 80.9512 25.4453L80.7021 27.1592H70.6973L71.1514 24.5811L77.7578 24.5957L77.8164 24.2002C77.8945 23.7021 77.9141 23.1895 77.875 22.6621C77.8457 22.1348 77.6992 21.6855 77.4355 21.3145C77.1719 20.9434 76.7275 20.7383 76.1025 20.6992C75.4482 20.6699 74.9111 20.8066 74.4912 21.1094C74.0713 21.4121 73.7393 21.8174 73.4951 22.3252C73.251 22.833 73.0703 23.375 72.9531 23.9512C72.8359 24.5176 72.748 25.0547 72.6895 25.5625L72.499 27.1006C72.4404 27.5889 72.416 28.082 72.4258 28.5801C72.4453 29.0781 72.5234 29.542 72.6602 29.9717C72.8066 30.3916 73.0459 30.7383 73.3779 31.0117C73.7197 31.2754 74.1982 31.4121 74.8135 31.4219C75.5361 31.4414 76.1953 31.3047 76.791 31.0117C77.3867 30.709 77.9336 30.3184 78.4316 29.8398L79.7354 31.9492C79.3252 32.4961 78.832 32.9453 78.2559 33.2969C77.6895 33.6484 77.0742 33.9023 76.4102 34.0586C75.7559 34.2246 75.0967 34.3027 74.4326 34.293ZM91.1172 18.1504L90.6484 20.7871H83.0898L83.5586 18.1504H91.1172ZM86.2832 14.2686H89.6084L87.001 29.6201C86.9717 29.874 86.957 30.1328 86.957 30.3965C86.9668 30.6504 87.0303 30.8652 87.1475 31.041C87.2646 31.207 87.4844 31.2949 87.8066 31.3047C87.9727 31.3047 88.1387 31.2949 88.3047 31.2754C88.4805 31.2461 88.6514 31.2168 88.8174 31.1875L88.5391 33.9561C88.2363 34.0732 87.9238 34.1562 87.6016 34.2051C87.2793 34.2539 86.9521 34.2734 86.6201 34.2637C85.7803 34.2539 85.1357 34.0293 84.6865 33.5898C84.2471 33.1504 83.9492 32.5938 83.793 31.9199C83.6465 31.2363 83.6074 30.5332 83.6758 29.8105L86.2832 14.2686ZM97.1963 18.1504L94.4424 34H91.1172L93.8711 18.1504H97.1963ZM94.4277 14.0635C94.4375 13.5166 94.6084 13.0527 94.9404 12.6719C95.2822 12.2812 95.7314 12.0811 96.2881 12.0713C96.8252 12.0615 97.2646 12.2373 97.6064 12.5986C97.9482 12.96 98.1143 13.4092 98.1045 13.9463C98.0947 14.4834 97.9189 14.9424 97.5771 15.3232C97.2451 15.6943 96.8008 15.8848 96.2441 15.8945C95.707 15.9141 95.2676 15.748 94.9258 15.3965C94.5938 15.0352 94.4277 14.5908 94.4277 14.0635ZM106.938 18.1504L106.469 20.7871H98.9102L99.3789 18.1504H106.938ZM102.104 14.2686H105.429L102.821 29.6201C102.792 29.874 102.777 30.1328 102.777 30.3965C102.787 30.6504 102.851 30.8652 102.968 31.041C103.085 31.207 103.305 31.2949 103.627 31.3047C103.793 31.3047 103.959 31.2949 104.125 31.2754C104.301 31.2461 104.472 31.2168 104.638 31.1875L104.359 33.9561C104.057 34.0732 103.744 34.1562 103.422 34.2051C103.1 34.2539 102.772 34.2734 102.44 34.2637C101.601 34.2539 100.956 34.0293 100.507 33.5898C100.067 33.1504 99.7695 32.5938 99.6133 31.9199C99.4668 31.2363 99.4277 30.5332 99.4961 29.8105L102.104 14.2686ZM107.172 26.7197L107.333 25.46C107.45 24.4834 107.685 23.541 108.036 22.6328C108.388 21.7148 108.856 20.8896 109.442 20.1572C110.038 19.4248 110.751 18.8535 111.581 18.4434C112.421 18.0234 113.388 17.8281 114.481 17.8574C115.536 17.877 116.41 18.1113 117.104 18.5605C117.797 19.0098 118.339 19.6006 118.729 20.333C119.12 21.0654 119.374 21.876 119.491 22.7646C119.608 23.6436 119.623 24.5371 119.535 25.4453L119.374 26.7197C119.257 27.6865 119.022 28.6289 118.671 29.5469C118.319 30.4648 117.846 31.2852 117.25 32.0078C116.664 32.7305 115.951 33.3018 115.111 33.7217C114.281 34.1318 113.319 34.3223 112.226 34.293C111.161 34.2734 110.282 34.0391 109.589 33.5898C108.905 33.1406 108.368 32.5547 107.978 31.832C107.597 31.0996 107.343 30.2891 107.216 29.4004C107.099 28.5117 107.084 27.6182 107.172 26.7197ZM110.673 25.4453L110.526 26.749C110.487 27.1396 110.458 27.5986 110.438 28.126C110.429 28.6436 110.478 29.1562 110.585 29.6641C110.702 30.1621 110.907 30.5771 111.2 30.9092C111.503 31.2412 111.933 31.417 112.489 31.4365C113.124 31.4756 113.656 31.3486 114.086 31.0557C114.525 30.7529 114.877 30.3574 115.141 29.8691C115.404 29.3809 115.604 28.8584 115.741 28.3018C115.888 27.7451 115.995 27.2129 116.063 26.7051L116.21 25.4307C116.239 25.04 116.259 24.5811 116.269 24.0537C116.278 23.5264 116.225 23.0137 116.107 22.5156C116 22.0176 115.8 21.6025 115.507 21.2705C115.214 20.9287 114.784 20.7432 114.218 20.7139C113.612 20.6748 113.095 20.8115 112.665 21.124C112.245 21.4268 111.898 21.8223 111.625 22.3105C111.352 22.7988 111.137 23.3262 110.98 23.8926C110.834 24.4492 110.731 24.9668 110.673 25.4453ZM126.405 21.373L124.223 34H120.897L123.651 18.1504H126.815L126.405 21.373ZM130.624 18.0332L130.199 21.4023C130.004 21.3535 129.804 21.3193 129.599 21.2998C129.394 21.2705 129.193 21.2559 128.998 21.2559C128.451 21.2461 127.982 21.3438 127.592 21.5488C127.201 21.7539 126.869 22.0322 126.596 22.3838C126.332 22.7256 126.107 23.1113 125.922 23.541C125.746 23.9707 125.604 24.415 125.497 24.874L124.765 24.918C124.853 24.2832 124.984 23.5557 125.16 22.7354C125.346 21.915 125.609 21.1289 125.951 20.377C126.293 19.6152 126.747 18.9951 127.313 18.5166C127.88 18.0283 128.588 17.7939 129.438 17.8135C129.643 17.8232 129.843 17.8477 130.038 17.8867C130.233 17.9258 130.429 17.9746 130.624 18.0332ZM138.08 29.7373C138.139 29.2979 138.041 28.9316 137.787 28.6387C137.543 28.3457 137.235 28.0967 136.864 27.8916C136.503 27.6768 136.161 27.4912 135.839 27.335C135.321 27.0811 134.828 26.8125 134.359 26.5293C133.9 26.2461 133.49 25.9238 133.129 25.5625C132.777 25.1914 132.504 24.7666 132.309 24.2881C132.113 23.8096 132.035 23.2529 132.074 22.6182C132.113 21.876 132.289 21.2119 132.602 20.626C132.924 20.0303 133.344 19.5273 133.861 19.1172C134.379 18.6973 134.965 18.3799 135.619 18.165C136.283 17.9404 136.967 17.833 137.67 17.8428C138.646 17.8721 139.501 18.0918 140.233 18.502C140.966 18.9023 141.522 19.4688 141.903 20.2012C142.294 20.9238 142.479 21.7783 142.46 22.7646L139.135 22.75C139.154 22.3691 139.12 22.0127 139.032 21.6807C138.944 21.3389 138.773 21.0605 138.52 20.8457C138.275 20.6309 137.934 20.5234 137.494 20.5234C137.104 20.5332 136.752 20.6211 136.439 20.7871C136.127 20.9434 135.868 21.168 135.663 21.4609C135.458 21.7539 135.326 22.0908 135.268 22.4717C135.219 22.7744 135.253 23.043 135.37 23.2773C135.497 23.502 135.673 23.7021 135.897 23.8779C136.122 24.0439 136.366 24.1904 136.63 24.3174C136.903 24.4443 137.147 24.5615 137.362 24.6689C138.085 25.0107 138.754 25.3867 139.369 25.7969C139.994 26.207 140.487 26.71 140.849 27.3057C141.21 27.8916 141.361 28.6338 141.303 29.5322C141.264 30.3135 141.073 31.0068 140.731 31.6123C140.399 32.208 139.96 32.7061 139.413 33.1064C138.866 33.5068 138.251 33.8096 137.567 34.0146C136.884 34.2197 136.176 34.3125 135.443 34.293C134.447 34.2637 133.568 34.0342 132.807 33.6045C132.045 33.165 131.454 32.5645 131.034 31.8027C130.614 31.041 130.414 30.1572 130.434 29.1514L133.656 29.166C133.646 29.6348 133.695 30.0547 133.803 30.4258C133.92 30.7969 134.125 31.0898 134.418 31.3047C134.721 31.5098 135.126 31.6123 135.634 31.6123C136.044 31.6123 136.42 31.5439 136.762 31.4072C137.113 31.2705 137.401 31.0654 137.626 30.792C137.86 30.5088 138.012 30.1572 138.08 29.7373ZM160.858 15.7773L152.743 34H149.022L159.276 12.6719H161.62L160.858 15.7773ZM161.723 34L159.877 15.4404L160.141 12.6719H162.367L165.253 34H161.723ZM163.173 26.0752L162.631 29.0635H152.978L153.505 26.0752H163.173ZM172.431 21.7246L170.307 34H166.952L169.706 18.1504H172.841L172.431 21.7246ZM171.215 25.5332L170.292 25.5479C170.39 24.708 170.565 23.834 170.819 22.9258C171.073 22.0176 171.435 21.1729 171.903 20.3916C172.372 19.6104 172.968 18.9854 173.69 18.5166C174.413 18.0381 175.287 17.8135 176.312 17.8428C177.123 17.8721 177.768 18.0723 178.246 18.4434C178.725 18.8047 179.076 19.2832 179.301 19.8789C179.525 20.4648 179.652 21.0996 179.682 21.7832C179.721 22.457 179.706 23.1211 179.638 23.7754L177.938 34H174.613L176.312 23.7314C176.352 23.2822 176.361 22.833 176.342 22.3838C176.322 21.9346 176.2 21.5537 175.976 21.2412C175.751 20.9189 175.351 20.7529 174.774 20.7432C174.188 20.7139 173.681 20.8604 173.251 21.1826C172.831 21.5049 172.484 21.9199 172.211 22.4277C171.938 22.9258 171.723 23.4531 171.566 24.0098C171.41 24.5566 171.293 25.0645 171.215 25.5332ZM188.969 30.7773L190.229 22.8379C190.268 22.457 190.258 22.1006 190.199 21.7686C190.15 21.4268 190.014 21.1484 189.789 20.9336C189.574 20.7188 189.242 20.6064 188.793 20.5967C188.354 20.5869 187.978 20.6797 187.665 20.875C187.353 21.0605 187.099 21.3193 186.903 21.6514C186.718 21.9736 186.591 22.3301 186.522 22.7207L183.197 22.75C183.256 21.9883 183.456 21.3047 183.798 20.6992C184.149 20.084 184.599 19.5615 185.146 19.1318C185.692 18.7021 186.303 18.3799 186.977 18.165C187.66 17.9404 188.368 17.833 189.101 17.8428C190.126 17.8525 190.99 18.0723 191.693 18.502C192.396 18.9219 192.909 19.5078 193.231 20.2598C193.554 21.0117 193.661 21.9004 193.554 22.9258L192.353 30.3379C192.265 30.9043 192.206 31.4756 192.177 32.0518C192.157 32.6182 192.206 33.1846 192.323 33.751L192.309 34L189.027 34.0146C188.891 33.4873 188.827 32.9502 188.837 32.4033C188.847 31.8564 188.891 31.3145 188.969 30.7773ZM190.521 24.3467L190.155 26.5586L188.72 26.5439C188.271 26.5439 187.841 26.6074 187.431 26.7344C187.03 26.8613 186.659 27.0469 186.317 27.291C185.985 27.5352 185.712 27.833 185.497 28.1846C185.292 28.5361 185.16 28.9512 185.102 29.4297C185.053 29.7812 185.058 30.1133 185.116 30.4258C185.185 30.7383 185.321 30.9922 185.526 31.1875C185.741 31.3828 186.059 31.4854 186.479 31.4951C186.918 31.4951 187.343 31.4023 187.753 31.2168C188.163 31.0215 188.51 30.7578 188.793 30.4258C189.086 30.0938 189.271 29.708 189.35 29.2686L189.921 30.7188C189.774 31.1973 189.569 31.6562 189.306 32.0957C189.052 32.5254 188.739 32.9111 188.368 33.2529C188.007 33.585 187.597 33.8486 187.138 34.0439C186.679 34.2393 186.181 34.332 185.644 34.3223C184.765 34.3125 184.022 34.1025 183.417 33.6924C182.812 33.2725 182.357 32.7207 182.055 32.0371C181.762 31.3438 181.64 30.5771 181.688 29.7373C181.737 28.8096 181.957 28.0039 182.348 27.3203C182.738 26.6367 183.246 26.0752 183.871 25.6357C184.496 25.1865 185.204 24.8594 185.995 24.6543C186.786 24.4395 187.616 24.332 188.485 24.332L190.521 24.3467ZM202.504 11.5L198.593 34H195.268L199.179 11.5H202.504ZM206.122 32.0811L211.806 18.1504H215.438L207.265 36.417C207.04 36.9248 206.786 37.418 206.503 37.8965C206.22 38.375 205.888 38.8047 205.507 39.1855C205.136 39.5762 204.706 39.8838 204.218 40.1084C203.739 40.3428 203.197 40.4551 202.592 40.4453C202.318 40.4453 202.05 40.416 201.786 40.3574C201.522 40.2988 201.254 40.2305 200.98 40.1523L201.273 37.4131C201.361 37.4326 201.449 37.4473 201.537 37.457C201.615 37.4668 201.693 37.4766 201.771 37.4863C202.279 37.4961 202.714 37.4131 203.075 37.2373C203.437 37.0615 203.739 36.8076 203.983 36.4756C204.237 36.1533 204.457 35.7773 204.643 35.3477L206.122 32.0811ZM207.104 18.1504L207.763 30.1182L207.689 33.8096L205.39 34.3955L203.617 18.1504H207.104ZM222.602 29.7373C222.66 29.2979 222.562 28.9316 222.309 28.6387C222.064 28.3457 221.757 28.0967 221.386 27.8916C221.024 27.6768 220.683 27.4912 220.36 27.335C219.843 27.0811 219.35 26.8125 218.881 26.5293C218.422 26.2461 218.012 25.9238 217.65 25.5625C217.299 25.1914 217.025 24.7666 216.83 24.2881C216.635 23.8096 216.557 23.2529 216.596 22.6182C216.635 21.876 216.811 21.2119 217.123 20.626C217.445 20.0303 217.865 19.5273 218.383 19.1172C218.9 18.6973 219.486 18.3799 220.141 18.165C220.805 17.9404 221.488 17.833 222.191 17.8428C223.168 17.8721 224.022 18.0918 224.755 18.502C225.487 18.9023 226.044 19.4688 226.425 20.2012C226.815 20.9238 227.001 21.7783 226.981 22.7646L223.656 22.75C223.676 22.3691 223.642 22.0127 223.554 21.6807C223.466 21.3389 223.295 21.0605 223.041 20.8457C222.797 20.6309 222.455 20.5234 222.016 20.5234C221.625 20.5332 221.273 20.6211 220.961 20.7871C220.648 20.9434 220.39 21.168 220.185 21.4609C219.979 21.7539 219.848 22.0908 219.789 22.4717C219.74 22.7744 219.774 23.043 219.892 23.2773C220.019 23.502 220.194 23.7021 220.419 23.8779C220.644 24.0439 220.888 24.1904 221.151 24.3174C221.425 24.4443 221.669 24.5615 221.884 24.6689C222.606 25.0107 223.275 25.3867 223.891 25.7969C224.516 26.207 225.009 26.71 225.37 27.3057C225.731 27.8916 225.883 28.6338 225.824 29.5322C225.785 30.3135 225.595 31.0068 225.253 31.6123C224.921 32.208 224.481 32.7061 223.935 33.1064C223.388 33.5068 222.772 33.8096 222.089 34.0146C221.405 34.2197 220.697 34.3125 219.965 34.293C218.969 34.2637 218.09 34.0342 217.328 33.6045C216.566 33.165 215.976 32.5645 215.556 31.8027C215.136 31.041 214.936 30.1572 214.955 29.1514L218.178 29.166C218.168 29.6348 218.217 30.0547 218.324 30.4258C218.441 30.7969 218.646 31.0898 218.939 31.3047C219.242 31.5098 219.647 31.6123 220.155 31.6123C220.565 31.6123 220.941 31.5439 221.283 31.4072C221.635 31.2705 221.923 31.0654 222.147 30.792C222.382 30.5088 222.533 30.1572 222.602 29.7373ZM234.218 18.1504L231.464 34H228.139L230.893 18.1504H234.218ZM231.449 14.0635C231.459 13.5166 231.63 13.0527 231.962 12.6719C232.304 12.2812 232.753 12.0811 233.31 12.0713C233.847 12.0615 234.286 12.2373 234.628 12.5986C234.97 12.96 235.136 13.4092 235.126 13.9463C235.116 14.4834 234.94 14.9424 234.599 15.3232C234.267 15.6943 233.822 15.8848 233.266 15.8945C232.729 15.9141 232.289 15.748 231.947 15.3965C231.615 15.0352 231.449 14.5908 231.449 14.0635ZM242.875 29.7373C242.934 29.2979 242.836 28.9316 242.582 28.6387C242.338 28.3457 242.03 28.0967 241.659 27.8916C241.298 27.6768 240.956 27.4912 240.634 27.335C240.116 27.0811 239.623 26.8125 239.154 26.5293C238.695 26.2461 238.285 25.9238 237.924 25.5625C237.572 25.1914 237.299 24.7666 237.104 24.2881C236.908 23.8096 236.83 23.2529 236.869 22.6182C236.908 21.876 237.084 21.2119 237.396 20.626C237.719 20.0303 238.139 19.5273 238.656 19.1172C239.174 18.6973 239.76 18.3799 240.414 18.165C241.078 17.9404 241.762 17.833 242.465 17.8428C243.441 17.8721 244.296 18.0918 245.028 18.502C245.761 18.9023 246.317 19.4688 246.698 20.2012C247.089 20.9238 247.274 21.7783 247.255 22.7646L243.93 22.75C243.949 22.3691 243.915 22.0127 243.827 21.6807C243.739 21.3389 243.568 21.0605 243.314 20.8457C243.07 20.6309 242.729 20.5234 242.289 20.5234C241.898 20.5332 241.547 20.6211 241.234 20.7871C240.922 20.9434 240.663 21.168 240.458 21.4609C240.253 21.7539 240.121 22.0908 240.062 22.4717C240.014 22.7744 240.048 23.043 240.165 23.2773C240.292 23.502 240.468 23.7021 240.692 23.8779C240.917 24.0439 241.161 24.1904 241.425 24.3174C241.698 24.4443 241.942 24.5615 242.157 24.6689C242.88 25.0107 243.549 25.3867 244.164 25.7969C244.789 26.207 245.282 26.71 245.644 27.3057C246.005 27.8916 246.156 28.6338 246.098 29.5322C246.059 30.3135 245.868 31.0068 245.526 31.6123C245.194 32.208 244.755 32.7061 244.208 33.1064C243.661 33.5068 243.046 33.8096 242.362 34.0146C241.679 34.2197 240.971 34.3125 240.238 34.293C239.242 34.2637 238.363 34.0342 237.602 33.6045C236.84 33.165 236.249 32.5645 235.829 31.8027C235.409 31.041 235.209 30.1572 235.229 29.1514L238.451 29.166C238.441 29.6348 238.49 30.0547 238.598 30.4258C238.715 30.7969 238.92 31.0898 239.213 31.3047C239.516 31.5098 239.921 31.6123 240.429 31.6123C240.839 31.6123 241.215 31.5439 241.557 31.4072C241.908 31.2705 242.196 31.0654 242.421 30.792C242.655 30.5088 242.807 30.1572 242.875 29.7373Z" fill="#124851"/>
</svg>
