<svg width="1183" height="212" viewBox="0 0 1183 212" fill="none" xmlns="http://www.w3.org/2000/svg">
<path d="M32.0938 56.8438L38.3438 39.25H40.5625L39.7656 43.875L33.1406 62H30.7969L32.0938 56.8438ZM32.5938 39.25L32.6406 57.0625L32 62H29.5938L28.9844 39.25H32.5938ZM41.6562 56.6562L47.125 39.25H50.8594L43.1562 62H40.6875L41.6562 56.6562ZM41.4219 39.25L42.1406 57.2031L41.8438 62H39.5938L38.7031 43.5156L39.2656 39.25H41.4219ZM57.2344 38L53.0781 62H49.5156L53.6875 38H57.2344ZM54.0781 52.9688H53.0469C53.1406 52.1042 53.3229 51.1927 53.5938 50.2344C53.875 49.276 54.2604 48.375 54.75 47.5312C55.2396 46.6875 55.8646 46.0104 56.625 45.5C57.3854 44.9792 58.3021 44.7396 59.375 44.7812C60.2396 44.8021 60.9323 45.0104 61.4531 45.4062C61.9844 45.7917 62.375 46.2969 62.625 46.9219C62.8854 47.5469 63.0417 48.2292 63.0938 48.9688C63.1458 49.7083 63.1302 50.4323 63.0469 51.1406L61.2344 62H57.6875L59.5 51.0938C59.5417 50.625 59.5521 50.1458 59.5312 49.6562C59.5104 49.1562 59.3802 48.7344 59.1406 48.3906C58.901 48.0469 58.4792 47.8698 57.875 47.8594C57.2188 47.8281 56.6615 47.9844 56.2031 48.3281C55.7552 48.6615 55.3854 49.0938 55.0938 49.625C54.8125 50.1562 54.5885 50.7188 54.4219 51.3125C54.2552 51.9062 54.1406 52.4583 54.0781 52.9688ZM65.5938 54.2344L65.7656 52.8906C65.8906 51.849 66.1406 50.8438 66.5156 49.875C66.8906 48.8958 67.3906 48.0156 68.0156 47.2344C68.651 46.4531 69.4115 45.8438 70.2969 45.4062C71.1927 44.9583 72.224 44.75 73.3906 44.7812C74.5156 44.8021 75.4479 45.0521 76.1875 45.5312C76.9271 46.0104 77.5052 46.6406 77.9219 47.4219C78.3385 48.2031 78.6094 49.0677 78.7344 50.0156C78.8594 50.9531 78.875 51.9062 78.7812 52.875L78.6094 54.2344C78.4844 55.2656 78.2344 56.2708 77.8594 57.25C77.4844 58.2292 76.9792 59.1042 76.3438 59.875C75.7188 60.6458 74.9583 61.2552 74.0625 61.7031C73.1771 62.1406 72.151 62.3438 70.9844 62.3125C69.849 62.2917 68.9115 62.0417 68.1719 61.5625C67.4427 61.0833 66.8698 60.4583 66.4531 59.6875C66.0469 58.9062 65.776 58.0417 65.6406 57.0938C65.5156 56.1458 65.5 55.1927 65.5938 54.2344ZM69.3281 52.875L69.1719 54.2656C69.1302 54.6823 69.099 55.1719 69.0781 55.7344C69.0677 56.2865 69.1198 56.8333 69.2344 57.375C69.3594 57.9062 69.5781 58.349 69.8906 58.7031C70.2135 59.0573 70.6719 59.2448 71.2656 59.2656C71.9427 59.3073 72.5104 59.1719 72.9688 58.8594C73.4375 58.5365 73.8125 58.1146 74.0938 57.5938C74.375 57.0729 74.5885 56.5156 74.7344 55.9219C74.8906 55.3281 75.0052 54.7604 75.0781 54.2188L75.2344 52.8594C75.2656 52.4427 75.2865 51.9531 75.2969 51.3906C75.3073 50.8281 75.25 50.2812 75.125 49.75C75.0104 49.2188 74.7969 48.776 74.4844 48.4219C74.1719 48.0573 73.7135 47.8594 73.1094 47.8281C72.4635 47.7865 71.9115 47.9323 71.4531 48.2656C71.0052 48.5885 70.6354 49.0104 70.3438 49.5312C70.0521 50.0521 69.8229 50.6146 69.6562 51.2188C69.5 51.8125 69.3906 52.3646 69.3281 52.875ZM95.7812 58.5625L97.125 50.0938C97.1667 49.6875 97.1562 49.3073 97.0938 48.9531C97.0417 48.5885 96.8958 48.2917 96.6562 48.0625C96.4271 47.8333 96.0729 47.7135 95.5938 47.7031C95.125 47.6927 94.724 47.7917 94.3906 48C94.0573 48.1979 93.7865 48.474 93.5781 48.8281C93.3802 49.1719 93.2448 49.5521 93.1719 49.9688L89.625 50C89.6875 49.1875 89.901 48.4583 90.2656 47.8125C90.6406 47.1562 91.1198 46.599 91.7031 46.1406C92.2865 45.6823 92.9375 45.3385 93.6562 45.1094C94.3854 44.8698 95.1406 44.7552 95.9219 44.7656C97.0156 44.776 97.9375 45.0104 98.6875 45.4688C99.4375 45.9167 99.9844 46.5417 100.328 47.3438C100.672 48.1458 100.786 49.0938 100.672 50.1875L99.3906 58.0938C99.2969 58.6979 99.2344 59.3073 99.2031 59.9219C99.1823 60.526 99.2344 61.1302 99.3594 61.7344L99.3438 62L95.8438 62.0156C95.6979 61.4531 95.6302 60.8802 95.6406 60.2969C95.651 59.7135 95.6979 59.1354 95.7812 58.5625ZM97.4375 51.7031L97.0469 54.0625L95.5156 54.0469C95.0365 54.0469 94.5781 54.1146 94.1406 54.25C93.7135 54.3854 93.3177 54.5833 92.9531 54.8438C92.599 55.1042 92.3073 55.4219 92.0781 55.7969C91.8594 56.1719 91.7188 56.6146 91.6562 57.125C91.6042 57.5 91.6094 57.8542 91.6719 58.1875C91.7448 58.5208 91.8906 58.7917 92.1094 59C92.3385 59.2083 92.6771 59.3177 93.125 59.3281C93.5938 59.3281 94.0469 59.2292 94.4844 59.0312C94.9219 58.8229 95.2917 58.5417 95.5938 58.1875C95.9062 57.8333 96.1042 57.4219 96.1875 56.9531L96.7969 58.5C96.6406 59.0104 96.4219 59.5 96.1406 59.9688C95.8698 60.4271 95.5365 60.8385 95.1406 61.2031C94.7552 61.5573 94.3177 61.8385 93.8281 62.0469C93.3385 62.2552 92.8073 62.3542 92.2344 62.3438C91.2969 62.3333 90.5052 62.1094 89.8594 61.6719C89.2135 61.224 88.7292 60.6354 88.4062 59.9062C88.0938 59.1667 87.9635 58.349 88.0156 57.4531C88.0677 56.4635 88.3021 55.6042 88.7188 54.875C89.1354 54.1458 89.6771 53.5469 90.3438 53.0781C91.0104 52.599 91.7656 52.25 92.6094 52.0312C93.4531 51.8021 94.3385 51.6875 95.2656 51.6875L97.4375 51.7031ZM108.172 48.5312L105.844 62H102.297L105.234 45.0938H108.609L108.172 48.5312ZM112.672 44.9688L112.219 48.5625C112.01 48.5104 111.797 48.474 111.578 48.4531C111.359 48.4219 111.146 48.4062 110.938 48.4062C110.354 48.3958 109.854 48.5 109.438 48.7188C109.021 48.9375 108.667 49.2344 108.375 49.6094C108.094 49.974 107.854 50.3854 107.656 50.8438C107.469 51.3021 107.318 51.776 107.203 52.2656L106.422 52.3125C106.516 51.6354 106.656 50.8594 106.844 49.9844C107.042 49.1094 107.323 48.2708 107.688 47.4688C108.052 46.6562 108.536 45.9948 109.141 45.4844C109.745 44.9635 110.5 44.7135 111.406 44.7344C111.625 44.7448 111.839 44.7708 112.047 44.8125C112.255 44.8542 112.464 44.9062 112.672 44.9688ZM118.391 62.3125C117.276 62.2917 116.333 62.0729 115.562 61.6562C114.792 61.2396 114.182 60.6719 113.734 59.9531C113.297 59.2344 113 58.4219 112.844 57.5156C112.688 56.6094 112.661 55.6458 112.766 54.625L112.969 53C113.094 51.9583 113.333 50.9427 113.688 49.9531C114.052 48.9531 114.536 48.0573 115.141 47.2656C115.745 46.474 116.484 45.8542 117.359 45.4062C118.245 44.9583 119.281 44.7448 120.469 44.7656C121.615 44.7969 122.536 45.0573 123.234 45.5469C123.943 46.026 124.464 46.6562 124.797 47.4375C125.141 48.2188 125.344 49.0833 125.406 50.0312C125.479 50.9792 125.458 51.9271 125.344 52.875L125.078 54.7031H114.406L114.891 51.9531L121.938 51.9688L122 51.5469C122.083 51.0156 122.104 50.4688 122.062 49.9062C122.031 49.3438 121.875 48.8646 121.594 48.4688C121.312 48.0729 120.839 47.8542 120.172 47.8125C119.474 47.7812 118.901 47.9271 118.453 48.25C118.005 48.5729 117.651 49.0052 117.391 49.5469C117.13 50.0885 116.938 50.6667 116.812 51.2812C116.688 51.8854 116.594 52.4583 116.531 53L116.328 54.6406C116.266 55.1615 116.24 55.6875 116.25 56.2188C116.271 56.75 116.354 57.2448 116.5 57.7031C116.656 58.151 116.911 58.5208 117.266 58.8125C117.63 59.0938 118.141 59.2396 118.797 59.25C119.568 59.2708 120.271 59.125 120.906 58.8125C121.542 58.4896 122.125 58.0729 122.656 57.5625L124.047 59.8125C123.609 60.3958 123.083 60.875 122.469 61.25C121.865 61.625 121.208 61.8958 120.5 62.0625C119.802 62.2396 119.099 62.3229 118.391 62.3125ZM143.5 45.0938L143 47.9062H134.938L135.438 45.0938H143.5ZM138.344 40.9531H141.891L139.109 57.3281C139.078 57.599 139.062 57.875 139.062 58.1562C139.073 58.4271 139.141 58.6562 139.266 58.8438C139.391 59.0208 139.625 59.1146 139.969 59.125C140.146 59.125 140.323 59.1146 140.5 59.0938C140.688 59.0625 140.87 59.0312 141.047 59L140.75 61.9531C140.427 62.0781 140.094 62.1667 139.75 62.2188C139.406 62.2708 139.057 62.2917 138.703 62.2812C137.807 62.2708 137.12 62.0312 136.641 61.5625C136.172 61.0938 135.854 60.5 135.688 59.7812C135.531 59.0521 135.49 58.3021 135.562 57.5312L138.344 40.9531ZM150.953 38L146.797 62H143.234L147.406 38H150.953ZM147.797 52.9688H146.766C146.859 52.1042 147.042 51.1927 147.312 50.2344C147.594 49.276 147.979 48.375 148.469 47.5312C148.958 46.6875 149.583 46.0104 150.344 45.5C151.104 44.9792 152.021 44.7396 153.094 44.7812C153.958 44.8021 154.651 45.0104 155.172 45.4062C155.703 45.7917 156.094 46.2969 156.344 46.9219C156.604 47.5469 156.76 48.2292 156.812 48.9688C156.865 49.7083 156.849 50.4323 156.766 51.1406L154.953 62H151.406L153.219 51.0938C153.26 50.625 153.271 50.1458 153.25 49.6562C153.229 49.1562 153.099 48.7344 152.859 48.3906C152.62 48.0469 152.198 47.8698 151.594 47.8594C150.938 47.8281 150.38 47.9844 149.922 48.3281C149.474 48.6615 149.104 49.0938 148.812 49.625C148.531 50.1562 148.307 50.7188 148.141 51.3125C147.974 51.9062 147.859 52.4583 147.797 52.9688ZM164.953 62.3125C163.839 62.2917 162.896 62.0729 162.125 61.6562C161.354 61.2396 160.745 60.6719 160.297 59.9531C159.859 59.2344 159.562 58.4219 159.406 57.5156C159.25 56.6094 159.224 55.6458 159.328 54.625L159.531 53C159.656 51.9583 159.896 50.9427 160.25 49.9531C160.615 48.9531 161.099 48.0573 161.703 47.2656C162.307 46.474 163.047 45.8542 163.922 45.4062C164.807 44.9583 165.844 44.7448 167.031 44.7656C168.177 44.7969 169.099 45.0573 169.797 45.5469C170.505 46.026 171.026 46.6562 171.359 47.4375C171.703 48.2188 171.906 49.0833 171.969 50.0312C172.042 50.9792 172.021 51.9271 171.906 52.875L171.641 54.7031H160.969L161.453 51.9531L168.5 51.9688L168.562 51.5469C168.646 51.0156 168.667 50.4688 168.625 49.9062C168.594 49.3438 168.438 48.8646 168.156 48.4688C167.875 48.0729 167.401 47.8542 166.734 47.8125C166.036 47.7812 165.464 47.9271 165.016 48.25C164.568 48.5729 164.214 49.0052 163.953 49.5469C163.693 50.0885 163.5 50.6667 163.375 51.2812C163.25 51.8854 163.156 52.4583 163.094 53L162.891 54.6406C162.828 55.1615 162.802 55.6875 162.812 56.2188C162.833 56.75 162.917 57.2448 163.062 57.7031C163.219 58.151 163.474 58.5208 163.828 58.8125C164.193 59.0938 164.703 59.2396 165.359 59.25C166.13 59.2708 166.833 59.125 167.469 58.8125C168.104 58.4896 168.688 58.0729 169.219 57.5625L170.609 59.8125C170.172 60.3958 169.646 60.875 169.031 61.25C168.427 61.625 167.771 61.8958 167.062 62.0625C166.365 62.2396 165.661 62.3229 164.953 62.3125ZM194.844 39.25H198.547L195.859 55.0312C195.661 56.5104 195.214 57.8073 194.516 58.9219C193.828 60.026 192.917 60.8802 191.781 61.4844C190.646 62.0781 189.312 62.3594 187.781 62.3281C186.323 62.2969 185.115 61.974 184.156 61.3594C183.208 60.7344 182.531 59.8802 182.125 58.7969C181.719 57.7135 181.594 56.4635 181.75 55.0469L184.438 39.25H188.125L185.469 55.0625C185.385 55.7917 185.391 56.4635 185.484 57.0781C185.578 57.6823 185.823 58.1719 186.219 58.5469C186.615 58.9115 187.229 59.1094 188.062 59.1406C188.938 59.1719 189.656 59.0156 190.219 58.6719C190.781 58.3281 191.219 57.8438 191.531 57.2188C191.844 56.5833 192.057 55.8646 192.172 55.0625L194.844 39.25ZM206.5 57.4531C206.562 56.9844 206.458 56.5938 206.188 56.2812C205.927 55.9688 205.599 55.7031 205.203 55.4844C204.818 55.2552 204.453 55.0573 204.109 54.8906C203.557 54.6198 203.031 54.3333 202.531 54.0312C202.042 53.7292 201.604 53.3854 201.219 53C200.844 52.6042 200.552 52.151 200.344 51.6406C200.135 51.1302 200.052 50.5365 200.094 49.8594C200.135 49.0677 200.323 48.3594 200.656 47.7344C201 47.099 201.448 46.5625 202 46.125C202.552 45.6771 203.177 45.3385 203.875 45.1094C204.583 44.8698 205.312 44.7552 206.062 44.7656C207.104 44.7969 208.016 45.0312 208.797 45.4688C209.578 45.8958 210.172 46.5 210.578 47.2812C210.995 48.0521 211.193 48.9635 211.172 50.0156L207.625 50C207.646 49.5938 207.609 49.2135 207.516 48.8594C207.422 48.4948 207.24 48.1979 206.969 47.9688C206.708 47.7396 206.344 47.625 205.875 47.625C205.458 47.6354 205.083 47.7292 204.75 47.9062C204.417 48.0729 204.141 48.3125 203.922 48.625C203.703 48.9375 203.562 49.2969 203.5 49.7031C203.448 50.026 203.484 50.3125 203.609 50.5625C203.745 50.8021 203.932 51.0156 204.172 51.2031C204.411 51.3802 204.672 51.5365 204.953 51.6719C205.245 51.8073 205.505 51.9323 205.734 52.0469C206.505 52.4115 207.219 52.8125 207.875 53.25C208.542 53.6875 209.068 54.224 209.453 54.8594C209.839 55.4844 210 56.276 209.938 57.2344C209.896 58.0677 209.693 58.8073 209.328 59.4531C208.974 60.0885 208.505 60.6198 207.922 61.0469C207.339 61.474 206.682 61.7969 205.953 62.0156C205.224 62.2344 204.469 62.3333 203.688 62.3125C202.625 62.2812 201.688 62.0365 200.875 61.5781C200.062 61.1094 199.432 60.4688 198.984 59.6562C198.536 58.8438 198.323 57.901 198.344 56.8281L201.781 56.8438C201.771 57.3438 201.823 57.7917 201.938 58.1875C202.062 58.5833 202.281 58.8958 202.594 59.125C202.917 59.3438 203.349 59.4531 203.891 59.4531C204.328 59.4531 204.729 59.3802 205.094 59.2344C205.469 59.0885 205.776 58.8698 206.016 58.5781C206.266 58.276 206.427 57.901 206.5 57.4531ZM218.703 62.3125C217.589 62.2917 216.646 62.0729 215.875 61.6562C215.104 61.2396 214.495 60.6719 214.047 59.9531C213.609 59.2344 213.312 58.4219 213.156 57.5156C213 56.6094 212.974 55.6458 213.078 54.625L213.281 53C213.406 51.9583 213.646 50.9427 214 49.9531C214.365 48.9531 214.849 48.0573 215.453 47.2656C216.057 46.474 216.797 45.8542 217.672 45.4062C218.557 44.9583 219.594 44.7448 220.781 44.7656C221.927 44.7969 222.849 45.0573 223.547 45.5469C224.255 46.026 224.776 46.6562 225.109 47.4375C225.453 48.2188 225.656 49.0833 225.719 50.0312C225.792 50.9792 225.771 51.9271 225.656 52.875L225.391 54.7031H214.719L215.203 51.9531L222.25 51.9688L222.312 51.5469C222.396 51.0156 222.417 50.4688 222.375 49.9062C222.344 49.3438 222.188 48.8646 221.906 48.4688C221.625 48.0729 221.151 47.8542 220.484 47.8125C219.786 47.7812 219.214 47.9271 218.766 48.25C218.318 48.5729 217.964 49.0052 217.703 49.5469C217.443 50.0885 217.25 50.6667 217.125 51.2812C217 51.8854 216.906 52.4583 216.844 53L216.641 54.6406C216.578 55.1615 216.552 55.6875 216.562 56.2188C216.583 56.75 216.667 57.2448 216.812 57.7031C216.969 58.151 217.224 58.5208 217.578 58.8125C217.943 59.0938 218.453 59.2396 219.109 59.25C219.88 59.2708 220.583 59.125 221.219 58.8125C221.854 58.4896 222.438 58.0729 222.969 57.5625L224.359 59.8125C223.922 60.3958 223.396 60.875 222.781 61.25C222.177 61.625 221.521 61.8958 220.812 62.0625C220.115 62.2396 219.411 62.3229 218.703 62.3125ZM232.797 48.5312L230.469 62H226.922L229.859 45.0938H233.234L232.797 48.5312ZM237.297 44.9688L236.844 48.5625C236.635 48.5104 236.422 48.474 236.203 48.4531C235.984 48.4219 235.771 48.4062 235.562 48.4062C234.979 48.3958 234.479 48.5 234.062 48.7188C233.646 48.9375 233.292 49.2344 233 49.6094C232.719 49.974 232.479 50.3854 232.281 50.8438C232.094 51.3021 231.943 51.776 231.828 52.2656L231.047 52.3125C231.141 51.6354 231.281 50.8594 231.469 49.9844C231.667 49.1094 231.948 48.2708 232.312 47.4688C232.677 46.6562 233.161 45.9948 233.766 45.4844C234.37 44.9635 235.125 44.7135 236.031 44.7344C236.25 44.7448 236.464 44.7708 236.672 44.8125C236.88 44.8542 237.089 44.9062 237.297 44.9688ZM245.25 57.4531C245.312 56.9844 245.208 56.5938 244.938 56.2812C244.677 55.9688 244.349 55.7031 243.953 55.4844C243.568 55.2552 243.203 55.0573 242.859 54.8906C242.307 54.6198 241.781 54.3333 241.281 54.0312C240.792 53.7292 240.354 53.3854 239.969 53C239.594 52.6042 239.302 52.151 239.094 51.6406C238.885 51.1302 238.802 50.5365 238.844 49.8594C238.885 49.0677 239.073 48.3594 239.406 47.7344C239.75 47.099 240.198 46.5625 240.75 46.125C241.302 45.6771 241.927 45.3385 242.625 45.1094C243.333 44.8698 244.062 44.7552 244.812 44.7656C245.854 44.7969 246.766 45.0312 247.547 45.4688C248.328 45.8958 248.922 46.5 249.328 47.2812C249.745 48.0521 249.943 48.9635 249.922 50.0156L246.375 50C246.396 49.5938 246.359 49.2135 246.266 48.8594C246.172 48.4948 245.99 48.1979 245.719 47.9688C245.458 47.7396 245.094 47.625 244.625 47.625C244.208 47.6354 243.833 47.7292 243.5 47.9062C243.167 48.0729 242.891 48.3125 242.672 48.625C242.453 48.9375 242.312 49.2969 242.25 49.7031C242.198 50.026 242.234 50.3125 242.359 50.5625C242.495 50.8021 242.682 51.0156 242.922 51.2031C243.161 51.3802 243.422 51.5365 243.703 51.6719C243.995 51.8073 244.255 51.9323 244.484 52.0469C245.255 52.4115 245.969 52.8125 246.625 53.25C247.292 53.6875 247.818 54.224 248.203 54.8594C248.589 55.4844 248.75 56.276 248.688 57.2344C248.646 58.0677 248.443 58.8073 248.078 59.4531C247.724 60.0885 247.255 60.6198 246.672 61.0469C246.089 61.474 245.432 61.7969 244.703 62.0156C243.974 62.2344 243.219 62.3333 242.438 62.3125C241.375 62.2812 240.438 62.0365 239.625 61.5781C238.812 61.1094 238.182 60.4688 237.734 59.6562C237.286 58.8438 237.073 57.901 237.094 56.8281L240.531 56.8438C240.521 57.3438 240.573 57.7917 240.688 58.1875C240.812 58.5833 241.031 58.8958 241.344 59.125C241.667 59.3438 242.099 59.4531 242.641 59.4531C243.078 59.4531 243.479 59.3802 243.844 59.2344C244.219 59.0885 244.526 58.8698 244.766 58.5781C245.016 58.276 245.177 57.901 245.25 57.4531ZM265.703 55.2656L262.484 55.2812C262.568 54.4583 262.714 53.7031 262.922 53.0156C263.141 52.3281 263.443 51.6875 263.828 51.0938C264.224 50.4896 264.719 49.8854 265.312 49.2812C265.708 48.8646 266.104 48.4427 266.5 48.0156C266.896 47.5781 267.234 47.1146 267.516 46.625C267.797 46.125 267.979 45.5729 268.062 44.9688C268.115 44.5729 268.12 44.151 268.078 43.7031C268.036 43.2552 267.901 42.8698 267.672 42.5469C267.453 42.224 267.089 42.0521 266.578 42.0312C266.057 42.0312 265.62 42.1823 265.266 42.4844C264.922 42.7865 264.651 43.1615 264.453 43.6094C264.255 44.0573 264.12 44.5 264.047 44.9375L260.5 44.9531C260.615 43.7969 260.943 42.7552 261.484 41.8281C262.026 40.901 262.75 40.1771 263.656 39.6562C264.573 39.1354 265.641 38.8906 266.859 38.9219C268.016 38.9531 268.969 39.2344 269.719 39.7656C270.479 40.2865 271.026 40.9896 271.359 41.875C271.703 42.7604 271.833 43.75 271.75 44.8438C271.656 45.7917 271.396 46.6458 270.969 47.4062C270.542 48.1667 270.021 48.875 269.406 49.5312C268.792 50.1771 268.161 50.8177 267.516 51.4531C266.964 51.9844 266.552 52.5677 266.281 53.2031C266.01 53.8385 265.818 54.526 265.703 55.2656ZM261.266 60.2031C261.266 59.6302 261.448 59.1302 261.812 58.7031C262.177 58.276 262.651 58.0573 263.234 58.0469C263.828 58.0365 264.302 58.2344 264.656 58.6406C265.01 59.0365 265.188 59.5208 265.188 60.0938C265.177 60.6667 264.99 61.1615 264.625 61.5781C264.271 61.9844 263.802 62.1979 263.219 62.2188C262.625 62.2292 262.151 62.0365 261.797 61.6406C261.443 61.2448 261.266 60.7656 261.266 60.2031Z" fill="#124851"/>
<line x1="46" y1="112.5" x2="756" y2="112.5" stroke="#EE5A2C"/>
<circle opacity="0.9" cx="844" cy="103" r="90" fill="#E86A42"/>
<circle opacity="0.8" cx="1004" cy="103" r="90" fill="#FC9A7B"/>
<path d="M968.544 121.337L964.308 133H962.576L967.454 120.203H968.57L968.544 121.337ZM972.095 133L967.85 121.337L967.823 120.203H968.939L973.835 133H972.095ZM971.875 128.263V129.651H964.686V128.263H971.875ZM981.464 123.49H982.94V132.798C982.94 133.636 982.771 134.351 982.431 134.942C982.091 135.534 981.616 135.982 981.007 136.287C980.403 136.598 979.706 136.753 978.915 136.753C978.587 136.753 978.2 136.7 977.755 136.595C977.315 136.495 976.882 136.322 976.454 136.076C976.032 135.836 975.678 135.511 975.391 135.101L976.243 134.134C976.642 134.614 977.058 134.948 977.491 135.136C977.931 135.323 978.364 135.417 978.792 135.417C979.308 135.417 979.753 135.32 980.128 135.127C980.503 134.934 980.793 134.646 980.998 134.266C981.209 133.891 981.314 133.428 981.314 132.877V125.582L981.464 123.49ZM974.916 128.351V128.166C974.916 127.439 975.001 126.78 975.171 126.188C975.347 125.591 975.596 125.078 975.918 124.65C976.246 124.223 976.642 123.895 977.104 123.666C977.567 123.432 978.089 123.314 978.669 123.314C979.267 123.314 979.788 123.42 980.233 123.631C980.685 123.836 981.065 124.138 981.376 124.536C981.692 124.929 981.941 125.403 982.123 125.96C982.305 126.517 982.431 127.146 982.501 127.85V128.658C982.437 129.355 982.311 129.982 982.123 130.539C981.941 131.096 981.692 131.57 981.376 131.963C981.065 132.355 980.685 132.657 980.233 132.868C979.782 133.073 979.255 133.176 978.651 133.176C978.083 133.176 977.567 133.056 977.104 132.815C976.647 132.575 976.255 132.238 975.927 131.805C975.599 131.371 975.347 130.861 975.171 130.275C975.001 129.684 974.916 129.042 974.916 128.351ZM976.542 128.166V128.351C976.542 128.825 976.589 129.271 976.683 129.687C976.782 130.103 976.932 130.469 977.131 130.785C977.336 131.102 977.597 131.351 977.913 131.532C978.229 131.708 978.607 131.796 979.047 131.796C979.586 131.796 980.031 131.682 980.383 131.453C980.734 131.225 981.013 130.923 981.218 130.548C981.429 130.173 981.593 129.766 981.71 129.326V127.208C981.646 126.886 981.546 126.575 981.411 126.276C981.282 125.972 981.112 125.702 980.901 125.468C980.696 125.228 980.441 125.037 980.137 124.896C979.832 124.756 979.475 124.686 979.064 124.686C978.619 124.686 978.235 124.779 977.913 124.967C977.597 125.148 977.336 125.4 977.131 125.723C976.932 126.039 976.782 126.408 976.683 126.83C976.589 127.246 976.542 127.691 976.542 128.166ZM989.356 133.176C988.694 133.176 988.094 133.064 987.555 132.842C987.021 132.613 986.562 132.294 986.175 131.884C985.794 131.474 985.501 130.987 985.296 130.425C985.091 129.862 984.988 129.247 984.988 128.579V128.21C984.988 127.437 985.103 126.748 985.331 126.145C985.56 125.535 985.87 125.02 986.263 124.598C986.655 124.176 987.101 123.856 987.599 123.64C988.097 123.423 988.612 123.314 989.146 123.314C989.825 123.314 990.411 123.432 990.903 123.666C991.401 123.9 991.809 124.229 992.125 124.65C992.441 125.066 992.676 125.559 992.828 126.127C992.98 126.689 993.057 127.305 993.057 127.973V128.702H985.955V127.375H991.431V127.252C991.407 126.83 991.319 126.42 991.167 126.021C991.021 125.623 990.786 125.295 990.464 125.037C990.142 124.779 989.702 124.65 989.146 124.65C988.776 124.65 988.437 124.729 988.126 124.888C987.815 125.04 987.549 125.269 987.326 125.573C987.104 125.878 986.931 126.25 986.808 126.689C986.685 127.129 986.623 127.636 986.623 128.21V128.579C986.623 129.03 986.685 129.455 986.808 129.854C986.937 130.246 987.121 130.592 987.361 130.891C987.607 131.189 987.903 131.424 988.249 131.594C988.601 131.764 988.999 131.849 989.444 131.849C990.019 131.849 990.505 131.731 990.903 131.497C991.302 131.263 991.65 130.949 991.949 130.557L992.934 131.339C992.729 131.649 992.468 131.945 992.151 132.227C991.835 132.508 991.445 132.736 990.982 132.912C990.525 133.088 989.983 133.176 989.356 133.176ZM1009.12 126.628V131.312C1008.96 131.547 1008.71 131.811 1008.37 132.104C1008.02 132.391 1007.54 132.643 1006.93 132.859C1006.33 133.07 1005.55 133.176 1004.6 133.176C1003.82 133.176 1003.1 133.041 1002.44 132.771C1001.79 132.496 1001.23 132.098 1000.75 131.576C1000.27 131.049 999.903 130.41 999.64 129.66C999.382 128.904 999.253 128.049 999.253 127.094V126.101C999.253 125.146 999.364 124.293 999.587 123.543C999.815 122.793 1000.15 122.157 1000.59 121.636C1001.03 121.108 1001.57 120.71 1002.21 120.44C1002.84 120.165 1003.58 120.027 1004.4 120.027C1005.38 120.027 1006.2 120.197 1006.86 120.537C1007.52 120.871 1008.03 121.334 1008.4 121.926C1008.78 122.518 1009.02 123.191 1009.12 123.947H1007.43C1007.35 123.484 1007.2 123.062 1006.97 122.682C1006.75 122.301 1006.43 121.996 1006.01 121.768C1005.6 121.533 1005.06 121.416 1004.4 121.416C1003.81 121.416 1003.3 121.524 1002.87 121.741C1002.43 121.958 1002.07 122.269 1001.79 122.673C1001.51 123.077 1001.3 123.566 1001.16 124.141C1001.03 124.715 1000.96 125.362 1000.96 126.083V127.094C1000.96 127.832 1001.04 128.491 1001.21 129.071C1001.39 129.651 1001.64 130.146 1001.96 130.557C1002.28 130.961 1002.67 131.269 1003.11 131.479C1003.56 131.69 1004.06 131.796 1004.61 131.796C1005.21 131.796 1005.7 131.746 1006.07 131.646C1006.45 131.541 1006.74 131.418 1006.95 131.277C1007.16 131.131 1007.32 130.993 1007.44 130.864V127.999H1004.47V126.628H1009.12ZM1013.32 124.984V133H1011.69V123.49H1013.27L1013.32 124.984ZM1016.29 123.438L1016.28 124.949C1016.14 124.92 1016.01 124.902 1015.89 124.896C1015.77 124.885 1015.64 124.879 1015.49 124.879C1015.11 124.879 1014.78 124.938 1014.49 125.055C1014.21 125.172 1013.96 125.336 1013.76 125.547C1013.56 125.758 1013.41 126.01 1013.29 126.303C1013.18 126.59 1013.1 126.906 1013.07 127.252L1012.61 127.516C1012.61 126.941 1012.67 126.402 1012.78 125.898C1012.9 125.395 1013.08 124.949 1013.32 124.562C1013.56 124.17 1013.86 123.865 1014.23 123.648C1014.6 123.426 1015.05 123.314 1015.57 123.314C1015.68 123.314 1015.82 123.329 1015.97 123.358C1016.12 123.382 1016.23 123.408 1016.29 123.438ZM1017.18 128.351V128.148C1017.18 127.463 1017.28 126.827 1017.48 126.241C1017.68 125.649 1017.97 125.137 1018.34 124.703C1018.72 124.264 1019.17 123.924 1019.71 123.684C1020.24 123.438 1020.84 123.314 1021.5 123.314C1022.17 123.314 1022.77 123.438 1023.3 123.684C1023.84 123.924 1024.3 124.264 1024.67 124.703C1025.05 125.137 1025.34 125.649 1025.54 126.241C1025.74 126.827 1025.84 127.463 1025.84 128.148V128.351C1025.84 129.036 1025.74 129.672 1025.54 130.258C1025.34 130.844 1025.05 131.356 1024.67 131.796C1024.3 132.229 1023.84 132.569 1023.31 132.815C1022.78 133.056 1022.18 133.176 1021.52 133.176C1020.85 133.176 1020.25 133.056 1019.71 132.815C1019.18 132.569 1018.72 132.229 1018.34 131.796C1017.97 131.356 1017.68 130.844 1017.48 130.258C1017.28 129.672 1017.18 129.036 1017.18 128.351ZM1018.81 128.148V128.351C1018.81 128.825 1018.86 129.273 1018.98 129.695C1019.09 130.111 1019.25 130.48 1019.48 130.803C1019.71 131.125 1019.99 131.38 1020.33 131.567C1020.67 131.749 1021.06 131.84 1021.52 131.84C1021.96 131.84 1022.35 131.749 1022.68 131.567C1023.02 131.38 1023.31 131.125 1023.53 130.803C1023.75 130.48 1023.92 130.111 1024.03 129.695C1024.15 129.273 1024.21 128.825 1024.21 128.351V128.148C1024.21 127.68 1024.15 127.237 1024.03 126.821C1023.92 126.399 1023.75 126.027 1023.52 125.705C1023.3 125.377 1023.02 125.119 1022.68 124.932C1022.34 124.744 1021.95 124.65 1021.5 124.65C1021.05 124.65 1020.66 124.744 1020.32 124.932C1019.99 125.119 1019.71 125.377 1019.48 125.705C1019.25 126.027 1019.09 126.399 1018.98 126.821C1018.86 127.237 1018.81 127.68 1018.81 128.148ZM1033.7 130.803V123.49H1035.33V133H1033.78L1033.7 130.803ZM1034 128.799L1034.68 128.781C1034.68 129.414 1034.61 130 1034.48 130.539C1034.35 131.072 1034.14 131.535 1033.85 131.928C1033.55 132.32 1033.17 132.628 1032.7 132.851C1032.22 133.067 1031.64 133.176 1030.96 133.176C1030.5 133.176 1030.08 133.108 1029.69 132.974C1029.31 132.839 1028.98 132.631 1028.71 132.35C1028.43 132.068 1028.22 131.702 1028.06 131.251C1027.92 130.8 1027.84 130.258 1027.84 129.625V123.49H1029.47V129.643C1029.47 130.07 1029.52 130.425 1029.61 130.706C1029.71 130.981 1029.84 131.201 1030.01 131.365C1030.18 131.523 1030.36 131.635 1030.57 131.699C1030.78 131.764 1031 131.796 1031.22 131.796C1031.91 131.796 1032.46 131.664 1032.86 131.4C1033.27 131.131 1033.56 130.771 1033.73 130.319C1033.91 129.862 1034 129.355 1034 128.799ZM1039.44 125.318V136.656H1037.8V123.49H1039.3L1039.44 125.318ZM1045.84 128.166V128.351C1045.84 129.042 1045.76 129.684 1045.6 130.275C1045.43 130.861 1045.19 131.371 1044.88 131.805C1044.57 132.238 1044.18 132.575 1043.73 132.815C1043.27 133.056 1042.74 133.176 1042.15 133.176C1041.55 133.176 1041.02 133.076 1040.55 132.877C1040.09 132.678 1039.7 132.388 1039.38 132.007C1039.05 131.626 1038.79 131.169 1038.6 130.636C1038.41 130.103 1038.29 129.502 1038.21 128.834V127.85C1038.29 127.146 1038.42 126.517 1038.61 125.96C1038.8 125.403 1039.06 124.929 1039.38 124.536C1039.7 124.138 1040.09 123.836 1040.54 123.631C1041 123.42 1041.53 123.314 1042.13 123.314C1042.72 123.314 1043.25 123.432 1043.72 123.666C1044.18 123.895 1044.57 124.223 1044.89 124.65C1045.2 125.078 1045.44 125.591 1045.6 126.188C1045.76 126.78 1045.84 127.439 1045.84 128.166ZM1044.21 128.351V128.166C1044.21 127.691 1044.16 127.246 1044.06 126.83C1043.96 126.408 1043.8 126.039 1043.59 125.723C1043.39 125.4 1043.12 125.148 1042.8 124.967C1042.48 124.779 1042.1 124.686 1041.65 124.686C1041.24 124.686 1040.88 124.756 1040.58 124.896C1040.28 125.037 1040.03 125.228 1039.81 125.468C1039.6 125.702 1039.43 125.972 1039.3 126.276C1039.17 126.575 1039.07 126.886 1039.01 127.208V129.484C1039.12 129.895 1039.29 130.281 1039.5 130.645C1039.71 131.002 1039.99 131.292 1040.34 131.515C1040.69 131.731 1041.14 131.84 1041.67 131.84C1042.11 131.84 1042.49 131.749 1042.8 131.567C1043.12 131.38 1043.39 131.125 1043.59 130.803C1043.8 130.48 1043.96 130.111 1044.06 129.695C1044.16 129.273 1044.21 128.825 1044.21 128.351ZM996.572 141.186H996.713V142.565H996.572C995.711 142.565 994.99 142.706 994.41 142.987C993.83 143.263 993.37 143.635 993.03 144.104C992.69 144.566 992.444 145.088 992.292 145.668C992.146 146.248 992.072 146.837 992.072 147.435V149.315C992.072 149.884 992.14 150.388 992.274 150.827C992.409 151.261 992.594 151.627 992.828 151.926C993.062 152.225 993.326 152.45 993.619 152.603C993.918 152.755 994.229 152.831 994.551 152.831C994.926 152.831 995.26 152.761 995.553 152.62C995.846 152.474 996.092 152.271 996.291 152.014C996.496 151.75 996.651 151.439 996.757 151.082C996.862 150.725 996.915 150.332 996.915 149.904C996.915 149.523 996.868 149.157 996.774 148.806C996.681 148.448 996.537 148.132 996.344 147.856C996.15 147.575 995.907 147.355 995.614 147.197C995.327 147.033 994.984 146.951 994.586 146.951C994.135 146.951 993.713 147.062 993.32 147.285C992.934 147.502 992.614 147.789 992.362 148.146C992.116 148.498 991.976 148.882 991.94 149.298L991.079 149.289C991.161 148.633 991.313 148.073 991.536 147.61C991.765 147.142 992.046 146.761 992.38 146.468C992.72 146.169 993.098 145.952 993.514 145.817C993.936 145.677 994.381 145.606 994.85 145.606C995.488 145.606 996.039 145.727 996.502 145.967C996.965 146.207 997.346 146.529 997.645 146.934C997.943 147.332 998.163 147.783 998.304 148.287C998.45 148.785 998.523 149.298 998.523 149.825C998.523 150.429 998.438 150.994 998.269 151.521C998.099 152.049 997.844 152.512 997.504 152.91C997.17 153.309 996.757 153.619 996.265 153.842C995.772 154.064 995.201 154.176 994.551 154.176C993.859 154.176 993.256 154.035 992.74 153.754C992.225 153.467 991.797 153.086 991.457 152.611C991.117 152.137 990.862 151.609 990.692 151.029C990.522 150.449 990.438 149.86 990.438 149.263V148.498C990.438 147.596 990.528 146.711 990.71 145.844C990.892 144.977 991.205 144.191 991.65 143.488C992.102 142.785 992.726 142.226 993.522 141.81C994.319 141.394 995.336 141.186 996.572 141.186ZM1002.51 147.909L1001.21 147.575L1001.85 141.203H1008.42V142.706H1003.23L1002.85 146.187C1003.08 146.052 1003.38 145.926 1003.74 145.809C1004.1 145.691 1004.51 145.633 1004.98 145.633C1005.58 145.633 1006.11 145.735 1006.57 145.94C1007.04 146.14 1007.44 146.427 1007.77 146.802C1008.1 147.177 1008.36 147.628 1008.53 148.155C1008.71 148.683 1008.8 149.271 1008.8 149.922C1008.8 150.537 1008.71 151.103 1008.54 151.618C1008.38 152.134 1008.13 152.585 1007.8 152.972C1007.46 153.353 1007.04 153.648 1006.53 153.859C1006.03 154.07 1005.43 154.176 1004.75 154.176C1004.23 154.176 1003.74 154.105 1003.28 153.965C1002.82 153.818 1002.41 153.599 1002.05 153.306C1001.69 153.007 1001.4 152.638 1001.17 152.198C1000.95 151.753 1000.81 151.231 1000.75 150.634H1002.29C1002.36 151.114 1002.5 151.519 1002.72 151.847C1002.93 152.175 1003.2 152.424 1003.54 152.594C1003.89 152.758 1004.29 152.84 1004.75 152.84C1005.13 152.84 1005.48 152.772 1005.77 152.638C1006.07 152.503 1006.33 152.31 1006.53 152.058C1006.74 151.806 1006.89 151.501 1007 151.144C1007.11 150.786 1007.16 150.385 1007.16 149.939C1007.16 149.535 1007.11 149.16 1007 148.814C1006.88 148.469 1006.72 148.167 1006.5 147.909C1006.28 147.651 1006.01 147.452 1005.7 147.312C1005.38 147.165 1005.02 147.092 1004.61 147.092C1004.06 147.092 1003.65 147.165 1003.37 147.312C1003.09 147.458 1002.81 147.657 1002.51 147.909ZM1018.98 147.136V148.665H1010.2V147.136H1018.98ZM1015.41 143.4V152.717H1013.78V143.4H1015.41Z" fill="#222222"/>
<path d="M798.539 89.5684V95.2031C798.318 95.4701 797.976 95.7598 797.514 96.0723C797.051 96.3783 796.456 96.6419 795.727 96.8633C794.997 97.0846 794.115 97.1953 793.08 97.1953C792.162 97.1953 791.326 97.0456 790.57 96.7461C789.815 96.4401 789.164 95.9941 788.617 95.4082C788.077 94.8223 787.66 94.1061 787.367 93.2598C787.074 92.4069 786.928 91.4336 786.928 90.3398V89.4512C786.928 88.3574 787.068 87.3841 787.348 86.5312C787.634 85.6784 788.041 84.959 788.568 84.373C789.096 83.7871 789.724 83.3411 790.453 83.0352C791.182 82.7292 791.993 82.5762 792.885 82.5762C794.122 82.5762 795.137 82.778 795.932 83.1816C796.726 83.5788 797.331 84.1322 797.748 84.8418C798.171 85.5449 798.432 86.3522 798.529 87.2637H795.688C795.616 86.7819 795.479 86.362 795.277 86.0039C795.076 85.6458 794.786 85.3659 794.408 85.1641C794.037 84.9622 793.555 84.8613 792.963 84.8613C792.475 84.8613 792.038 84.9622 791.654 85.1641C791.277 85.3594 790.958 85.6491 790.697 86.0332C790.437 86.4173 790.238 86.8926 790.102 87.459C789.965 88.0254 789.896 88.6829 789.896 89.4316V90.3398C789.896 91.082 789.968 91.7396 790.111 92.3125C790.255 92.8789 790.466 93.3574 790.746 93.748C791.033 94.1322 791.384 94.4219 791.801 94.6172C792.217 94.8125 792.702 94.9102 793.256 94.9102C793.718 94.9102 794.102 94.8711 794.408 94.793C794.721 94.7148 794.971 94.6204 795.16 94.5098C795.355 94.3926 795.505 94.2819 795.609 94.1777V91.6582H792.934V89.5684H798.539ZM805.59 97.1953C804.77 97.1953 804.034 97.0651 803.383 96.8047C802.732 96.5378 802.178 96.1699 801.723 95.7012C801.273 95.2324 800.928 94.6888 800.688 94.0703C800.447 93.4453 800.326 92.7812 800.326 92.0781V91.6875C800.326 90.8867 800.44 90.1543 800.668 89.4902C800.896 88.8262 801.221 88.25 801.645 87.7617C802.074 87.2734 802.595 86.8991 803.207 86.6387C803.819 86.3717 804.509 86.2383 805.277 86.2383C806.026 86.2383 806.69 86.362 807.27 86.6094C807.849 86.8568 808.334 87.2083 808.725 87.6641C809.122 88.1198 809.421 88.6667 809.623 89.3047C809.825 89.9362 809.926 90.6393 809.926 91.4141V92.5859H801.527V90.7109H807.162V90.4961C807.162 90.1055 807.09 89.7572 806.947 89.4512C806.811 89.1387 806.602 88.8913 806.322 88.709C806.042 88.5267 805.684 88.4355 805.248 88.4355C804.877 88.4355 804.558 88.5169 804.291 88.6797C804.024 88.8424 803.806 89.0703 803.637 89.3633C803.474 89.6562 803.35 90.0013 803.266 90.3984C803.188 90.7891 803.148 91.2188 803.148 91.6875V92.0781C803.148 92.5013 803.207 92.8919 803.324 93.25C803.448 93.6081 803.62 93.9173 803.842 94.1777C804.07 94.4382 804.343 94.64 804.662 94.7832C804.988 94.9264 805.355 94.998 805.766 94.998C806.273 94.998 806.745 94.9004 807.182 94.7051C807.624 94.5033 808.005 94.2005 808.324 93.7969L809.691 95.2812C809.47 95.6003 809.167 95.9062 808.783 96.1992C808.406 96.4922 807.95 96.7331 807.416 96.9219C806.882 97.1042 806.273 97.1953 805.59 97.1953ZM814.281 88.6895V97H811.469V86.4336H814.105L814.281 88.6895ZM813.871 91.3457H813.109C813.109 90.5645 813.21 89.8613 813.412 89.2363C813.614 88.6048 813.897 88.0677 814.262 87.625C814.626 87.1758 815.059 86.834 815.561 86.5996C816.068 86.3587 816.635 86.2383 817.26 86.2383C817.755 86.2383 818.207 86.3099 818.617 86.4531C819.027 86.5964 819.379 86.8242 819.672 87.1367C819.971 87.4492 820.199 87.8626 820.355 88.377C820.518 88.8913 820.6 89.5195 820.6 90.2617V97H817.768V90.252C817.768 89.7832 817.702 89.4186 817.572 89.1582C817.442 88.8978 817.25 88.7155 816.996 88.6113C816.749 88.5007 816.443 88.4453 816.078 88.4453C815.701 88.4453 815.372 88.5202 815.092 88.6699C814.818 88.8197 814.59 89.028 814.408 89.2949C814.232 89.5553 814.099 89.8613 814.008 90.2129C813.917 90.5645 813.871 90.9421 813.871 91.3457ZM827.602 97.1953C826.781 97.1953 826.046 97.0651 825.395 96.8047C824.743 96.5378 824.19 96.1699 823.734 95.7012C823.285 95.2324 822.94 94.6888 822.699 94.0703C822.458 93.4453 822.338 92.7812 822.338 92.0781V91.6875C822.338 90.8867 822.452 90.1543 822.68 89.4902C822.908 88.8262 823.233 88.25 823.656 87.7617C824.086 87.2734 824.607 86.8991 825.219 86.6387C825.831 86.3717 826.521 86.2383 827.289 86.2383C828.038 86.2383 828.702 86.362 829.281 86.6094C829.861 86.8568 830.346 87.2083 830.736 87.6641C831.133 88.1198 831.433 88.6667 831.635 89.3047C831.837 89.9362 831.938 90.6393 831.938 91.4141V92.5859H823.539V90.7109H829.174V90.4961C829.174 90.1055 829.102 89.7572 828.959 89.4512C828.822 89.1387 828.614 88.8913 828.334 88.709C828.054 88.5267 827.696 88.4355 827.26 88.4355C826.889 88.4355 826.57 88.5169 826.303 88.6797C826.036 88.8424 825.818 89.0703 825.648 89.3633C825.486 89.6562 825.362 90.0013 825.277 90.3984C825.199 90.7891 825.16 91.2188 825.16 91.6875V92.0781C825.16 92.5013 825.219 92.8919 825.336 93.25C825.46 93.6081 825.632 93.9173 825.854 94.1777C826.081 94.4382 826.355 94.64 826.674 94.7832C826.999 94.9264 827.367 94.998 827.777 94.998C828.285 94.998 828.757 94.9004 829.193 94.7051C829.636 94.5033 830.017 94.2005 830.336 93.7969L831.703 95.2812C831.482 95.6003 831.179 95.9062 830.795 96.1992C830.417 96.4922 829.962 96.7331 829.428 96.9219C828.894 97.1042 828.285 97.1953 827.602 97.1953ZM836.352 88.7383V97H833.539V86.4336H836.186L836.352 88.7383ZM839.535 86.3652L839.486 88.9727C839.35 88.9531 839.184 88.9368 838.988 88.9238C838.799 88.9043 838.627 88.8945 838.471 88.8945C838.074 88.8945 837.729 88.9466 837.436 89.0508C837.149 89.1484 836.908 89.2949 836.713 89.4902C836.524 89.6855 836.381 89.9232 836.283 90.2031C836.192 90.4831 836.14 90.8021 836.127 91.1602L835.561 90.9844C835.561 90.3008 835.629 89.6725 835.766 89.0996C835.902 88.5202 836.101 88.0156 836.361 87.5859C836.628 87.1562 836.954 86.8242 837.338 86.5898C837.722 86.3555 838.161 86.2383 838.656 86.2383C838.812 86.2383 838.972 86.2513 839.135 86.2773C839.298 86.2969 839.431 86.3262 839.535 86.3652ZM846.234 94.6172V89.9102C846.234 89.5716 846.179 89.2819 846.068 89.041C845.958 88.7936 845.785 88.6016 845.551 88.4648C845.323 88.3281 845.027 88.2598 844.662 88.2598C844.35 88.2598 844.079 88.3151 843.852 88.4258C843.624 88.5299 843.448 88.6829 843.324 88.8848C843.201 89.0801 843.139 89.3112 843.139 89.5781H840.326C840.326 89.1289 840.43 88.7025 840.639 88.2988C840.847 87.8952 841.15 87.5404 841.547 87.2344C841.944 86.9219 842.416 86.6777 842.963 86.502C843.516 86.3262 844.135 86.2383 844.818 86.2383C845.639 86.2383 846.368 86.375 847.006 86.6484C847.644 86.9219 848.145 87.332 848.51 87.8789C848.881 88.4258 849.066 89.1094 849.066 89.9297V94.4512C849.066 95.0306 849.102 95.5059 849.174 95.877C849.245 96.2415 849.35 96.5605 849.486 96.834V97H846.645C846.508 96.7135 846.404 96.3555 846.332 95.9258C846.267 95.4896 846.234 95.0534 846.234 94.6172ZM846.605 90.5645L846.625 92.1562H845.053C844.682 92.1562 844.359 92.1986 844.086 92.2832C843.812 92.3678 843.588 92.4883 843.412 92.6445C843.236 92.7943 843.106 92.9701 843.021 93.1719C842.943 93.3737 842.904 93.5951 842.904 93.8359C842.904 94.0768 842.96 94.2949 843.07 94.4902C843.181 94.679 843.34 94.8288 843.549 94.9395C843.757 95.0436 844.001 95.0957 844.281 95.0957C844.704 95.0957 845.072 95.0111 845.385 94.8418C845.697 94.6725 845.938 94.4642 846.107 94.2168C846.283 93.9694 846.374 93.735 846.381 93.5137L847.123 94.7051C847.019 94.972 846.876 95.2487 846.693 95.5352C846.518 95.8216 846.293 96.0918 846.02 96.3457C845.746 96.5931 845.417 96.7982 845.033 96.9609C844.649 97.1172 844.193 97.1953 843.666 97.1953C842.995 97.1953 842.387 97.0618 841.84 96.7949C841.299 96.5215 840.87 96.1471 840.551 95.6719C840.238 95.1901 840.082 94.6432 840.082 94.0312C840.082 93.4779 840.186 92.9863 840.395 92.5566C840.603 92.127 840.909 91.7656 841.312 91.4727C841.723 91.1732 842.234 90.9486 842.846 90.7988C843.458 90.6426 844.167 90.5645 844.975 90.5645H846.605ZM856.41 86.4336V88.4258H850.258V86.4336H856.41ZM851.781 83.8262H854.594V93.8164C854.594 94.1224 854.633 94.3568 854.711 94.5195C854.796 94.6823 854.919 94.7962 855.082 94.8613C855.245 94.9199 855.45 94.9492 855.697 94.9492C855.873 94.9492 856.029 94.9427 856.166 94.9297C856.309 94.9102 856.43 94.8906 856.527 94.8711L856.537 96.9414C856.296 97.0195 856.036 97.0814 855.756 97.127C855.476 97.1725 855.167 97.1953 854.828 97.1953C854.21 97.1953 853.669 97.0944 853.207 96.8926C852.751 96.6842 852.4 96.3522 852.152 95.8965C851.905 95.4408 851.781 94.8418 851.781 94.0996V83.8262ZM860.98 86.4336V97H858.158V86.4336H860.98ZM857.982 83.6797C857.982 83.2695 858.126 82.931 858.412 82.6641C858.699 82.3971 859.083 82.2637 859.564 82.2637C860.04 82.2637 860.421 82.3971 860.707 82.6641C861 82.931 861.146 83.2695 861.146 83.6797C861.146 84.0898 861 84.4284 860.707 84.6953C860.421 84.9622 860.04 85.0957 859.564 85.0957C859.083 85.0957 858.699 84.9622 858.412 84.6953C858.126 84.4284 857.982 84.0898 857.982 83.6797ZM862.855 91.8242V91.6191C862.855 90.8444 862.966 90.1315 863.188 89.4805C863.409 88.8229 863.731 88.2533 864.154 87.7715C864.577 87.2897 865.098 86.9154 865.717 86.6484C866.335 86.375 867.045 86.2383 867.846 86.2383C868.646 86.2383 869.359 86.375 869.984 86.6484C870.609 86.9154 871.133 87.2897 871.557 87.7715C871.986 88.2533 872.312 88.8229 872.533 89.4805C872.755 90.1315 872.865 90.8444 872.865 91.6191V91.8242C872.865 92.5924 872.755 93.3053 872.533 93.9629C872.312 94.6139 871.986 95.1836 871.557 95.6719C871.133 96.1536 870.613 96.528 869.994 96.7949C869.376 97.0618 868.666 97.1953 867.865 97.1953C867.064 97.1953 866.352 97.0618 865.727 96.7949C865.108 96.528 864.584 96.1536 864.154 95.6719C863.731 95.1836 863.409 94.6139 863.188 93.9629C862.966 93.3053 862.855 92.5924 862.855 91.8242ZM865.668 91.6191V91.8242C865.668 92.2669 865.707 92.6803 865.785 93.0645C865.863 93.4486 865.987 93.7871 866.156 94.0801C866.332 94.3665 866.56 94.5911 866.84 94.7539C867.12 94.9167 867.462 94.998 867.865 94.998C868.256 94.998 868.591 94.9167 868.871 94.7539C869.151 94.5911 869.376 94.3665 869.545 94.0801C869.714 93.7871 869.838 93.4486 869.916 93.0645C870.001 92.6803 870.043 92.2669 870.043 91.8242V91.6191C870.043 91.1895 870.001 90.7858 869.916 90.4082C869.838 90.0241 869.711 89.6855 869.535 89.3926C869.366 89.0931 869.141 88.8587 868.861 88.6895C868.581 88.5202 868.243 88.4355 867.846 88.4355C867.449 88.4355 867.11 88.5202 866.83 88.6895C866.557 88.8587 866.332 89.0931 866.156 89.3926C865.987 89.6855 865.863 90.0241 865.785 90.4082C865.707 90.7858 865.668 91.1895 865.668 91.6191ZM877.348 88.6895V97H874.535V86.4336H877.172L877.348 88.6895ZM876.938 91.3457H876.176C876.176 90.5645 876.277 89.8613 876.479 89.2363C876.68 88.6048 876.964 88.0677 877.328 87.625C877.693 87.1758 878.126 86.834 878.627 86.5996C879.135 86.3587 879.701 86.2383 880.326 86.2383C880.821 86.2383 881.273 86.3099 881.684 86.4531C882.094 86.5964 882.445 86.8242 882.738 87.1367C883.038 87.4492 883.266 87.8626 883.422 88.377C883.585 88.8913 883.666 89.5195 883.666 90.2617V97H880.834V90.252C880.834 89.7832 880.769 89.4186 880.639 89.1582C880.508 88.8978 880.316 88.7155 880.062 88.6113C879.815 88.5007 879.509 88.4453 879.145 88.4453C878.767 88.4453 878.438 88.5202 878.158 88.6699C877.885 88.8197 877.657 89.028 877.475 89.2949C877.299 89.5553 877.165 89.8613 877.074 90.2129C876.983 90.5645 876.938 90.9421 876.938 91.3457ZM893.373 82.7812L896.049 87.7422L898.725 82.7812H902.074L897.943 89.832L902.182 97H898.803L896.049 91.9414L893.295 97H889.896L894.145 89.832L890.004 82.7812H893.373Z" fill="#222222"/>
<path d="M808.544 121.337L804.308 133H802.576L807.454 120.203H808.57L808.544 121.337ZM812.095 133L807.85 121.337L807.823 120.203H808.939L813.835 133H812.095ZM811.875 128.263V129.651H804.686V128.263H811.875ZM821.464 123.49H822.94V132.798C822.94 133.636 822.771 134.351 822.431 134.942C822.091 135.534 821.616 135.982 821.007 136.287C820.403 136.598 819.706 136.753 818.915 136.753C818.587 136.753 818.2 136.7 817.755 136.595C817.315 136.495 816.882 136.322 816.454 136.076C816.032 135.836 815.678 135.511 815.391 135.101L816.243 134.134C816.642 134.614 817.058 134.948 817.491 135.136C817.931 135.323 818.364 135.417 818.792 135.417C819.308 135.417 819.753 135.32 820.128 135.127C820.503 134.934 820.793 134.646 820.998 134.266C821.209 133.891 821.314 133.428 821.314 132.877V125.582L821.464 123.49ZM814.916 128.351V128.166C814.916 127.439 815.001 126.78 815.171 126.188C815.347 125.591 815.596 125.078 815.918 124.65C816.246 124.223 816.642 123.895 817.104 123.666C817.567 123.432 818.089 123.314 818.669 123.314C819.267 123.314 819.788 123.42 820.233 123.631C820.685 123.836 821.065 124.138 821.376 124.536C821.692 124.929 821.941 125.403 822.123 125.96C822.305 126.517 822.431 127.146 822.501 127.85V128.658C822.437 129.355 822.311 129.982 822.123 130.539C821.941 131.096 821.692 131.57 821.376 131.963C821.065 132.355 820.685 132.657 820.233 132.868C819.782 133.073 819.255 133.176 818.651 133.176C818.083 133.176 817.567 133.056 817.104 132.815C816.647 132.575 816.255 132.238 815.927 131.805C815.599 131.371 815.347 130.861 815.171 130.275C815.001 129.684 814.916 129.042 814.916 128.351ZM816.542 128.166V128.351C816.542 128.825 816.589 129.271 816.683 129.687C816.782 130.103 816.932 130.469 817.131 130.785C817.336 131.102 817.597 131.351 817.913 131.532C818.229 131.708 818.607 131.796 819.047 131.796C819.586 131.796 820.031 131.682 820.383 131.453C820.734 131.225 821.013 130.923 821.218 130.548C821.429 130.173 821.593 129.766 821.71 129.326V127.208C821.646 126.886 821.546 126.575 821.411 126.276C821.282 125.972 821.112 125.702 820.901 125.468C820.696 125.228 820.441 125.037 820.137 124.896C819.832 124.756 819.475 124.686 819.064 124.686C818.619 124.686 818.235 124.779 817.913 124.967C817.597 125.148 817.336 125.4 817.131 125.723C816.932 126.039 816.782 126.408 816.683 126.83C816.589 127.246 816.542 127.691 816.542 128.166ZM829.356 133.176C828.694 133.176 828.094 133.064 827.555 132.842C827.021 132.613 826.562 132.294 826.175 131.884C825.794 131.474 825.501 130.987 825.296 130.425C825.091 129.862 824.988 129.247 824.988 128.579V128.21C824.988 127.437 825.103 126.748 825.331 126.145C825.56 125.535 825.87 125.02 826.263 124.598C826.655 124.176 827.101 123.856 827.599 123.64C828.097 123.423 828.612 123.314 829.146 123.314C829.825 123.314 830.411 123.432 830.903 123.666C831.401 123.9 831.809 124.229 832.125 124.65C832.441 125.066 832.676 125.559 832.828 126.127C832.98 126.689 833.057 127.305 833.057 127.973V128.702H825.955V127.375H831.431V127.252C831.407 126.83 831.319 126.42 831.167 126.021C831.021 125.623 830.786 125.295 830.464 125.037C830.142 124.779 829.702 124.65 829.146 124.65C828.776 124.65 828.437 124.729 828.126 124.888C827.815 125.04 827.549 125.269 827.326 125.573C827.104 125.878 826.931 126.25 826.808 126.689C826.685 127.129 826.623 127.636 826.623 128.21V128.579C826.623 129.03 826.685 129.455 826.808 129.854C826.937 130.246 827.121 130.592 827.361 130.891C827.607 131.189 827.903 131.424 828.249 131.594C828.601 131.764 828.999 131.849 829.444 131.849C830.019 131.849 830.505 131.731 830.903 131.497C831.302 131.263 831.65 130.949 831.949 130.557L832.934 131.339C832.729 131.649 832.468 131.945 832.151 132.227C831.835 132.508 831.445 132.736 830.982 132.912C830.525 133.088 829.983 133.176 829.356 133.176ZM849.123 126.628V131.312C848.965 131.547 848.713 131.811 848.367 132.104C848.021 132.391 847.544 132.643 846.935 132.859C846.331 133.07 845.552 133.176 844.597 133.176C843.817 133.176 843.1 133.041 842.443 132.771C841.793 132.496 841.228 132.098 840.747 131.576C840.272 131.049 839.903 130.41 839.64 129.66C839.382 128.904 839.253 128.049 839.253 127.094V126.101C839.253 125.146 839.364 124.293 839.587 123.543C839.815 122.793 840.149 122.157 840.589 121.636C841.028 121.108 841.567 120.71 842.206 120.44C842.845 120.165 843.577 120.027 844.403 120.027C845.382 120.027 846.199 120.197 846.855 120.537C847.518 120.871 848.033 121.334 848.402 121.926C848.777 122.518 849.018 123.191 849.123 123.947H847.427C847.351 123.484 847.198 123.062 846.97 122.682C846.747 122.301 846.428 121.996 846.012 121.768C845.596 121.533 845.06 121.416 844.403 121.416C843.812 121.416 843.299 121.524 842.865 121.741C842.432 121.958 842.074 122.269 841.793 122.673C841.512 123.077 841.301 123.566 841.16 124.141C841.025 124.715 840.958 125.362 840.958 126.083V127.094C840.958 127.832 841.043 128.491 841.213 129.071C841.389 129.651 841.638 130.146 841.96 130.557C842.282 130.961 842.666 131.269 843.111 131.479C843.562 131.69 844.061 131.796 844.605 131.796C845.209 131.796 845.698 131.746 846.073 131.646C846.448 131.541 846.741 131.418 846.952 131.277C847.163 131.131 847.324 130.993 847.436 130.864V127.999H844.474V126.628H849.123ZM853.315 124.984V133H851.689V123.49H853.271L853.315 124.984ZM856.286 123.438L856.277 124.949C856.143 124.92 856.014 124.902 855.891 124.896C855.773 124.885 855.639 124.879 855.486 124.879C855.111 124.879 854.78 124.938 854.493 125.055C854.206 125.172 853.963 125.336 853.764 125.547C853.564 125.758 853.406 126.01 853.289 126.303C853.178 126.59 853.104 126.906 853.069 127.252L852.612 127.516C852.612 126.941 852.668 126.402 852.779 125.898C852.896 125.395 853.075 124.949 853.315 124.562C853.556 124.17 853.86 123.865 854.229 123.648C854.604 123.426 855.05 123.314 855.565 123.314C855.683 123.314 855.817 123.329 855.97 123.358C856.122 123.382 856.228 123.408 856.286 123.438ZM857.183 128.351V128.148C857.183 127.463 857.282 126.827 857.481 126.241C857.681 125.649 857.968 125.137 858.343 124.703C858.718 124.264 859.172 123.924 859.705 123.684C860.238 123.438 860.836 123.314 861.498 123.314C862.166 123.314 862.767 123.438 863.3 123.684C863.839 123.924 864.296 124.264 864.671 124.703C865.052 125.137 865.342 125.649 865.541 126.241C865.74 126.827 865.84 127.463 865.84 128.148V128.351C865.84 129.036 865.74 129.672 865.541 130.258C865.342 130.844 865.052 131.356 864.671 131.796C864.296 132.229 863.842 132.569 863.309 132.815C862.781 133.056 862.184 133.176 861.516 133.176C860.848 133.176 860.247 133.056 859.714 132.815C859.181 132.569 858.724 132.229 858.343 131.796C857.968 131.356 857.681 130.844 857.481 130.258C857.282 129.672 857.183 129.036 857.183 128.351ZM858.809 128.148V128.351C858.809 128.825 858.864 129.273 858.976 129.695C859.087 130.111 859.254 130.48 859.477 130.803C859.705 131.125 859.989 131.38 860.329 131.567C860.669 131.749 861.064 131.84 861.516 131.84C861.961 131.84 862.351 131.749 862.685 131.567C863.024 131.38 863.306 131.125 863.528 130.803C863.751 130.48 863.918 130.111 864.029 129.695C864.146 129.273 864.205 128.825 864.205 128.351V128.148C864.205 127.68 864.146 127.237 864.029 126.821C863.918 126.399 863.748 126.027 863.52 125.705C863.297 125.377 863.016 125.119 862.676 124.932C862.342 124.744 861.949 124.65 861.498 124.65C861.053 124.65 860.66 124.744 860.32 124.932C859.986 125.119 859.705 125.377 859.477 125.705C859.254 126.027 859.087 126.399 858.976 126.821C858.864 127.237 858.809 127.68 858.809 128.148ZM873.697 130.803V123.49H875.332V133H873.776L873.697 130.803ZM874.005 128.799L874.682 128.781C874.682 129.414 874.614 130 874.479 130.539C874.351 131.072 874.14 131.535 873.847 131.928C873.554 132.32 873.17 132.628 872.695 132.851C872.221 133.067 871.644 133.176 870.964 133.176C870.501 133.176 870.076 133.108 869.689 132.974C869.309 132.839 868.98 132.631 868.705 132.35C868.43 132.068 868.216 131.702 868.063 131.251C867.917 130.8 867.844 130.258 867.844 129.625V123.49H869.47V129.643C869.47 130.07 869.517 130.425 869.61 130.706C869.71 130.981 869.842 131.201 870.006 131.365C870.176 131.523 870.363 131.635 870.568 131.699C870.779 131.764 870.996 131.796 871.219 131.796C871.91 131.796 872.458 131.664 872.862 131.4C873.267 131.131 873.557 130.771 873.732 130.319C873.914 129.862 874.005 129.355 874.005 128.799ZM879.437 125.318V136.656H877.802V123.49H879.296L879.437 125.318ZM885.844 128.166V128.351C885.844 129.042 885.762 129.684 885.598 130.275C885.434 130.861 885.193 131.371 884.877 131.805C884.566 132.238 884.183 132.575 883.726 132.815C883.269 133.056 882.744 133.176 882.152 133.176C881.549 133.176 881.016 133.076 880.553 132.877C880.09 132.678 879.697 132.388 879.375 132.007C879.053 131.626 878.795 131.169 878.602 130.636C878.414 130.103 878.285 129.502 878.215 128.834V127.85C878.285 127.146 878.417 126.517 878.61 125.96C878.804 125.403 879.059 124.929 879.375 124.536C879.697 124.138 880.087 123.836 880.544 123.631C881.001 123.42 881.528 123.314 882.126 123.314C882.724 123.314 883.254 123.432 883.717 123.666C884.18 123.895 884.569 124.223 884.886 124.65C885.202 125.078 885.439 125.591 885.598 126.188C885.762 126.78 885.844 127.439 885.844 128.166ZM884.209 128.351V128.166C884.209 127.691 884.159 127.246 884.06 126.83C883.96 126.408 883.805 126.039 883.594 125.723C883.389 125.4 883.125 125.148 882.803 124.967C882.48 124.779 882.097 124.686 881.651 124.686C881.241 124.686 880.884 124.756 880.579 124.896C880.28 125.037 880.025 125.228 879.814 125.468C879.604 125.702 879.431 125.972 879.296 126.276C879.167 126.575 879.07 126.886 879.006 127.208V129.484C879.123 129.895 879.287 130.281 879.498 130.645C879.709 131.002 879.99 131.292 880.342 131.515C880.693 131.731 881.136 131.84 881.669 131.84C882.108 131.84 882.486 131.749 882.803 131.567C883.125 131.38 883.389 131.125 883.594 130.803C883.805 130.48 883.96 130.111 884.06 129.695C884.159 129.273 884.209 128.825 884.209 128.351ZM829.242 149.693V151.029H819.996V150.071L825.727 141.203H827.054L825.63 143.77L821.842 149.693H829.242ZM827.458 141.203V154H825.832V141.203H827.458ZM838.752 146.582V148.533C838.752 149.582 838.658 150.467 838.471 151.188C838.283 151.908 838.014 152.488 837.662 152.928C837.311 153.367 836.886 153.687 836.388 153.886C835.896 154.079 835.339 154.176 834.718 154.176C834.226 154.176 833.771 154.114 833.355 153.991C832.939 153.868 832.564 153.672 832.23 153.402C831.902 153.127 831.621 152.77 831.387 152.33C831.152 151.891 830.974 151.357 830.851 150.73C830.728 150.104 830.666 149.371 830.666 148.533V146.582C830.666 145.533 830.76 144.654 830.947 143.945C831.141 143.236 831.413 142.668 831.765 142.24C832.116 141.807 832.538 141.496 833.03 141.309C833.528 141.121 834.085 141.027 834.7 141.027C835.198 141.027 835.655 141.089 836.071 141.212C836.493 141.329 836.868 141.52 837.196 141.783C837.524 142.041 837.803 142.387 838.031 142.82C838.266 143.248 838.444 143.772 838.567 144.394C838.69 145.015 838.752 145.744 838.752 146.582ZM837.117 148.797V146.31C837.117 145.735 837.082 145.231 837.012 144.798C836.947 144.358 836.851 143.983 836.722 143.673C836.593 143.362 836.429 143.11 836.229 142.917C836.036 142.724 835.811 142.583 835.553 142.495C835.301 142.401 835.017 142.354 834.7 142.354C834.313 142.354 833.971 142.428 833.672 142.574C833.373 142.715 833.121 142.94 832.916 143.251C832.717 143.562 832.564 143.969 832.459 144.473C832.354 144.977 832.301 145.589 832.301 146.31V148.797C832.301 149.371 832.333 149.878 832.397 150.317C832.468 150.757 832.57 151.138 832.705 151.46C832.84 151.776 833.004 152.037 833.197 152.242C833.391 152.447 833.613 152.6 833.865 152.699C834.123 152.793 834.407 152.84 834.718 152.84C835.116 152.84 835.465 152.764 835.764 152.611C836.062 152.459 836.312 152.222 836.511 151.899C836.716 151.571 836.868 151.152 836.968 150.643C837.067 150.127 837.117 149.512 837.117 148.797ZM848.868 147.892V149.228H844.579V147.892H848.868ZM852.34 147.909L851.039 147.575L851.681 141.203H858.246V142.706H853.061L852.674 146.187C852.908 146.052 853.204 145.926 853.562 145.809C853.925 145.691 854.341 145.633 854.81 145.633C855.401 145.633 855.932 145.735 856.4 145.94C856.869 146.14 857.268 146.427 857.596 146.802C857.93 147.177 858.185 147.628 858.36 148.155C858.536 148.683 858.624 149.271 858.624 149.922C858.624 150.537 858.539 151.103 858.369 151.618C858.205 152.134 857.956 152.585 857.622 152.972C857.288 153.353 856.866 153.648 856.356 153.859C855.853 154.07 855.258 154.176 854.572 154.176C854.057 154.176 853.567 154.105 853.104 153.965C852.647 153.818 852.237 153.599 851.874 153.306C851.517 153.007 851.224 152.638 850.995 152.198C850.772 151.753 850.632 151.231 850.573 150.634H852.12C852.19 151.114 852.331 151.519 852.542 151.847C852.753 152.175 853.028 152.424 853.368 152.594C853.714 152.758 854.115 152.84 854.572 152.84C854.959 152.84 855.302 152.772 855.601 152.638C855.899 152.503 856.151 152.31 856.356 152.058C856.562 151.806 856.717 151.501 856.822 151.144C856.934 150.786 856.989 150.385 856.989 149.939C856.989 149.535 856.934 149.16 856.822 148.814C856.711 148.469 856.544 148.167 856.321 147.909C856.104 147.651 855.838 147.452 855.521 147.312C855.205 147.165 854.842 147.092 854.432 147.092C853.887 147.092 853.474 147.165 853.192 147.312C852.917 147.458 852.633 147.657 852.34 147.909ZM862.465 147.909L861.164 147.575L861.806 141.203H868.371V142.706H863.186L862.799 146.187C863.033 146.052 863.329 145.926 863.687 145.809C864.05 145.691 864.466 145.633 864.935 145.633C865.526 145.633 866.057 145.735 866.525 145.94C866.994 146.14 867.393 146.427 867.721 146.802C868.055 147.177 868.31 147.628 868.485 148.155C868.661 148.683 868.749 149.271 868.749 149.922C868.749 150.537 868.664 151.103 868.494 151.618C868.33 152.134 868.081 152.585 867.747 152.972C867.413 153.353 866.991 153.648 866.481 153.859C865.978 154.07 865.383 154.176 864.697 154.176C864.182 154.176 863.692 154.105 863.229 153.965C862.772 153.818 862.362 153.599 861.999 153.306C861.642 153.007 861.349 152.638 861.12 152.198C860.897 151.753 860.757 151.231 860.698 150.634H862.245C862.315 151.114 862.456 151.519 862.667 151.847C862.878 152.175 863.153 152.424 863.493 152.594C863.839 152.758 864.24 152.84 864.697 152.84C865.084 152.84 865.427 152.772 865.726 152.638C866.024 152.503 866.276 152.31 866.481 152.058C866.687 151.806 866.842 151.501 866.947 151.144C867.059 150.786 867.114 150.385 867.114 149.939C867.114 149.535 867.059 149.16 866.947 148.814C866.836 148.469 866.669 148.167 866.446 147.909C866.229 147.651 865.963 147.452 865.646 147.312C865.33 147.165 864.967 147.092 864.557 147.092C864.012 147.092 863.599 147.165 863.317 147.312C863.042 147.458 862.758 147.657 862.465 147.909Z" fill="#222222"/>
<path d="M944.672 93.2793C944.672 93.0254 944.633 92.7975 944.555 92.5957C944.483 92.3874 944.346 92.1986 944.145 92.0293C943.943 91.8535 943.66 91.681 943.295 91.5117C942.93 91.3424 942.458 91.1667 941.879 90.9844C941.234 90.776 940.622 90.5417 940.043 90.2812C939.47 90.0208 938.962 89.7181 938.52 89.373C938.083 89.0215 937.738 88.6146 937.484 88.1523C937.237 87.6901 937.113 87.153 937.113 86.541C937.113 85.9486 937.243 85.4115 937.504 84.9297C937.764 84.4414 938.129 84.0247 938.598 83.6797C939.066 83.3281 939.62 83.0579 940.258 82.8691C940.902 82.6803 941.609 82.5859 942.377 82.5859C943.425 82.5859 944.34 82.7747 945.121 83.1523C945.902 83.5299 946.508 84.0475 946.938 84.7051C947.374 85.3626 947.592 86.1146 947.592 86.9609H944.682C944.682 86.5443 944.594 86.1797 944.418 85.8672C944.249 85.5482 943.988 85.2975 943.637 85.1152C943.292 84.9329 942.855 84.8418 942.328 84.8418C941.82 84.8418 941.397 84.9199 941.059 85.0762C940.72 85.2259 940.466 85.431 940.297 85.6914C940.128 85.9453 940.043 86.2318 940.043 86.5508C940.043 86.7917 940.102 87.0098 940.219 87.2051C940.342 87.4004 940.525 87.5827 940.766 87.752C941.007 87.9212 941.303 88.0807 941.654 88.2305C942.006 88.3802 942.413 88.5267 942.875 88.6699C943.65 88.9043 944.33 89.168 944.916 89.4609C945.508 89.7539 946.003 90.0827 946.4 90.4473C946.798 90.8118 947.097 91.2253 947.299 91.6875C947.501 92.1497 947.602 92.6738 947.602 93.2598C947.602 93.8783 947.481 94.4316 947.24 94.9199C946.999 95.4082 946.651 95.8216 946.195 96.1602C945.74 96.4987 945.196 96.7559 944.564 96.9316C943.933 97.1074 943.227 97.1953 942.445 97.1953C941.742 97.1953 941.049 97.1042 940.365 96.9219C939.682 96.7331 939.06 96.4499 938.5 96.0723C937.947 95.6947 937.504 95.2129 937.172 94.627C936.84 94.041 936.674 93.3477 936.674 92.5469H939.613C939.613 92.9896 939.682 93.3639 939.818 93.6699C939.955 93.9759 940.147 94.2233 940.395 94.4121C940.648 94.6009 940.948 94.7376 941.293 94.8223C941.645 94.9069 942.029 94.9492 942.445 94.9492C942.953 94.9492 943.37 94.8776 943.695 94.7344C944.027 94.5911 944.271 94.3926 944.428 94.1387C944.59 93.8848 944.672 93.5983 944.672 93.2793ZM954.281 97.1953C953.461 97.1953 952.725 97.0651 952.074 96.8047C951.423 96.5378 950.87 96.1699 950.414 95.7012C949.965 95.2324 949.62 94.6888 949.379 94.0703C949.138 93.4453 949.018 92.7812 949.018 92.0781V91.6875C949.018 90.8867 949.132 90.1543 949.359 89.4902C949.587 88.8262 949.913 88.25 950.336 87.7617C950.766 87.2734 951.286 86.8991 951.898 86.6387C952.51 86.3717 953.201 86.2383 953.969 86.2383C954.717 86.2383 955.382 86.362 955.961 86.6094C956.54 86.8568 957.025 87.2083 957.416 87.6641C957.813 88.1198 958.113 88.6667 958.314 89.3047C958.516 89.9362 958.617 90.6393 958.617 91.4141V92.5859H950.219V90.7109H955.854V90.4961C955.854 90.1055 955.782 89.7572 955.639 89.4512C955.502 89.1387 955.294 88.8913 955.014 88.709C954.734 88.5267 954.376 88.4355 953.939 88.4355C953.568 88.4355 953.249 88.5169 952.982 88.6797C952.715 88.8424 952.497 89.0703 952.328 89.3633C952.165 89.6562 952.042 90.0013 951.957 90.3984C951.879 90.7891 951.84 91.2188 951.84 91.6875V92.0781C951.84 92.5013 951.898 92.8919 952.016 93.25C952.139 93.6081 952.312 93.9173 952.533 94.1777C952.761 94.4382 953.035 94.64 953.354 94.7832C953.679 94.9264 954.047 94.998 954.457 94.998C954.965 94.998 955.437 94.9004 955.873 94.7051C956.316 94.5033 956.697 94.2005 957.016 93.7969L958.383 95.2812C958.161 95.6003 957.859 95.9062 957.475 96.1992C957.097 96.4922 956.641 96.7331 956.107 96.9219C955.574 97.1042 954.965 97.1953 954.281 97.1953ZM962.973 88.6895V97H960.16V86.4336H962.797L962.973 88.6895ZM962.562 91.3457H961.801C961.801 90.5645 961.902 89.8613 962.104 89.2363C962.305 88.6048 962.589 88.0677 962.953 87.625C963.318 87.1758 963.751 86.834 964.252 86.5996C964.76 86.3587 965.326 86.2383 965.951 86.2383C966.446 86.2383 966.898 86.3099 967.309 86.4531C967.719 86.5964 968.07 86.8242 968.363 87.1367C968.663 87.4492 968.891 87.8626 969.047 88.377C969.21 88.8913 969.291 89.5195 969.291 90.2617V97H966.459V90.252C966.459 89.7832 966.394 89.4186 966.264 89.1582C966.133 88.8978 965.941 88.7155 965.688 88.6113C965.44 88.5007 965.134 88.4453 964.77 88.4453C964.392 88.4453 964.063 88.5202 963.783 88.6699C963.51 88.8197 963.282 89.028 963.1 89.2949C962.924 89.5553 962.79 89.8613 962.699 90.2129C962.608 90.5645 962.562 90.9421 962.562 91.3457ZM974.398 86.4336V97H971.576V86.4336H974.398ZM971.4 83.6797C971.4 83.2695 971.544 82.931 971.83 82.6641C972.117 82.3971 972.501 82.2637 972.982 82.2637C973.458 82.2637 973.839 82.3971 974.125 82.6641C974.418 82.931 974.564 83.2695 974.564 83.6797C974.564 84.0898 974.418 84.4284 974.125 84.6953C973.839 84.9622 973.458 85.0957 972.982 85.0957C972.501 85.0957 972.117 84.9622 971.83 84.6953C971.544 84.4284 971.4 84.0898 971.4 83.6797ZM976.273 91.8242V91.6191C976.273 90.8444 976.384 90.1315 976.605 89.4805C976.827 88.8229 977.149 88.2533 977.572 87.7715C977.995 87.2897 978.516 86.9154 979.135 86.6484C979.753 86.375 980.463 86.2383 981.264 86.2383C982.064 86.2383 982.777 86.375 983.402 86.6484C984.027 86.9154 984.551 87.2897 984.975 87.7715C985.404 88.2533 985.73 88.8229 985.951 89.4805C986.173 90.1315 986.283 90.8444 986.283 91.6191V91.8242C986.283 92.5924 986.173 93.3053 985.951 93.9629C985.73 94.6139 985.404 95.1836 984.975 95.6719C984.551 96.1536 984.031 96.528 983.412 96.7949C982.794 97.0618 982.084 97.1953 981.283 97.1953C980.482 97.1953 979.77 97.0618 979.145 96.7949C978.526 96.528 978.002 96.1536 977.572 95.6719C977.149 95.1836 976.827 94.6139 976.605 93.9629C976.384 93.3053 976.273 92.5924 976.273 91.8242ZM979.086 91.6191V91.8242C979.086 92.2669 979.125 92.6803 979.203 93.0645C979.281 93.4486 979.405 93.7871 979.574 94.0801C979.75 94.3665 979.978 94.5911 980.258 94.7539C980.538 94.9167 980.88 94.998 981.283 94.998C981.674 94.998 982.009 94.9167 982.289 94.7539C982.569 94.5911 982.794 94.3665 982.963 94.0801C983.132 93.7871 983.256 93.4486 983.334 93.0645C983.419 92.6803 983.461 92.2669 983.461 91.8242V91.6191C983.461 91.1895 983.419 90.7858 983.334 90.4082C983.256 90.0241 983.129 89.6855 982.953 89.3926C982.784 89.0931 982.559 88.8587 982.279 88.6895C981.999 88.5202 981.661 88.4355 981.264 88.4355C980.867 88.4355 980.528 88.5202 980.248 88.6895C979.975 88.8587 979.75 89.0931 979.574 89.3926C979.405 89.6855 979.281 90.0241 979.203 90.4082C979.125 90.7858 979.086 91.1895 979.086 91.6191ZM990.824 88.7383V97H988.012V86.4336H990.658L990.824 88.7383ZM994.008 86.3652L993.959 88.9727C993.822 88.9531 993.656 88.9368 993.461 88.9238C993.272 88.9043 993.1 88.8945 992.943 88.8945C992.546 88.8945 992.201 88.9466 991.908 89.0508C991.622 89.1484 991.381 89.2949 991.186 89.4902C990.997 89.6855 990.854 89.9232 990.756 90.2031C990.665 90.4831 990.613 90.8021 990.6 91.1602L990.033 90.9844C990.033 90.3008 990.102 89.6725 990.238 89.0996C990.375 88.5202 990.574 88.0156 990.834 87.5859C991.101 87.1562 991.426 86.8242 991.811 86.5898C992.195 86.3555 992.634 86.2383 993.129 86.2383C993.285 86.2383 993.445 86.2513 993.607 86.2773C993.77 86.2969 993.904 86.3262 994.008 86.3652ZM1008.73 92.2832H1011.65C1011.6 93.2402 1011.33 94.0898 1010.86 94.832C1010.4 95.5742 1009.75 96.1536 1008.92 96.5703C1008.09 96.987 1007.1 97.1953 1005.93 97.1953C1005.02 97.1953 1004.2 97.0391 1003.48 96.7266C1002.76 96.4076 1002.14 95.9518 1001.62 95.3594C1001.12 94.7669 1000.73 94.0508 1000.46 93.2109C1000.2 92.3711 1000.06 91.4303 1000.06 90.3887V89.4023C1000.06 88.3607 1000.2 87.4199 1000.47 86.5801C1000.75 85.7337 1001.15 85.0143 1001.66 84.4219C1002.18 83.8294 1002.81 83.3737 1003.53 83.0547C1004.25 82.7357 1005.06 82.5762 1005.95 82.5762C1007.14 82.5762 1008.14 82.791 1008.95 83.2207C1009.77 83.6504 1010.4 84.2428 1010.85 84.998C1011.31 85.7533 1011.58 86.6126 1011.67 87.5762H1008.74C1008.71 87.0033 1008.6 86.5182 1008.4 86.1211C1008.21 85.7174 1007.91 85.4147 1007.51 85.2129C1007.12 85.0046 1006.6 84.9004 1005.95 84.9004C1005.46 84.9004 1005.04 84.9915 1004.67 85.1738C1004.31 85.3561 1004 85.6328 1003.75 86.0039C1003.51 86.375 1003.32 86.8438 1003.2 87.4102C1003.08 87.9701 1003.02 88.6276 1003.02 89.3828V90.3887C1003.02 91.1243 1003.08 91.7721 1003.19 92.332C1003.3 92.8854 1003.47 93.3542 1003.7 93.7383C1003.93 94.1159 1004.23 94.4023 1004.59 94.5977C1004.96 94.7865 1005.41 94.8809 1005.93 94.8809C1006.54 94.8809 1007.05 94.7832 1007.45 94.5879C1007.84 94.3926 1008.15 94.1029 1008.35 93.7188C1008.57 93.3346 1008.7 92.8561 1008.73 92.2832ZM1016.37 86.4336V97H1013.55V86.4336H1016.37ZM1013.37 83.6797C1013.37 83.2695 1013.52 82.931 1013.8 82.6641C1014.09 82.3971 1014.47 82.2637 1014.96 82.2637C1015.43 82.2637 1015.81 82.3971 1016.1 82.6641C1016.39 82.931 1016.54 83.2695 1016.54 83.6797C1016.54 84.0898 1016.39 84.4284 1016.1 84.6953C1015.81 84.9622 1015.43 85.0957 1014.96 85.0957C1014.47 85.0957 1014.09 84.9622 1013.8 84.6953C1013.52 84.4284 1013.37 84.0898 1013.37 83.6797ZM1023.87 86.4336V88.4258H1017.72V86.4336H1023.87ZM1019.24 83.8262H1022.05V93.8164C1022.05 94.1224 1022.09 94.3568 1022.17 94.5195C1022.26 94.6823 1022.38 94.7962 1022.54 94.8613C1022.71 94.9199 1022.91 94.9492 1023.16 94.9492C1023.33 94.9492 1023.49 94.9427 1023.63 94.9297C1023.77 94.9102 1023.89 94.8906 1023.99 94.8711L1024 96.9414C1023.76 97.0195 1023.5 97.0814 1023.22 97.127C1022.94 97.1725 1022.63 97.1953 1022.29 97.1953C1021.67 97.1953 1021.13 97.0944 1020.67 96.8926C1020.21 96.6842 1019.86 96.3522 1019.61 95.8965C1019.37 95.4408 1019.24 94.8418 1019.24 94.0996V83.8262ZM1028.44 86.4336V97H1025.62V86.4336H1028.44ZM1025.44 83.6797C1025.44 83.2695 1025.59 82.931 1025.87 82.6641C1026.16 82.3971 1026.54 82.2637 1027.03 82.2637C1027.5 82.2637 1027.88 82.3971 1028.17 82.6641C1028.46 82.931 1028.61 83.2695 1028.61 83.6797C1028.61 84.0898 1028.46 84.4284 1028.17 84.6953C1027.88 84.9622 1027.5 85.0957 1027.03 85.0957C1026.54 85.0957 1026.16 84.9622 1025.87 84.6953C1025.59 84.4284 1025.44 84.0898 1025.44 83.6797ZM1039.17 94.8027V97H1031.15V94.8027H1039.17ZM1039.02 88.0547L1032.28 97H1030.39V95.3301L1037.1 86.4336H1039.02V88.0547ZM1038.02 86.4336V88.6406H1030.55V86.4336H1038.02ZM1045.65 97.1953C1044.83 97.1953 1044.09 97.0651 1043.44 96.8047C1042.79 96.5378 1042.24 96.1699 1041.78 95.7012C1041.33 95.2324 1040.99 94.6888 1040.75 94.0703C1040.51 93.4453 1040.38 92.7812 1040.38 92.0781V91.6875C1040.38 90.8867 1040.5 90.1543 1040.73 89.4902C1040.95 88.8262 1041.28 88.25 1041.7 87.7617C1042.13 87.2734 1042.65 86.8991 1043.27 86.6387C1043.88 86.3717 1044.57 86.2383 1045.34 86.2383C1046.08 86.2383 1046.75 86.362 1047.33 86.6094C1047.91 86.8568 1048.39 87.2083 1048.78 87.6641C1049.18 88.1198 1049.48 88.6667 1049.68 89.3047C1049.88 89.9362 1049.98 90.6393 1049.98 91.4141V92.5859H1041.59V90.7109H1047.22V90.4961C1047.22 90.1055 1047.15 89.7572 1047.01 89.4512C1046.87 89.1387 1046.66 88.8913 1046.38 88.709C1046.1 88.5267 1045.74 88.4355 1045.31 88.4355C1044.94 88.4355 1044.62 88.5169 1044.35 88.6797C1044.08 88.8424 1043.86 89.0703 1043.7 89.3633C1043.53 89.6562 1043.41 90.0013 1043.32 90.3984C1043.25 90.7891 1043.21 91.2188 1043.21 91.6875V92.0781C1043.21 92.5013 1043.27 92.8919 1043.38 93.25C1043.51 93.6081 1043.68 93.9173 1043.9 94.1777C1044.13 94.4382 1044.4 94.64 1044.72 94.7832C1045.05 94.9264 1045.41 94.998 1045.82 94.998C1046.33 94.998 1046.8 94.9004 1047.24 94.7051C1047.68 94.5033 1048.06 94.2005 1048.38 93.7969L1049.75 95.2812C1049.53 95.6003 1049.23 95.9062 1048.84 96.1992C1048.46 96.4922 1048.01 96.7331 1047.47 96.9219C1046.94 97.1042 1046.33 97.1953 1045.65 97.1953ZM1054.34 88.6895V97H1051.53V86.4336H1054.16L1054.34 88.6895ZM1053.93 91.3457H1053.17C1053.17 90.5645 1053.27 89.8613 1053.47 89.2363C1053.67 88.6048 1053.96 88.0677 1054.32 87.625C1054.68 87.1758 1055.12 86.834 1055.62 86.5996C1056.13 86.3587 1056.69 86.2383 1057.32 86.2383C1057.81 86.2383 1058.27 86.3099 1058.68 86.4531C1059.09 86.5964 1059.44 86.8242 1059.73 87.1367C1060.03 87.4492 1060.26 87.8626 1060.41 88.377C1060.58 88.8913 1060.66 89.5195 1060.66 90.2617V97H1057.83V90.252C1057.83 89.7832 1057.76 89.4186 1057.63 89.1582C1057.5 88.8978 1057.31 88.7155 1057.05 88.6113C1056.81 88.5007 1056.5 88.4453 1056.14 88.4453C1055.76 88.4453 1055.43 88.5202 1055.15 88.6699C1054.88 88.8197 1054.65 89.028 1054.47 89.2949C1054.29 89.5553 1054.16 89.8613 1054.07 90.2129C1053.98 90.5645 1053.93 90.9421 1053.93 91.3457ZM1068.51 94.0801C1068.51 93.8783 1068.45 93.696 1068.33 93.5332C1068.22 93.3704 1068 93.2207 1067.68 93.084C1067.37 92.9408 1066.91 92.8105 1066.32 92.6934C1065.79 92.5762 1065.29 92.4297 1064.83 92.2539C1064.37 92.0716 1063.98 91.8535 1063.64 91.5996C1063.3 91.3457 1063.04 91.0462 1062.86 90.7012C1062.67 90.3496 1062.57 89.9492 1062.57 89.5C1062.57 89.0573 1062.67 88.6406 1062.86 88.25C1063.05 87.8594 1063.33 87.5143 1063.69 87.2148C1064.05 86.9089 1064.49 86.6712 1065.01 86.502C1065.54 86.3262 1066.13 86.2383 1066.79 86.2383C1067.71 86.2383 1068.5 86.3848 1069.15 86.6777C1069.82 86.9707 1070.33 87.3743 1070.68 87.8887C1071.04 88.3965 1071.21 88.9759 1071.21 89.627H1068.4C1068.4 89.3535 1068.34 89.1094 1068.23 88.8945C1068.12 88.6732 1067.94 88.5007 1067.7 88.377C1067.46 88.2467 1067.16 88.1816 1066.78 88.1816C1066.47 88.1816 1066.2 88.237 1065.97 88.3477C1065.74 88.4518 1065.57 88.5951 1065.44 88.7773C1065.33 88.9531 1065.27 89.1484 1065.27 89.3633C1065.27 89.526 1065.3 89.6725 1065.37 89.8027C1065.44 89.9264 1065.55 90.0404 1065.71 90.1445C1065.86 90.2487 1066.07 90.3464 1066.31 90.4375C1066.57 90.5221 1066.88 90.6003 1067.25 90.6719C1068.01 90.8281 1068.69 91.0332 1069.29 91.2871C1069.89 91.5345 1070.37 91.873 1070.72 92.3027C1071.07 92.7259 1071.24 93.2826 1071.24 93.9727C1071.24 94.4414 1071.14 94.8711 1070.93 95.2617C1070.72 95.6523 1070.42 95.9941 1070.03 96.2871C1069.64 96.5736 1069.17 96.7982 1068.63 96.9609C1068.09 97.1172 1067.48 97.1953 1066.8 97.1953C1065.82 97.1953 1064.98 97.0195 1064.3 96.668C1063.62 96.3164 1063.11 95.8704 1062.76 95.3301C1062.41 94.7832 1062.24 94.2233 1062.24 93.6504H1064.91C1064.92 94.0345 1065.02 94.3438 1065.2 94.5781C1065.39 94.8125 1065.63 94.9818 1065.91 95.0859C1066.21 95.1901 1066.52 95.2422 1066.86 95.2422C1067.22 95.2422 1067.53 95.1934 1067.77 95.0957C1068.01 94.9915 1068.19 94.8548 1068.31 94.6855C1068.44 94.5098 1068.51 94.3079 1068.51 94.0801Z" fill="#222222"/>
</svg>
