<svg width="1159" height="228" viewBox="0 0 1159 228" fill="none" xmlns="http://www.w3.org/2000/svg">
<path d="M22.8555 59.1992L29.8867 39.4062H32.3828L31.4863 44.6094L24.0332 65H21.3965L22.8555 59.1992ZM23.418 39.4062L23.4707 59.4453L22.75 65H20.043L19.3574 39.4062H23.418ZM33.6133 58.9883L39.7656 39.4062H43.9668L35.3008 65H32.5234L33.6133 58.9883ZM33.3496 39.4062L34.1582 59.6035L33.8242 65H31.293L30.291 44.2051L30.9238 39.4062H33.3496ZM51.1387 38L46.4629 65H42.4551L47.1484 38H51.1387ZM47.5879 54.8398H46.4277C46.5332 53.8672 46.7383 52.8418 47.043 51.7637C47.3594 50.6855 47.793 49.6719 48.3438 48.7227C48.8945 47.7734 49.5977 47.0117 50.4531 46.4375C51.3086 45.8516 52.3398 45.582 53.5469 45.6289C54.5195 45.6523 55.2988 45.8867 55.8848 46.332C56.4824 46.7656 56.9219 47.334 57.2031 48.0371C57.4961 48.7402 57.6719 49.5078 57.7305 50.3398C57.7891 51.1719 57.7715 51.9863 57.6777 52.7832L55.6387 65H51.6484L53.6875 52.7305C53.7344 52.2031 53.7461 51.6641 53.7227 51.1133C53.6992 50.5508 53.5527 50.0762 53.2832 49.6895C53.0137 49.3027 52.5391 49.1035 51.8594 49.0918C51.1211 49.0566 50.4941 49.2324 49.9785 49.6191C49.4746 49.9941 49.0586 50.4805 48.7305 51.0781C48.4141 51.6758 48.1621 52.3086 47.9746 52.9766C47.7871 53.6445 47.6582 54.2656 47.5879 54.8398ZM60.543 56.2637L60.7363 54.752C60.877 53.5801 61.1582 52.4492 61.5801 51.3594C62.002 50.2578 62.5645 49.2676 63.2676 48.3887C63.9824 47.5098 64.8379 46.8242 65.834 46.332C66.8418 45.8281 68.002 45.5938 69.3145 45.6289C70.5801 45.6523 71.6289 45.9336 72.4609 46.4727C73.293 47.0117 73.9434 47.7207 74.4121 48.5996C74.8809 49.4785 75.1855 50.4512 75.3262 51.5176C75.4668 52.5723 75.4844 53.6445 75.3789 54.7344L75.1855 56.2637C75.0449 57.4238 74.7637 58.5547 74.3418 59.6562C73.9199 60.7578 73.3516 61.7422 72.6367 62.6094C71.9336 63.4766 71.0781 64.1621 70.0703 64.666C69.0742 65.1582 67.9199 65.3867 66.6074 65.3516C65.3301 65.3281 64.2754 65.0469 63.4434 64.5078C62.623 63.9688 61.9785 63.2656 61.5098 62.3984C61.0527 61.5195 60.748 60.5469 60.5957 59.4805C60.4551 58.4141 60.4375 57.3418 60.543 56.2637ZM64.7441 54.7344L64.5684 56.2988C64.5215 56.7676 64.4863 57.3184 64.4629 57.9512C64.4512 58.5723 64.5098 59.1875 64.6387 59.7969C64.7793 60.3945 65.0254 60.8926 65.377 61.291C65.7402 61.6895 66.2559 61.9004 66.9238 61.9238C67.6855 61.9707 68.3242 61.8184 68.8398 61.4668C69.3672 61.1035 69.7891 60.6289 70.1055 60.043C70.4219 59.457 70.6621 58.8301 70.8262 58.1621C71.002 57.4941 71.1309 56.8555 71.2129 56.2461L71.3887 54.7168C71.4238 54.248 71.4473 53.6973 71.459 53.0645C71.4707 52.4316 71.4062 51.8164 71.2656 51.2188C71.1367 50.6211 70.8965 50.123 70.5449 49.7246C70.1934 49.3145 69.6777 49.0918 68.998 49.0566C68.2715 49.0098 67.6504 49.1738 67.1348 49.5488C66.6309 49.9121 66.2148 50.3867 65.8867 50.9727C65.5586 51.5586 65.3008 52.1914 65.1133 52.8711C64.9375 53.5391 64.8145 54.1602 64.7441 54.7344ZM94.5039 61.1328L96.0156 51.6055C96.0625 51.1484 96.0508 50.7207 95.9805 50.3223C95.9219 49.9121 95.7578 49.5781 95.4883 49.3203C95.2305 49.0625 94.832 48.9277 94.293 48.916C93.7656 48.9043 93.3145 49.0156 92.9395 49.25C92.5645 49.4727 92.2598 49.7832 92.0254 50.1816C91.8027 50.5684 91.6504 50.9961 91.5684 51.4648L87.5781 51.5C87.6484 50.5859 87.8887 49.7656 88.2988 49.0391C88.7207 48.3008 89.2598 47.6738 89.916 47.1582C90.5723 46.6426 91.3047 46.2559 92.1133 45.998C92.9336 45.7285 93.7832 45.5996 94.6621 45.6113C95.8926 45.623 96.9297 45.8867 97.7734 46.4023C98.6172 46.9062 99.2324 47.6094 99.6191 48.5117C100.006 49.4141 100.135 50.4805 100.006 51.7109L98.5645 60.6055C98.459 61.2852 98.3887 61.9707 98.3535 62.6621C98.3301 63.3418 98.3887 64.0215 98.5293 64.7012L98.5117 65L94.5742 65.0176C94.4102 64.3848 94.334 63.7402 94.3457 63.084C94.3574 62.4277 94.4102 61.7773 94.5039 61.1328ZM96.3672 53.416L95.9277 56.0703L94.2051 56.0527C93.666 56.0527 93.1504 56.1289 92.6582 56.2812C92.1777 56.4336 91.7324 56.6562 91.3223 56.9492C90.9238 57.2422 90.5957 57.5996 90.3379 58.0215C90.0918 58.4434 89.9336 58.9414 89.8633 59.5156C89.8047 59.9375 89.8105 60.3359 89.8809 60.7109C89.9629 61.0859 90.127 61.3906 90.373 61.625C90.6309 61.8594 91.0117 61.9824 91.5156 61.9941C92.043 61.9941 92.5527 61.8828 93.0449 61.6602C93.5371 61.4258 93.9531 61.1094 94.293 60.7109C94.6445 60.3125 94.8672 59.8496 94.9609 59.3223L95.6465 61.0625C95.4707 61.6367 95.2246 62.1875 94.9082 62.7148C94.6035 63.2305 94.2285 63.6934 93.7832 64.1035C93.3496 64.502 92.8574 64.8184 92.3066 65.0527C91.7559 65.2871 91.1582 65.3984 90.5137 65.3867C89.459 65.375 88.5684 65.123 87.8418 64.6309C87.1152 64.127 86.5703 63.4648 86.207 62.6445C85.8555 61.8125 85.709 60.8926 85.7676 59.8848C85.8262 58.7715 86.0898 57.8047 86.5586 56.9844C87.0273 56.1641 87.6367 55.4902 88.3867 54.9629C89.1367 54.4238 89.9863 54.0312 90.9355 53.7852C91.8848 53.5273 92.8809 53.3984 93.9238 53.3984L96.3672 53.416ZM108.443 49.8477L105.824 65H101.834L105.139 45.9805H108.936L108.443 49.8477ZM113.506 45.8398L112.996 49.8828C112.762 49.8242 112.521 49.7832 112.275 49.7598C112.029 49.7246 111.789 49.707 111.555 49.707C110.898 49.6953 110.336 49.8125 109.867 50.0586C109.398 50.3047 109 50.6387 108.672 51.0605C108.355 51.4707 108.086 51.9336 107.863 52.4492C107.652 52.9648 107.482 53.498 107.354 54.0488L106.475 54.1016C106.58 53.3398 106.738 52.4668 106.949 51.4824C107.172 50.498 107.488 49.5547 107.898 48.6523C108.309 47.7383 108.854 46.9941 109.533 46.4199C110.213 45.834 111.062 45.5527 112.082 45.5762C112.328 45.5879 112.568 45.6172 112.803 45.6641C113.037 45.7109 113.271 45.7695 113.506 45.8398ZM119.939 65.3516C118.686 65.3281 117.625 65.082 116.758 64.6133C115.891 64.1445 115.205 63.5059 114.701 62.6973C114.209 61.8887 113.875 60.9746 113.699 59.9551C113.523 58.9355 113.494 57.8516 113.611 56.7031L113.84 54.875C113.98 53.7031 114.25 52.5605 114.648 51.4473C115.059 50.3223 115.604 49.3145 116.283 48.4238C116.963 47.5332 117.795 46.8359 118.779 46.332C119.775 45.8281 120.941 45.5879 122.277 45.6113C123.566 45.6465 124.604 45.9395 125.389 46.4902C126.186 47.0293 126.771 47.7383 127.146 48.6172C127.533 49.4961 127.762 50.4688 127.832 51.5352C127.914 52.6016 127.891 53.668 127.762 54.7344L127.463 56.791H115.457L116.002 53.6973L123.93 53.7148L124 53.2402C124.094 52.6426 124.117 52.0273 124.07 51.3945C124.035 50.7617 123.859 50.2227 123.543 49.7773C123.227 49.332 122.693 49.0859 121.943 49.0391C121.158 49.0039 120.514 49.168 120.01 49.5312C119.506 49.8945 119.107 50.3809 118.814 50.9902C118.521 51.5996 118.305 52.25 118.164 52.9414C118.023 53.6211 117.918 54.2656 117.848 54.875L117.619 56.7207C117.549 57.3066 117.52 57.8984 117.531 58.4961C117.555 59.0938 117.648 59.6504 117.812 60.166C117.988 60.6699 118.275 61.0859 118.674 61.4141C119.084 61.7305 119.658 61.8945 120.396 61.9062C121.264 61.9297 122.055 61.7656 122.77 61.4141C123.484 61.0508 124.141 60.582 124.738 60.0078L126.303 62.5391C125.811 63.1953 125.219 63.7344 124.527 64.1562C123.848 64.5781 123.109 64.8828 122.312 65.0703C121.527 65.2695 120.736 65.3633 119.939 65.3516ZM148.188 45.9805L147.625 49.1445H138.555L139.117 45.9805H148.188ZM142.387 41.3223H146.377L143.248 59.7441C143.213 60.0488 143.195 60.3594 143.195 60.6758C143.207 60.9805 143.283 61.2383 143.424 61.4492C143.564 61.6484 143.828 61.7539 144.215 61.7656C144.414 61.7656 144.613 61.7539 144.812 61.7305C145.023 61.6953 145.229 61.6602 145.428 61.625L145.094 64.9473C144.73 65.0879 144.355 65.1875 143.969 65.2461C143.582 65.3047 143.189 65.3281 142.791 65.3164C141.783 65.3047 141.01 65.0352 140.471 64.5078C139.943 63.9805 139.586 63.3125 139.398 62.5039C139.223 61.6836 139.176 60.8398 139.258 59.9727L142.387 41.3223ZM156.572 38L151.896 65H147.889L152.582 38H156.572ZM153.021 54.8398H151.861C151.967 53.8672 152.172 52.8418 152.477 51.7637C152.793 50.6855 153.227 49.6719 153.777 48.7227C154.328 47.7734 155.031 47.0117 155.887 46.4375C156.742 45.8516 157.773 45.582 158.98 45.6289C159.953 45.6523 160.732 45.8867 161.318 46.332C161.916 46.7656 162.355 47.334 162.637 48.0371C162.93 48.7402 163.105 49.5078 163.164 50.3398C163.223 51.1719 163.205 51.9863 163.111 52.7832L161.072 65H157.082L159.121 52.7305C159.168 52.2031 159.18 51.6641 159.156 51.1133C159.133 50.5508 158.986 50.0762 158.717 49.6895C158.447 49.3027 157.973 49.1035 157.293 49.0918C156.555 49.0566 155.928 49.2324 155.412 49.6191C154.908 49.9941 154.492 50.4805 154.164 51.0781C153.848 51.6758 153.596 52.3086 153.408 52.9766C153.221 53.6445 153.092 54.2656 153.021 54.8398ZM172.322 65.3516C171.068 65.3281 170.008 65.082 169.141 64.6133C168.273 64.1445 167.588 63.5059 167.084 62.6973C166.592 61.8887 166.258 60.9746 166.082 59.9551C165.906 58.9355 165.877 57.8516 165.994 56.7031L166.223 54.875C166.363 53.7031 166.633 52.5605 167.031 51.4473C167.441 50.3223 167.986 49.3145 168.666 48.4238C169.346 47.5332 170.178 46.8359 171.162 46.332C172.158 45.8281 173.324 45.5879 174.66 45.6113C175.949 45.6465 176.986 45.9395 177.771 46.4902C178.568 47.0293 179.154 47.7383 179.529 48.6172C179.916 49.4961 180.145 50.4688 180.215 51.5352C180.297 52.6016 180.273 53.668 180.145 54.7344L179.846 56.791H167.84L168.385 53.6973L176.312 53.7148L176.383 53.2402C176.477 52.6426 176.5 52.0273 176.453 51.3945C176.418 50.7617 176.242 50.2227 175.926 49.7773C175.609 49.332 175.076 49.0859 174.326 49.0391C173.541 49.0039 172.896 49.168 172.393 49.5312C171.889 49.8945 171.49 50.3809 171.197 50.9902C170.904 51.5996 170.688 52.25 170.547 52.9414C170.406 53.6211 170.301 54.2656 170.23 54.875L170.002 56.7207C169.932 57.3066 169.902 57.8984 169.914 58.4961C169.938 59.0938 170.031 59.6504 170.195 60.166C170.371 60.6699 170.658 61.0859 171.057 61.4141C171.467 61.7305 172.041 61.8945 172.779 61.9062C173.646 61.9297 174.438 61.7656 175.152 61.4141C175.867 61.0508 176.523 60.582 177.121 60.0078L178.686 62.5391C178.193 63.1953 177.602 63.7344 176.91 64.1562C176.23 64.5781 175.492 64.8828 174.695 65.0703C173.91 65.2695 173.119 65.3633 172.322 65.3516ZM205.949 39.4062H210.115L207.092 57.1602C206.869 58.8242 206.365 60.2832 205.58 61.5371C204.807 62.7793 203.781 63.7402 202.504 64.4199C201.227 65.0879 199.727 65.4043 198.004 65.3691C196.363 65.334 195.004 64.9707 193.926 64.2793C192.859 63.5762 192.098 62.6152 191.641 61.3965C191.184 60.1777 191.043 58.7715 191.219 57.1777L194.242 39.4062H198.391L195.402 57.1953C195.309 58.0156 195.314 58.7715 195.42 59.4629C195.525 60.1426 195.801 60.6934 196.246 61.1152C196.691 61.5254 197.383 61.748 198.32 61.7832C199.305 61.8184 200.113 61.6426 200.746 61.2559C201.379 60.8691 201.871 60.3242 202.223 59.6211C202.574 58.9062 202.814 58.0977 202.943 57.1953L205.949 39.4062ZM219.062 59.8848C219.133 59.3574 219.016 58.918 218.711 58.5664C218.418 58.2148 218.049 57.916 217.604 57.6699C217.17 57.4121 216.76 57.1895 216.373 57.002C215.752 56.6973 215.16 56.375 214.598 56.0352C214.047 55.6953 213.555 55.3086 213.121 54.875C212.699 54.4297 212.371 53.9199 212.137 53.3457C211.902 52.7715 211.809 52.1035 211.855 51.3418C211.902 50.4512 212.113 49.6543 212.488 48.9512C212.875 48.2363 213.379 47.6328 214 47.1406C214.621 46.6367 215.324 46.2559 216.109 45.998C216.906 45.7285 217.727 45.5996 218.57 45.6113C219.742 45.6465 220.768 45.9102 221.646 46.4023C222.525 46.8828 223.193 47.5625 223.65 48.4414C224.119 49.3086 224.342 50.334 224.318 51.5176L220.328 51.5C220.352 51.043 220.311 50.6152 220.205 50.2168C220.1 49.8066 219.895 49.4727 219.59 49.2148C219.297 48.957 218.887 48.8281 218.359 48.8281C217.891 48.8398 217.469 48.9453 217.094 49.1445C216.719 49.332 216.408 49.6016 216.162 49.9531C215.916 50.3047 215.758 50.709 215.688 51.166C215.629 51.5293 215.67 51.8516 215.811 52.1328C215.963 52.4023 216.174 52.6426 216.443 52.8535C216.713 53.0527 217.006 53.2285 217.322 53.3809C217.65 53.5332 217.943 53.6738 218.201 53.8027C219.068 54.2129 219.871 54.6641 220.609 55.1562C221.359 55.6484 221.951 56.252 222.385 56.9668C222.818 57.6699 223 58.5605 222.93 59.6387C222.883 60.5762 222.654 61.4082 222.244 62.1348C221.846 62.8496 221.318 63.4473 220.662 63.9277C220.006 64.4082 219.268 64.7715 218.447 65.0176C217.627 65.2637 216.777 65.375 215.898 65.3516C214.703 65.3164 213.648 65.041 212.734 64.5254C211.82 63.998 211.111 63.2773 210.607 62.3633C210.104 61.4492 209.863 60.3887 209.887 59.1816L213.754 59.1992C213.742 59.7617 213.801 60.2656 213.93 60.7109C214.07 61.1562 214.316 61.5078 214.668 61.7656C215.031 62.0117 215.518 62.1348 216.127 62.1348C216.619 62.1348 217.07 62.0527 217.48 61.8887C217.902 61.7246 218.248 61.4785 218.518 61.1504C218.799 60.8105 218.98 60.3887 219.062 59.8848ZM232.791 65.3516C231.537 65.3281 230.477 65.082 229.609 64.6133C228.742 64.1445 228.057 63.5059 227.553 62.6973C227.061 61.8887 226.727 60.9746 226.551 59.9551C226.375 58.9355 226.346 57.8516 226.463 56.7031L226.691 54.875C226.832 53.7031 227.102 52.5605 227.5 51.4473C227.91 50.3223 228.455 49.3145 229.135 48.4238C229.814 47.5332 230.646 46.8359 231.631 46.332C232.627 45.8281 233.793 45.5879 235.129 45.6113C236.418 45.6465 237.455 45.9395 238.24 46.4902C239.037 47.0293 239.623 47.7383 239.998 48.6172C240.385 49.4961 240.613 50.4688 240.684 51.5352C240.766 52.6016 240.742 53.668 240.613 54.7344L240.314 56.791H228.309L228.854 53.6973L236.781 53.7148L236.852 53.2402C236.945 52.6426 236.969 52.0273 236.922 51.3945C236.887 50.7617 236.711 50.2227 236.395 49.7773C236.078 49.332 235.545 49.0859 234.795 49.0391C234.01 49.0039 233.365 49.168 232.861 49.5312C232.357 49.8945 231.959 50.3809 231.666 50.9902C231.373 51.5996 231.156 52.25 231.016 52.9414C230.875 53.6211 230.77 54.2656 230.699 54.875L230.471 56.7207C230.4 57.3066 230.371 57.8984 230.383 58.4961C230.406 59.0938 230.5 59.6504 230.664 60.166C230.84 60.6699 231.127 61.0859 231.525 61.4141C231.936 61.7305 232.51 61.8945 233.248 61.9062C234.115 61.9297 234.906 61.7656 235.621 61.4141C236.336 61.0508 236.992 60.582 237.59 60.0078L239.154 62.5391C238.662 63.1953 238.07 63.7344 237.379 64.1562C236.699 64.5781 235.961 64.8828 235.164 65.0703C234.379 65.2695 233.588 65.3633 232.791 65.3516ZM248.646 49.8477L246.027 65H242.037L245.342 45.9805H249.139L248.646 49.8477ZM253.709 45.8398L253.199 49.8828C252.965 49.8242 252.725 49.7832 252.479 49.7598C252.232 49.7246 251.992 49.707 251.758 49.707C251.102 49.6953 250.539 49.8125 250.07 50.0586C249.602 50.3047 249.203 50.6387 248.875 51.0605C248.559 51.4707 248.289 51.9336 248.066 52.4492C247.855 52.9648 247.686 53.498 247.557 54.0488L246.678 54.1016C246.783 53.3398 246.941 52.4668 247.152 51.4824C247.375 50.498 247.691 49.5547 248.102 48.6523C248.512 47.7383 249.057 46.9941 249.736 46.4199C250.416 45.834 251.266 45.5527 252.285 45.5762C252.531 45.5879 252.771 45.6172 253.006 45.6641C253.24 45.7109 253.475 45.7695 253.709 45.8398ZM262.656 59.8848C262.727 59.3574 262.609 58.918 262.305 58.5664C262.012 58.2148 261.643 57.916 261.197 57.6699C260.764 57.4121 260.354 57.1895 259.967 57.002C259.346 56.6973 258.754 56.375 258.191 56.0352C257.641 55.6953 257.148 55.3086 256.715 54.875C256.293 54.4297 255.965 53.9199 255.73 53.3457C255.496 52.7715 255.402 52.1035 255.449 51.3418C255.496 50.4512 255.707 49.6543 256.082 48.9512C256.469 48.2363 256.973 47.6328 257.594 47.1406C258.215 46.6367 258.918 46.2559 259.703 45.998C260.5 45.7285 261.32 45.5996 262.164 45.6113C263.336 45.6465 264.361 45.9102 265.24 46.4023C266.119 46.8828 266.787 47.5625 267.244 48.4414C267.713 49.3086 267.936 50.334 267.912 51.5176L263.922 51.5C263.945 51.043 263.904 50.6152 263.799 50.2168C263.693 49.8066 263.488 49.4727 263.184 49.2148C262.891 48.957 262.48 48.8281 261.953 48.8281C261.484 48.8398 261.062 48.9453 260.688 49.1445C260.312 49.332 260.002 49.6016 259.756 49.9531C259.51 50.3047 259.352 50.709 259.281 51.166C259.223 51.5293 259.264 51.8516 259.404 52.1328C259.557 52.4023 259.768 52.6426 260.037 52.8535C260.307 53.0527 260.6 53.2285 260.916 53.3809C261.244 53.5332 261.537 53.6738 261.795 53.8027C262.662 54.2129 263.465 54.6641 264.203 55.1562C264.953 55.6484 265.545 56.252 265.979 56.9668C266.412 57.6699 266.594 58.5605 266.523 59.6387C266.477 60.5762 266.248 61.4082 265.838 62.1348C265.439 62.8496 264.912 63.4473 264.256 63.9277C263.6 64.4082 262.861 64.7715 262.041 65.0176C261.221 65.2637 260.371 65.375 259.492 65.3516C258.297 65.3164 257.242 65.041 256.328 64.5254C255.414 63.998 254.705 63.2773 254.201 62.3633C253.697 61.4492 253.457 60.3887 253.48 59.1816L257.348 59.1992C257.336 59.7617 257.395 60.2656 257.523 60.7109C257.664 61.1562 257.91 61.5078 258.262 61.7656C258.625 62.0117 259.111 62.1348 259.721 62.1348C260.213 62.1348 260.664 62.0527 261.074 61.8887C261.496 61.7246 261.842 61.4785 262.111 61.1504C262.393 60.8105 262.574 60.3887 262.656 59.8848ZM285.666 57.4238L282.045 57.4414C282.139 56.5156 282.303 55.666 282.537 54.8926C282.783 54.1191 283.123 53.3984 283.557 52.7305C284.002 52.0508 284.559 51.3711 285.227 50.6914C285.672 50.2227 286.117 49.748 286.562 49.2676C287.008 48.7754 287.389 48.2539 287.705 47.7031C288.021 47.1406 288.227 46.5195 288.32 45.8398C288.379 45.3945 288.385 44.9199 288.338 44.416C288.291 43.9121 288.139 43.4785 287.881 43.1152C287.635 42.752 287.225 42.5586 286.65 42.5352C286.064 42.5352 285.572 42.7051 285.174 43.0449C284.787 43.3848 284.482 43.8066 284.26 44.3105C284.037 44.8145 283.885 45.3125 283.803 45.8047L279.812 45.8223C279.941 44.5215 280.311 43.3496 280.92 42.3066C281.529 41.2637 282.344 40.4492 283.363 39.8633C284.395 39.2773 285.596 39.002 286.967 39.0371C288.268 39.0723 289.34 39.3887 290.184 39.9863C291.039 40.5723 291.654 41.3633 292.029 42.3594C292.416 43.3555 292.562 44.4688 292.469 45.6992C292.363 46.7656 292.07 47.7266 291.59 48.582C291.109 49.4375 290.523 50.2344 289.832 50.9727C289.141 51.6992 288.432 52.4199 287.705 53.1348C287.084 53.7324 286.621 54.3887 286.316 55.1035C286.012 55.8184 285.795 56.5918 285.666 57.4238ZM280.674 62.9785C280.674 62.334 280.879 61.7715 281.289 61.291C281.699 60.8105 282.232 60.5645 282.889 60.5527C283.557 60.541 284.09 60.7637 284.488 61.2207C284.887 61.666 285.086 62.2109 285.086 62.8555C285.074 63.5 284.863 64.0566 284.453 64.5254C284.055 64.9824 283.527 65.2227 282.871 65.2461C282.203 65.2578 281.67 65.041 281.271 64.5957C280.873 64.1504 280.674 63.6113 280.674 62.9785Z" fill="#124851"/>
<line x1="36" y1="112.5" x2="746" y2="112.5" stroke="#EE5A2C"/>
<circle opacity="0.9" cx="840" cy="113" r="100" fill="#E86A42"/>
<circle opacity="0.8" cx="1008" cy="113" r="100" fill="#FC9A7B"/>
<path d="M951.223 141.337L946.986 153H945.255L950.133 140.203H951.249L951.223 141.337ZM954.773 153L950.528 141.337L950.502 140.203H951.618L956.514 153H954.773ZM954.554 148.263V149.651H947.364V148.263H954.554ZM964.143 143.49H965.619V152.798C965.619 153.636 965.449 154.351 965.109 154.942C964.77 155.534 964.295 155.982 963.686 156.287C963.082 156.598 962.385 156.753 961.594 156.753C961.266 156.753 960.879 156.7 960.434 156.595C959.994 156.495 959.561 156.322 959.133 156.076C958.711 155.836 958.356 155.511 958.069 155.101L958.922 154.134C959.32 154.614 959.736 154.948 960.17 155.136C960.609 155.323 961.043 155.417 961.471 155.417C961.986 155.417 962.432 155.32 962.807 155.127C963.182 154.934 963.472 154.646 963.677 154.266C963.888 153.891 963.993 153.428 963.993 152.877V145.582L964.143 143.49ZM957.595 148.351V148.166C957.595 147.439 957.68 146.78 957.85 146.188C958.025 145.591 958.274 145.078 958.597 144.65C958.925 144.223 959.32 143.895 959.783 143.666C960.246 143.432 960.768 143.314 961.348 143.314C961.945 143.314 962.467 143.42 962.912 143.631C963.363 143.836 963.744 144.138 964.055 144.536C964.371 144.929 964.62 145.403 964.802 145.96C964.983 146.517 965.109 147.146 965.18 147.85V148.658C965.115 149.355 964.989 149.982 964.802 150.539C964.62 151.096 964.371 151.57 964.055 151.963C963.744 152.355 963.363 152.657 962.912 152.868C962.461 153.073 961.934 153.176 961.33 153.176C960.762 153.176 960.246 153.056 959.783 152.815C959.326 152.575 958.934 152.238 958.605 151.805C958.277 151.371 958.025 150.861 957.85 150.275C957.68 149.684 957.595 149.042 957.595 148.351ZM959.221 148.166V148.351C959.221 148.825 959.268 149.271 959.361 149.687C959.461 150.103 959.61 150.469 959.81 150.785C960.015 151.102 960.275 151.351 960.592 151.532C960.908 151.708 961.286 151.796 961.726 151.796C962.265 151.796 962.71 151.682 963.062 151.453C963.413 151.225 963.691 150.923 963.896 150.548C964.107 150.173 964.271 149.766 964.389 149.326V147.208C964.324 146.886 964.225 146.575 964.09 146.276C963.961 145.972 963.791 145.702 963.58 145.468C963.375 145.228 963.12 145.037 962.815 144.896C962.511 144.756 962.153 144.686 961.743 144.686C961.298 144.686 960.914 144.779 960.592 144.967C960.275 145.148 960.015 145.4 959.81 145.723C959.61 146.039 959.461 146.408 959.361 146.83C959.268 147.246 959.221 147.691 959.221 148.166ZM972.035 153.176C971.373 153.176 970.772 153.064 970.233 152.842C969.7 152.613 969.24 152.294 968.854 151.884C968.473 151.474 968.18 150.987 967.975 150.425C967.77 149.862 967.667 149.247 967.667 148.579V148.21C967.667 147.437 967.781 146.748 968.01 146.145C968.238 145.535 968.549 145.02 968.941 144.598C969.334 144.176 969.779 143.856 970.277 143.64C970.775 143.423 971.291 143.314 971.824 143.314C972.504 143.314 973.09 143.432 973.582 143.666C974.08 143.9 974.487 144.229 974.804 144.65C975.12 145.066 975.354 145.559 975.507 146.127C975.659 146.689 975.735 147.305 975.735 147.973V148.702H968.634V147.375H974.109V147.252C974.086 146.83 973.998 146.42 973.846 146.021C973.699 145.623 973.465 145.295 973.143 145.037C972.82 144.779 972.381 144.65 971.824 144.65C971.455 144.65 971.115 144.729 970.805 144.888C970.494 145.04 970.228 145.269 970.005 145.573C969.782 145.878 969.609 146.25 969.486 146.689C969.363 147.129 969.302 147.636 969.302 148.21V148.579C969.302 149.03 969.363 149.455 969.486 149.854C969.615 150.246 969.8 150.592 970.04 150.891C970.286 151.189 970.582 151.424 970.928 151.594C971.279 151.764 971.678 151.849 972.123 151.849C972.697 151.849 973.184 151.731 973.582 151.497C973.98 151.263 974.329 150.949 974.628 150.557L975.612 151.339C975.407 151.649 975.146 151.945 974.83 152.227C974.514 152.508 974.124 152.736 973.661 152.912C973.204 153.088 972.662 153.176 972.035 153.176ZM991.802 146.628V151.312C991.644 151.547 991.392 151.811 991.046 152.104C990.7 152.391 990.223 152.643 989.613 152.859C989.01 153.07 988.23 153.176 987.275 153.176C986.496 153.176 985.778 153.041 985.122 152.771C984.472 152.496 983.906 152.098 983.426 151.576C982.951 151.049 982.582 150.41 982.318 149.66C982.061 148.904 981.932 148.049 981.932 147.094V146.101C981.932 145.146 982.043 144.293 982.266 143.543C982.494 142.793 982.828 142.157 983.268 141.636C983.707 141.108 984.246 140.71 984.885 140.44C985.523 140.165 986.256 140.027 987.082 140.027C988.061 140.027 988.878 140.197 989.534 140.537C990.196 140.871 990.712 141.334 991.081 141.926C991.456 142.518 991.696 143.191 991.802 143.947H990.105C990.029 143.484 989.877 143.062 989.648 142.682C989.426 142.301 989.106 141.996 988.69 141.768C988.274 141.533 987.738 141.416 987.082 141.416C986.49 141.416 985.978 141.524 985.544 141.741C985.11 141.958 984.753 142.269 984.472 142.673C984.19 143.077 983.979 143.566 983.839 144.141C983.704 144.715 983.637 145.362 983.637 146.083V147.094C983.637 147.832 983.722 148.491 983.892 149.071C984.067 149.651 984.316 150.146 984.639 150.557C984.961 150.961 985.345 151.269 985.79 151.479C986.241 151.69 986.739 151.796 987.284 151.796C987.888 151.796 988.377 151.746 988.752 151.646C989.127 151.541 989.42 151.418 989.631 151.277C989.842 151.131 990.003 150.993 990.114 150.864V147.999H987.152V146.628H991.802ZM995.994 144.984V153H994.368V143.49H995.95L995.994 144.984ZM998.965 143.438L998.956 144.949C998.821 144.92 998.692 144.902 998.569 144.896C998.452 144.885 998.317 144.879 998.165 144.879C997.79 144.879 997.459 144.938 997.172 145.055C996.885 145.172 996.642 145.336 996.442 145.547C996.243 145.758 996.085 146.01 995.968 146.303C995.856 146.59 995.783 146.906 995.748 147.252L995.291 147.516C995.291 146.941 995.347 146.402 995.458 145.898C995.575 145.395 995.754 144.949 995.994 144.562C996.234 144.17 996.539 143.865 996.908 143.648C997.283 143.426 997.729 143.314 998.244 143.314C998.361 143.314 998.496 143.329 998.648 143.358C998.801 143.382 998.906 143.408 998.965 143.438ZM999.861 148.351V148.148C999.861 147.463 999.961 146.827 1000.16 146.241C1000.36 145.649 1000.65 145.137 1001.02 144.703C1001.4 144.264 1001.85 143.924 1002.38 143.684C1002.92 143.438 1003.51 143.314 1004.18 143.314C1004.84 143.314 1005.45 143.438 1005.98 143.684C1006.52 143.924 1006.97 144.264 1007.35 144.703C1007.73 145.137 1008.02 145.649 1008.22 146.241C1008.42 146.827 1008.52 147.463 1008.52 148.148V148.351C1008.52 149.036 1008.42 149.672 1008.22 150.258C1008.02 150.844 1007.73 151.356 1007.35 151.796C1006.97 152.229 1006.52 152.569 1005.99 152.815C1005.46 153.056 1004.86 153.176 1004.19 153.176C1003.53 153.176 1002.93 153.056 1002.39 152.815C1001.86 152.569 1001.4 152.229 1001.02 151.796C1000.65 151.356 1000.36 150.844 1000.16 150.258C999.961 149.672 999.861 149.036 999.861 148.351ZM1001.49 148.148V148.351C1001.49 148.825 1001.54 149.273 1001.65 149.695C1001.77 150.111 1001.93 150.48 1002.16 150.803C1002.38 151.125 1002.67 151.38 1003.01 151.567C1003.35 151.749 1003.74 151.84 1004.19 151.84C1004.64 151.84 1005.03 151.749 1005.36 151.567C1005.7 151.38 1005.98 151.125 1006.21 150.803C1006.43 150.48 1006.6 150.111 1006.71 149.695C1006.83 149.273 1006.88 148.825 1006.88 148.351V148.148C1006.88 147.68 1006.83 147.237 1006.71 146.821C1006.6 146.399 1006.43 146.027 1006.2 145.705C1005.98 145.377 1005.69 145.119 1005.35 144.932C1005.02 144.744 1004.63 144.65 1004.18 144.65C1003.73 144.65 1003.34 144.744 1003 144.932C1002.67 145.119 1002.38 145.377 1002.16 145.705C1001.93 146.027 1001.77 146.399 1001.65 146.821C1001.54 147.237 1001.49 147.68 1001.49 148.148ZM1016.38 150.803V143.49H1018.01V153H1016.46L1016.38 150.803ZM1016.68 148.799L1017.36 148.781C1017.36 149.414 1017.29 150 1017.16 150.539C1017.03 151.072 1016.82 151.535 1016.53 151.928C1016.23 152.32 1015.85 152.628 1015.37 152.851C1014.9 153.067 1014.32 153.176 1013.64 153.176C1013.18 153.176 1012.75 153.108 1012.37 152.974C1011.99 152.839 1011.66 152.631 1011.38 152.35C1011.11 152.068 1010.89 151.702 1010.74 151.251C1010.6 150.8 1010.52 150.258 1010.52 149.625V143.49H1012.15V149.643C1012.15 150.07 1012.2 150.425 1012.29 150.706C1012.39 150.981 1012.52 151.201 1012.68 151.365C1012.85 151.523 1013.04 151.635 1013.25 151.699C1013.46 151.764 1013.67 151.796 1013.9 151.796C1014.59 151.796 1015.14 151.664 1015.54 151.4C1015.95 151.131 1016.24 150.771 1016.41 150.319C1016.59 149.862 1016.68 149.355 1016.68 148.799ZM1022.12 145.318V156.656H1020.48V143.49H1021.97L1022.12 145.318ZM1028.52 148.166V148.351C1028.52 149.042 1028.44 149.684 1028.28 150.275C1028.11 150.861 1027.87 151.371 1027.56 151.805C1027.25 152.238 1026.86 152.575 1026.4 152.815C1025.95 153.056 1025.42 153.176 1024.83 153.176C1024.23 153.176 1023.69 153.076 1023.23 152.877C1022.77 152.678 1022.38 152.388 1022.05 152.007C1021.73 151.626 1021.47 151.169 1021.28 150.636C1021.09 150.103 1020.96 149.502 1020.89 148.834V147.85C1020.96 147.146 1021.1 146.517 1021.29 145.96C1021.48 145.403 1021.74 144.929 1022.05 144.536C1022.38 144.138 1022.77 143.836 1023.22 143.631C1023.68 143.42 1024.21 143.314 1024.8 143.314C1025.4 143.314 1025.93 143.432 1026.4 143.666C1026.86 143.895 1027.25 144.223 1027.56 144.65C1027.88 145.078 1028.12 145.591 1028.28 146.188C1028.44 146.78 1028.52 147.439 1028.52 148.166ZM1026.89 148.351V148.166C1026.89 147.691 1026.84 147.246 1026.74 146.83C1026.64 146.408 1026.48 146.039 1026.27 145.723C1026.07 145.4 1025.8 145.148 1025.48 144.967C1025.16 144.779 1024.78 144.686 1024.33 144.686C1023.92 144.686 1023.56 144.756 1023.26 144.896C1022.96 145.037 1022.7 145.228 1022.49 145.468C1022.28 145.702 1022.11 145.972 1021.97 146.276C1021.85 146.575 1021.75 146.886 1021.68 147.208V149.484C1021.8 149.895 1021.97 150.281 1022.18 150.645C1022.39 151.002 1022.67 151.292 1023.02 151.515C1023.37 151.731 1023.81 151.84 1024.35 151.84C1024.79 151.84 1025.17 151.749 1025.48 151.567C1025.8 151.38 1026.07 151.125 1026.27 150.803C1026.48 150.48 1026.64 150.111 1026.74 149.695C1026.84 149.273 1026.89 148.825 1026.89 148.351ZM1034.99 152.139C1034.99 151.863 1035.08 151.632 1035.25 151.444C1035.42 151.251 1035.67 151.154 1036 151.154C1036.33 151.154 1036.58 151.251 1036.75 151.444C1036.92 151.632 1037.01 151.863 1037.01 152.139C1037.01 152.408 1036.92 152.637 1036.75 152.824C1036.58 153.012 1036.33 153.105 1036 153.105C1035.67 153.105 1035.42 153.012 1035.25 152.824C1035.08 152.637 1034.99 152.408 1034.99 152.139ZM1035 144.378C1035 144.103 1035.08 143.871 1035.25 143.684C1035.43 143.49 1035.68 143.394 1036.01 143.394C1036.34 143.394 1036.59 143.49 1036.76 143.684C1036.93 143.871 1037.02 144.103 1037.02 144.378C1037.02 144.647 1036.93 144.876 1036.76 145.063C1036.59 145.251 1036.34 145.345 1036.01 145.345C1035.68 145.345 1035.43 145.251 1035.25 145.063C1035.08 144.876 1035 144.647 1035 144.378ZM1045.49 140.186H1045.63V141.565H1045.49C1044.62 141.565 1043.9 141.706 1043.32 141.987C1042.74 142.263 1042.28 142.635 1041.94 143.104C1041.6 143.566 1041.36 144.088 1041.21 144.668C1041.06 145.248 1040.99 145.837 1040.99 146.435V148.315C1040.99 148.884 1041.05 149.388 1041.19 149.827C1041.32 150.261 1041.51 150.627 1041.74 150.926C1041.98 151.225 1042.24 151.45 1042.53 151.603C1042.83 151.755 1043.14 151.831 1043.46 151.831C1043.84 151.831 1044.17 151.761 1044.47 151.62C1044.76 151.474 1045 151.271 1045.2 151.014C1045.41 150.75 1045.56 150.439 1045.67 150.082C1045.78 149.725 1045.83 149.332 1045.83 148.904C1045.83 148.523 1045.78 148.157 1045.69 147.806C1045.59 147.448 1045.45 147.132 1045.26 146.856C1045.06 146.575 1044.82 146.355 1044.53 146.197C1044.24 146.033 1043.9 145.951 1043.5 145.951C1043.05 145.951 1042.63 146.062 1042.23 146.285C1041.85 146.502 1041.53 146.789 1041.28 147.146C1041.03 147.498 1040.89 147.882 1040.85 148.298L1039.99 148.289C1040.07 147.633 1040.23 147.073 1040.45 146.61C1040.68 146.142 1040.96 145.761 1041.29 145.468C1041.63 145.169 1042.01 144.952 1042.43 144.817C1042.85 144.677 1043.29 144.606 1043.76 144.606C1044.4 144.606 1044.95 144.727 1045.42 144.967C1045.88 145.207 1046.26 145.529 1046.56 145.934C1046.86 146.332 1047.08 146.783 1047.22 147.287C1047.36 147.785 1047.44 148.298 1047.44 148.825C1047.44 149.429 1047.35 149.994 1047.18 150.521C1047.01 151.049 1046.76 151.512 1046.42 151.91C1046.08 152.309 1045.67 152.619 1045.18 152.842C1044.69 153.064 1044.11 153.176 1043.46 153.176C1042.77 153.176 1042.17 153.035 1041.65 152.754C1041.14 152.467 1040.71 152.086 1040.37 151.611C1040.03 151.137 1039.78 150.609 1039.61 150.029C1039.44 149.449 1039.35 148.86 1039.35 148.263V147.498C1039.35 146.596 1039.44 145.711 1039.62 144.844C1039.8 143.977 1040.12 143.191 1040.56 142.488C1041.01 141.785 1041.64 141.226 1042.44 140.81C1043.23 140.394 1044.25 140.186 1045.49 140.186ZM1051.43 146.909L1050.13 146.575L1050.77 140.203H1057.33V141.706H1052.15L1051.76 145.187C1052 145.052 1052.29 144.926 1052.65 144.809C1053.01 144.691 1053.43 144.633 1053.9 144.633C1054.49 144.633 1055.02 144.735 1055.49 144.94C1055.96 145.14 1056.35 145.427 1056.68 145.802C1057.02 146.177 1057.27 146.628 1057.45 147.155C1057.62 147.683 1057.71 148.271 1057.71 148.922C1057.71 149.537 1057.63 150.103 1057.46 150.618C1057.29 151.134 1057.04 151.585 1056.71 151.972C1056.38 152.353 1055.95 152.648 1055.44 152.859C1054.94 153.07 1054.34 153.176 1053.66 153.176C1053.14 153.176 1052.65 153.105 1052.19 152.965C1051.73 152.818 1051.32 152.599 1050.96 152.306C1050.6 152.007 1050.31 151.638 1050.08 151.198C1049.86 150.753 1049.72 150.231 1049.66 149.634H1051.21C1051.28 150.114 1051.42 150.519 1051.63 150.847C1051.84 151.175 1052.12 151.424 1052.46 151.594C1052.8 151.758 1053.2 151.84 1053.66 151.84C1054.05 151.84 1054.39 151.772 1054.69 151.638C1054.99 151.503 1055.24 151.31 1055.44 151.058C1055.65 150.806 1055.8 150.501 1055.91 150.144C1056.02 149.786 1056.08 149.385 1056.08 148.939C1056.08 148.535 1056.02 148.16 1055.91 147.814C1055.8 147.469 1055.63 147.167 1055.41 146.909C1055.19 146.651 1054.92 146.452 1054.61 146.312C1054.29 146.165 1053.93 146.092 1053.52 146.092C1052.97 146.092 1052.56 146.165 1052.28 146.312C1052 146.458 1051.72 146.657 1051.43 146.909ZM1067.89 146.136V147.665H1059.12V146.136H1067.89ZM1064.32 142.4V151.717H1062.69V142.4H1064.32Z" fill="#222222"/>
<path d="M786.539 109.568V115.203C786.318 115.47 785.976 115.76 785.514 116.072C785.051 116.378 784.456 116.642 783.727 116.863C782.997 117.085 782.115 117.195 781.08 117.195C780.162 117.195 779.326 117.046 778.57 116.746C777.815 116.44 777.164 115.994 776.617 115.408C776.077 114.822 775.66 114.106 775.367 113.26C775.074 112.407 774.928 111.434 774.928 110.34V109.451C774.928 108.357 775.068 107.384 775.348 106.531C775.634 105.678 776.041 104.959 776.568 104.373C777.096 103.787 777.724 103.341 778.453 103.035C779.182 102.729 779.993 102.576 780.885 102.576C782.122 102.576 783.137 102.778 783.932 103.182C784.726 103.579 785.331 104.132 785.748 104.842C786.171 105.545 786.432 106.352 786.529 107.264H783.688C783.616 106.782 783.479 106.362 783.277 106.004C783.076 105.646 782.786 105.366 782.408 105.164C782.037 104.962 781.555 104.861 780.963 104.861C780.475 104.861 780.038 104.962 779.654 105.164C779.277 105.359 778.958 105.649 778.697 106.033C778.437 106.417 778.238 106.893 778.102 107.459C777.965 108.025 777.896 108.683 777.896 109.432V110.34C777.896 111.082 777.968 111.74 778.111 112.312C778.255 112.879 778.466 113.357 778.746 113.748C779.033 114.132 779.384 114.422 779.801 114.617C780.217 114.812 780.702 114.91 781.256 114.91C781.718 114.91 782.102 114.871 782.408 114.793C782.721 114.715 782.971 114.62 783.16 114.51C783.355 114.393 783.505 114.282 783.609 114.178V111.658H780.934V109.568H786.539ZM793.59 117.195C792.77 117.195 792.034 117.065 791.383 116.805C790.732 116.538 790.178 116.17 789.723 115.701C789.273 115.232 788.928 114.689 788.688 114.07C788.447 113.445 788.326 112.781 788.326 112.078V111.688C788.326 110.887 788.44 110.154 788.668 109.49C788.896 108.826 789.221 108.25 789.645 107.762C790.074 107.273 790.595 106.899 791.207 106.639C791.819 106.372 792.509 106.238 793.277 106.238C794.026 106.238 794.69 106.362 795.27 106.609C795.849 106.857 796.334 107.208 796.725 107.664C797.122 108.12 797.421 108.667 797.623 109.305C797.825 109.936 797.926 110.639 797.926 111.414V112.586H789.527V110.711H795.162V110.496C795.162 110.105 795.09 109.757 794.947 109.451C794.811 109.139 794.602 108.891 794.322 108.709C794.042 108.527 793.684 108.436 793.248 108.436C792.877 108.436 792.558 108.517 792.291 108.68C792.024 108.842 791.806 109.07 791.637 109.363C791.474 109.656 791.35 110.001 791.266 110.398C791.188 110.789 791.148 111.219 791.148 111.688V112.078C791.148 112.501 791.207 112.892 791.324 113.25C791.448 113.608 791.62 113.917 791.842 114.178C792.07 114.438 792.343 114.64 792.662 114.783C792.988 114.926 793.355 114.998 793.766 114.998C794.273 114.998 794.745 114.9 795.182 114.705C795.624 114.503 796.005 114.201 796.324 113.797L797.691 115.281C797.47 115.6 797.167 115.906 796.783 116.199C796.406 116.492 795.95 116.733 795.416 116.922C794.882 117.104 794.273 117.195 793.59 117.195ZM802.281 108.689V117H799.469V106.434H802.105L802.281 108.689ZM801.871 111.346H801.109C801.109 110.564 801.21 109.861 801.412 109.236C801.614 108.605 801.897 108.068 802.262 107.625C802.626 107.176 803.059 106.834 803.561 106.6C804.068 106.359 804.635 106.238 805.26 106.238C805.755 106.238 806.207 106.31 806.617 106.453C807.027 106.596 807.379 106.824 807.672 107.137C807.971 107.449 808.199 107.863 808.355 108.377C808.518 108.891 808.6 109.52 808.6 110.262V117H805.768V110.252C805.768 109.783 805.702 109.419 805.572 109.158C805.442 108.898 805.25 108.715 804.996 108.611C804.749 108.501 804.443 108.445 804.078 108.445C803.701 108.445 803.372 108.52 803.092 108.67C802.818 108.82 802.59 109.028 802.408 109.295C802.232 109.555 802.099 109.861 802.008 110.213C801.917 110.564 801.871 110.942 801.871 111.346ZM815.602 117.195C814.781 117.195 814.046 117.065 813.395 116.805C812.743 116.538 812.19 116.17 811.734 115.701C811.285 115.232 810.94 114.689 810.699 114.07C810.458 113.445 810.338 112.781 810.338 112.078V111.688C810.338 110.887 810.452 110.154 810.68 109.49C810.908 108.826 811.233 108.25 811.656 107.762C812.086 107.273 812.607 106.899 813.219 106.639C813.831 106.372 814.521 106.238 815.289 106.238C816.038 106.238 816.702 106.362 817.281 106.609C817.861 106.857 818.346 107.208 818.736 107.664C819.133 108.12 819.433 108.667 819.635 109.305C819.837 109.936 819.938 110.639 819.938 111.414V112.586H811.539V110.711H817.174V110.496C817.174 110.105 817.102 109.757 816.959 109.451C816.822 109.139 816.614 108.891 816.334 108.709C816.054 108.527 815.696 108.436 815.26 108.436C814.889 108.436 814.57 108.517 814.303 108.68C814.036 108.842 813.818 109.07 813.648 109.363C813.486 109.656 813.362 110.001 813.277 110.398C813.199 110.789 813.16 111.219 813.16 111.688V112.078C813.16 112.501 813.219 112.892 813.336 113.25C813.46 113.608 813.632 113.917 813.854 114.178C814.081 114.438 814.355 114.64 814.674 114.783C814.999 114.926 815.367 114.998 815.777 114.998C816.285 114.998 816.757 114.9 817.193 114.705C817.636 114.503 818.017 114.201 818.336 113.797L819.703 115.281C819.482 115.6 819.179 115.906 818.795 116.199C818.417 116.492 817.962 116.733 817.428 116.922C816.894 117.104 816.285 117.195 815.602 117.195ZM824.352 108.738V117H821.539V106.434H824.186L824.352 108.738ZM827.535 106.365L827.486 108.973C827.35 108.953 827.184 108.937 826.988 108.924C826.799 108.904 826.627 108.895 826.471 108.895C826.074 108.895 825.729 108.947 825.436 109.051C825.149 109.148 824.908 109.295 824.713 109.49C824.524 109.686 824.381 109.923 824.283 110.203C824.192 110.483 824.14 110.802 824.127 111.16L823.561 110.984C823.561 110.301 823.629 109.673 823.766 109.1C823.902 108.52 824.101 108.016 824.361 107.586C824.628 107.156 824.954 106.824 825.338 106.59C825.722 106.355 826.161 106.238 826.656 106.238C826.812 106.238 826.972 106.251 827.135 106.277C827.298 106.297 827.431 106.326 827.535 106.365ZM834.234 114.617V109.91C834.234 109.572 834.179 109.282 834.068 109.041C833.958 108.794 833.785 108.602 833.551 108.465C833.323 108.328 833.027 108.26 832.662 108.26C832.35 108.26 832.079 108.315 831.852 108.426C831.624 108.53 831.448 108.683 831.324 108.885C831.201 109.08 831.139 109.311 831.139 109.578H828.326C828.326 109.129 828.43 108.702 828.639 108.299C828.847 107.895 829.15 107.54 829.547 107.234C829.944 106.922 830.416 106.678 830.963 106.502C831.516 106.326 832.135 106.238 832.818 106.238C833.639 106.238 834.368 106.375 835.006 106.648C835.644 106.922 836.145 107.332 836.51 107.879C836.881 108.426 837.066 109.109 837.066 109.93V114.451C837.066 115.031 837.102 115.506 837.174 115.877C837.245 116.242 837.35 116.561 837.486 116.834V117H834.645C834.508 116.714 834.404 116.355 834.332 115.926C834.267 115.49 834.234 115.053 834.234 114.617ZM834.605 110.564L834.625 112.156H833.053C832.682 112.156 832.359 112.199 832.086 112.283C831.812 112.368 831.588 112.488 831.412 112.645C831.236 112.794 831.106 112.97 831.021 113.172C830.943 113.374 830.904 113.595 830.904 113.836C830.904 114.077 830.96 114.295 831.07 114.49C831.181 114.679 831.34 114.829 831.549 114.939C831.757 115.044 832.001 115.096 832.281 115.096C832.704 115.096 833.072 115.011 833.385 114.842C833.697 114.673 833.938 114.464 834.107 114.217C834.283 113.969 834.374 113.735 834.381 113.514L835.123 114.705C835.019 114.972 834.876 115.249 834.693 115.535C834.518 115.822 834.293 116.092 834.02 116.346C833.746 116.593 833.417 116.798 833.033 116.961C832.649 117.117 832.193 117.195 831.666 117.195C830.995 117.195 830.387 117.062 829.84 116.795C829.299 116.521 828.87 116.147 828.551 115.672C828.238 115.19 828.082 114.643 828.082 114.031C828.082 113.478 828.186 112.986 828.395 112.557C828.603 112.127 828.909 111.766 829.312 111.473C829.723 111.173 830.234 110.949 830.846 110.799C831.458 110.643 832.167 110.564 832.975 110.564H834.605ZM844.41 106.434V108.426H838.258V106.434H844.41ZM839.781 103.826H842.594V113.816C842.594 114.122 842.633 114.357 842.711 114.52C842.796 114.682 842.919 114.796 843.082 114.861C843.245 114.92 843.45 114.949 843.697 114.949C843.873 114.949 844.029 114.943 844.166 114.93C844.309 114.91 844.43 114.891 844.527 114.871L844.537 116.941C844.296 117.02 844.036 117.081 843.756 117.127C843.476 117.173 843.167 117.195 842.828 117.195C842.21 117.195 841.669 117.094 841.207 116.893C840.751 116.684 840.4 116.352 840.152 115.896C839.905 115.441 839.781 114.842 839.781 114.1V103.826ZM848.98 106.434V117H846.158V106.434H848.98ZM845.982 103.68C845.982 103.27 846.126 102.931 846.412 102.664C846.699 102.397 847.083 102.264 847.564 102.264C848.04 102.264 848.421 102.397 848.707 102.664C849 102.931 849.146 103.27 849.146 103.68C849.146 104.09 849 104.428 848.707 104.695C848.421 104.962 848.04 105.096 847.564 105.096C847.083 105.096 846.699 104.962 846.412 104.695C846.126 104.428 845.982 104.09 845.982 103.68ZM850.855 111.824V111.619C850.855 110.844 850.966 110.132 851.188 109.48C851.409 108.823 851.731 108.253 852.154 107.771C852.577 107.29 853.098 106.915 853.717 106.648C854.335 106.375 855.045 106.238 855.846 106.238C856.646 106.238 857.359 106.375 857.984 106.648C858.609 106.915 859.133 107.29 859.557 107.771C859.986 108.253 860.312 108.823 860.533 109.48C860.755 110.132 860.865 110.844 860.865 111.619V111.824C860.865 112.592 860.755 113.305 860.533 113.963C860.312 114.614 859.986 115.184 859.557 115.672C859.133 116.154 858.613 116.528 857.994 116.795C857.376 117.062 856.666 117.195 855.865 117.195C855.064 117.195 854.352 117.062 853.727 116.795C853.108 116.528 852.584 116.154 852.154 115.672C851.731 115.184 851.409 114.614 851.188 113.963C850.966 113.305 850.855 112.592 850.855 111.824ZM853.668 111.619V111.824C853.668 112.267 853.707 112.68 853.785 113.064C853.863 113.449 853.987 113.787 854.156 114.08C854.332 114.367 854.56 114.591 854.84 114.754C855.12 114.917 855.462 114.998 855.865 114.998C856.256 114.998 856.591 114.917 856.871 114.754C857.151 114.591 857.376 114.367 857.545 114.08C857.714 113.787 857.838 113.449 857.916 113.064C858.001 112.68 858.043 112.267 858.043 111.824V111.619C858.043 111.189 858.001 110.786 857.916 110.408C857.838 110.024 857.711 109.686 857.535 109.393C857.366 109.093 857.141 108.859 856.861 108.689C856.581 108.52 856.243 108.436 855.846 108.436C855.449 108.436 855.11 108.52 854.83 108.689C854.557 108.859 854.332 109.093 854.156 109.393C853.987 109.686 853.863 110.024 853.785 110.408C853.707 110.786 853.668 111.189 853.668 111.619ZM865.348 108.689V117H862.535V106.434H865.172L865.348 108.689ZM864.938 111.346H864.176C864.176 110.564 864.277 109.861 864.479 109.236C864.68 108.605 864.964 108.068 865.328 107.625C865.693 107.176 866.126 106.834 866.627 106.6C867.135 106.359 867.701 106.238 868.326 106.238C868.821 106.238 869.273 106.31 869.684 106.453C870.094 106.596 870.445 106.824 870.738 107.137C871.038 107.449 871.266 107.863 871.422 108.377C871.585 108.891 871.666 109.52 871.666 110.262V117H868.834V110.252C868.834 109.783 868.769 109.419 868.639 109.158C868.508 108.898 868.316 108.715 868.062 108.611C867.815 108.501 867.509 108.445 867.145 108.445C866.767 108.445 866.438 108.52 866.158 108.67C865.885 108.82 865.657 109.028 865.475 109.295C865.299 109.555 865.165 109.861 865.074 110.213C864.983 110.564 864.938 110.942 864.938 111.346ZM881.373 102.781L884.049 107.742L886.725 102.781H890.074L885.943 109.832L890.182 117H886.803L884.049 111.941L881.295 117H877.896L882.145 109.832L878.004 102.781H881.373Z" fill="#222222"/>
<path d="M764.223 139.337L759.986 151H758.255L763.133 138.203H764.249L764.223 139.337ZM767.773 151L763.528 139.337L763.502 138.203H764.618L769.514 151H767.773ZM767.554 146.263V147.651H760.364V146.263H767.554ZM777.143 141.49H778.619V150.798C778.619 151.636 778.449 152.351 778.109 152.942C777.77 153.534 777.295 153.982 776.686 154.287C776.082 154.598 775.385 154.753 774.594 154.753C774.266 154.753 773.879 154.7 773.434 154.595C772.994 154.495 772.561 154.322 772.133 154.076C771.711 153.836 771.356 153.511 771.069 153.101L771.922 152.134C772.32 152.614 772.736 152.948 773.17 153.136C773.609 153.323 774.043 153.417 774.471 153.417C774.986 153.417 775.432 153.32 775.807 153.127C776.182 152.934 776.472 152.646 776.677 152.266C776.888 151.891 776.993 151.428 776.993 150.877V143.582L777.143 141.49ZM770.595 146.351V146.166C770.595 145.439 770.68 144.78 770.85 144.188C771.025 143.591 771.274 143.078 771.597 142.65C771.925 142.223 772.32 141.895 772.783 141.666C773.246 141.432 773.768 141.314 774.348 141.314C774.945 141.314 775.467 141.42 775.912 141.631C776.363 141.836 776.744 142.138 777.055 142.536C777.371 142.929 777.62 143.403 777.802 143.96C777.983 144.517 778.109 145.146 778.18 145.85V146.658C778.115 147.355 777.989 147.982 777.802 148.539C777.62 149.096 777.371 149.57 777.055 149.963C776.744 150.355 776.363 150.657 775.912 150.868C775.461 151.073 774.934 151.176 774.33 151.176C773.762 151.176 773.246 151.056 772.783 150.815C772.326 150.575 771.934 150.238 771.605 149.805C771.277 149.371 771.025 148.861 770.85 148.275C770.68 147.684 770.595 147.042 770.595 146.351ZM772.221 146.166V146.351C772.221 146.825 772.268 147.271 772.361 147.687C772.461 148.103 772.61 148.469 772.81 148.785C773.015 149.102 773.275 149.351 773.592 149.532C773.908 149.708 774.286 149.796 774.726 149.796C775.265 149.796 775.71 149.682 776.062 149.453C776.413 149.225 776.691 148.923 776.896 148.548C777.107 148.173 777.271 147.766 777.389 147.326V145.208C777.324 144.886 777.225 144.575 777.09 144.276C776.961 143.972 776.791 143.702 776.58 143.468C776.375 143.228 776.12 143.037 775.815 142.896C775.511 142.756 775.153 142.686 774.743 142.686C774.298 142.686 773.914 142.779 773.592 142.967C773.275 143.148 773.015 143.4 772.81 143.723C772.61 144.039 772.461 144.408 772.361 144.83C772.268 145.246 772.221 145.691 772.221 146.166ZM785.035 151.176C784.373 151.176 783.772 151.064 783.233 150.842C782.7 150.613 782.24 150.294 781.854 149.884C781.473 149.474 781.18 148.987 780.975 148.425C780.77 147.862 780.667 147.247 780.667 146.579V146.21C780.667 145.437 780.781 144.748 781.01 144.145C781.238 143.535 781.549 143.02 781.941 142.598C782.334 142.176 782.779 141.856 783.277 141.64C783.775 141.423 784.291 141.314 784.824 141.314C785.504 141.314 786.09 141.432 786.582 141.666C787.08 141.9 787.487 142.229 787.804 142.65C788.12 143.066 788.354 143.559 788.507 144.127C788.659 144.689 788.735 145.305 788.735 145.973V146.702H781.634V145.375H787.109V145.252C787.086 144.83 786.998 144.42 786.846 144.021C786.699 143.623 786.465 143.295 786.143 143.037C785.82 142.779 785.381 142.65 784.824 142.65C784.455 142.65 784.115 142.729 783.805 142.888C783.494 143.04 783.228 143.269 783.005 143.573C782.782 143.878 782.609 144.25 782.486 144.689C782.363 145.129 782.302 145.636 782.302 146.21V146.579C782.302 147.03 782.363 147.455 782.486 147.854C782.615 148.246 782.8 148.592 783.04 148.891C783.286 149.189 783.582 149.424 783.928 149.594C784.279 149.764 784.678 149.849 785.123 149.849C785.697 149.849 786.184 149.731 786.582 149.497C786.98 149.263 787.329 148.949 787.628 148.557L788.612 149.339C788.407 149.649 788.146 149.945 787.83 150.227C787.514 150.508 787.124 150.736 786.661 150.912C786.204 151.088 785.662 151.176 785.035 151.176ZM804.802 144.628V149.312C804.644 149.547 804.392 149.811 804.046 150.104C803.7 150.391 803.223 150.643 802.613 150.859C802.01 151.07 801.23 151.176 800.275 151.176C799.496 151.176 798.778 151.041 798.122 150.771C797.472 150.496 796.906 150.098 796.426 149.576C795.951 149.049 795.582 148.41 795.318 147.66C795.061 146.904 794.932 146.049 794.932 145.094V144.101C794.932 143.146 795.043 142.293 795.266 141.543C795.494 140.793 795.828 140.157 796.268 139.636C796.707 139.108 797.246 138.71 797.885 138.44C798.523 138.165 799.256 138.027 800.082 138.027C801.061 138.027 801.878 138.197 802.534 138.537C803.196 138.871 803.712 139.334 804.081 139.926C804.456 140.518 804.696 141.191 804.802 141.947H803.105C803.029 141.484 802.877 141.062 802.648 140.682C802.426 140.301 802.106 139.996 801.69 139.768C801.274 139.533 800.738 139.416 800.082 139.416C799.49 139.416 798.978 139.524 798.544 139.741C798.11 139.958 797.753 140.269 797.472 140.673C797.19 141.077 796.979 141.566 796.839 142.141C796.704 142.715 796.637 143.362 796.637 144.083V145.094C796.637 145.832 796.722 146.491 796.892 147.071C797.067 147.651 797.316 148.146 797.639 148.557C797.961 148.961 798.345 149.269 798.79 149.479C799.241 149.69 799.739 149.796 800.284 149.796C800.888 149.796 801.377 149.746 801.752 149.646C802.127 149.541 802.42 149.418 802.631 149.277C802.842 149.131 803.003 148.993 803.114 148.864V145.999H800.152V144.628H804.802ZM808.994 142.984V151H807.368V141.49H808.95L808.994 142.984ZM811.965 141.438L811.956 142.949C811.821 142.92 811.692 142.902 811.569 142.896C811.452 142.885 811.317 142.879 811.165 142.879C810.79 142.879 810.459 142.938 810.172 143.055C809.885 143.172 809.642 143.336 809.442 143.547C809.243 143.758 809.085 144.01 808.968 144.303C808.856 144.59 808.783 144.906 808.748 145.252L808.291 145.516C808.291 144.941 808.347 144.402 808.458 143.898C808.575 143.395 808.754 142.949 808.994 142.562C809.234 142.17 809.539 141.865 809.908 141.648C810.283 141.426 810.729 141.314 811.244 141.314C811.361 141.314 811.496 141.329 811.648 141.358C811.801 141.382 811.906 141.408 811.965 141.438ZM812.861 146.351V146.148C812.861 145.463 812.961 144.827 813.16 144.241C813.359 143.649 813.646 143.137 814.021 142.703C814.396 142.264 814.851 141.924 815.384 141.684C815.917 141.438 816.515 141.314 817.177 141.314C817.845 141.314 818.445 141.438 818.979 141.684C819.518 141.924 819.975 142.264 820.35 142.703C820.73 143.137 821.021 143.649 821.22 144.241C821.419 144.827 821.519 145.463 821.519 146.148V146.351C821.519 147.036 821.419 147.672 821.22 148.258C821.021 148.844 820.73 149.356 820.35 149.796C819.975 150.229 819.521 150.569 818.987 150.815C818.46 151.056 817.862 151.176 817.194 151.176C816.526 151.176 815.926 151.056 815.393 150.815C814.859 150.569 814.402 150.229 814.021 149.796C813.646 149.356 813.359 148.844 813.16 148.258C812.961 147.672 812.861 147.036 812.861 146.351ZM814.487 146.148V146.351C814.487 146.825 814.543 147.273 814.654 147.695C814.766 148.111 814.933 148.48 815.155 148.803C815.384 149.125 815.668 149.38 816.008 149.567C816.348 149.749 816.743 149.84 817.194 149.84C817.64 149.84 818.029 149.749 818.363 149.567C818.703 149.38 818.984 149.125 819.207 148.803C819.43 148.48 819.597 148.111 819.708 147.695C819.825 147.273 819.884 146.825 819.884 146.351V146.148C819.884 145.68 819.825 145.237 819.708 144.821C819.597 144.399 819.427 144.027 819.198 143.705C818.976 143.377 818.694 143.119 818.354 142.932C818.021 142.744 817.628 142.65 817.177 142.65C816.731 142.65 816.339 142.744 815.999 142.932C815.665 143.119 815.384 143.377 815.155 143.705C814.933 144.027 814.766 144.399 814.654 144.821C814.543 145.237 814.487 145.68 814.487 146.148ZM829.376 148.803V141.49H831.011V151H829.455L829.376 148.803ZM829.684 146.799L830.36 146.781C830.36 147.414 830.293 148 830.158 148.539C830.029 149.072 829.818 149.535 829.525 149.928C829.232 150.32 828.849 150.628 828.374 150.851C827.899 151.067 827.322 151.176 826.643 151.176C826.18 151.176 825.755 151.108 825.368 150.974C824.987 150.839 824.659 150.631 824.384 150.35C824.108 150.068 823.895 149.702 823.742 149.251C823.596 148.8 823.522 148.258 823.522 147.625V141.49H825.148V147.643C825.148 148.07 825.195 148.425 825.289 148.706C825.389 148.981 825.521 149.201 825.685 149.365C825.854 149.523 826.042 149.635 826.247 149.699C826.458 149.764 826.675 149.796 826.897 149.796C827.589 149.796 828.137 149.664 828.541 149.4C828.945 149.131 829.235 148.771 829.411 148.319C829.593 147.862 829.684 147.355 829.684 146.799ZM835.115 143.318V154.656H833.48V141.49H834.975L835.115 143.318ZM841.522 146.166V146.351C841.522 147.042 841.44 147.684 841.276 148.275C841.112 148.861 840.872 149.371 840.556 149.805C840.245 150.238 839.861 150.575 839.404 150.815C838.947 151.056 838.423 151.176 837.831 151.176C837.228 151.176 836.694 151.076 836.231 150.877C835.769 150.678 835.376 150.388 835.054 150.007C834.731 149.626 834.474 149.169 834.28 148.636C834.093 148.103 833.964 147.502 833.894 146.834V145.85C833.964 145.146 834.096 144.517 834.289 143.96C834.482 143.403 834.737 142.929 835.054 142.536C835.376 142.138 835.766 141.836 836.223 141.631C836.68 141.42 837.207 141.314 837.805 141.314C838.402 141.314 838.933 141.432 839.396 141.666C839.858 141.895 840.248 142.223 840.564 142.65C840.881 143.078 841.118 143.591 841.276 144.188C841.44 144.78 841.522 145.439 841.522 146.166ZM839.888 146.351V146.166C839.888 145.691 839.838 145.246 839.738 144.83C839.639 144.408 839.483 144.039 839.272 143.723C839.067 143.4 838.804 143.148 838.481 142.967C838.159 142.779 837.775 142.686 837.33 142.686C836.92 142.686 836.562 142.756 836.258 142.896C835.959 143.037 835.704 143.228 835.493 143.468C835.282 143.702 835.109 143.972 834.975 144.276C834.846 144.575 834.749 144.886 834.685 145.208V147.484C834.802 147.895 834.966 148.281 835.177 148.645C835.388 149.002 835.669 149.292 836.021 149.515C836.372 149.731 836.814 149.84 837.348 149.84C837.787 149.84 838.165 149.749 838.481 149.567C838.804 149.38 839.067 149.125 839.272 148.803C839.483 148.48 839.639 148.111 839.738 147.695C839.838 147.273 839.888 146.825 839.888 146.351ZM847.991 150.139C847.991 149.863 848.076 149.632 848.246 149.444C848.422 149.251 848.674 149.154 849.002 149.154C849.33 149.154 849.579 149.251 849.749 149.444C849.925 149.632 850.013 149.863 850.013 150.139C850.013 150.408 849.925 150.637 849.749 150.824C849.579 151.012 849.33 151.105 849.002 151.105C848.674 151.105 848.422 151.012 848.246 150.824C848.076 150.637 847.991 150.408 847.991 150.139ZM848 142.378C848 142.103 848.085 141.871 848.255 141.684C848.431 141.49 848.683 141.394 849.011 141.394C849.339 141.394 849.588 141.49 849.758 141.684C849.934 141.871 850.021 142.103 850.021 142.378C850.021 142.647 849.934 142.876 849.758 143.063C849.588 143.251 849.339 143.345 849.011 143.345C848.683 143.345 848.431 143.251 848.255 143.063C848.085 142.876 848 142.647 848 142.378ZM865.358 146.693V148.029H856.112V147.071L861.843 138.203H863.17L861.746 140.77L857.958 146.693H865.358ZM863.574 138.203V151H861.948V138.203H863.574ZM874.868 143.582V145.533C874.868 146.582 874.774 147.467 874.587 148.188C874.399 148.908 874.13 149.488 873.778 149.928C873.427 150.367 873.002 150.687 872.504 150.886C872.012 151.079 871.455 151.176 870.834 151.176C870.342 151.176 869.888 151.114 869.472 150.991C869.056 150.868 868.681 150.672 868.347 150.402C868.019 150.127 867.737 149.77 867.503 149.33C867.269 148.891 867.09 148.357 866.967 147.73C866.844 147.104 866.782 146.371 866.782 145.533V143.582C866.782 142.533 866.876 141.654 867.063 140.945C867.257 140.236 867.529 139.668 867.881 139.24C868.232 138.807 868.654 138.496 869.146 138.309C869.645 138.121 870.201 138.027 870.816 138.027C871.314 138.027 871.771 138.089 872.188 138.212C872.609 138.329 872.984 138.52 873.312 138.783C873.641 139.041 873.919 139.387 874.147 139.82C874.382 140.248 874.561 140.772 874.684 141.394C874.807 142.015 874.868 142.744 874.868 143.582ZM873.233 145.797V143.31C873.233 142.735 873.198 142.231 873.128 141.798C873.063 141.358 872.967 140.983 872.838 140.673C872.709 140.362 872.545 140.11 872.346 139.917C872.152 139.724 871.927 139.583 871.669 139.495C871.417 139.401 871.133 139.354 870.816 139.354C870.43 139.354 870.087 139.428 869.788 139.574C869.489 139.715 869.237 139.94 869.032 140.251C868.833 140.562 868.681 140.969 868.575 141.473C868.47 141.977 868.417 142.589 868.417 143.31V145.797C868.417 146.371 868.449 146.878 868.514 147.317C868.584 147.757 868.687 148.138 868.821 148.46C868.956 148.776 869.12 149.037 869.313 149.242C869.507 149.447 869.729 149.6 869.981 149.699C870.239 149.793 870.523 149.84 870.834 149.84C871.232 149.84 871.581 149.764 871.88 149.611C872.179 149.459 872.428 149.222 872.627 148.899C872.832 148.571 872.984 148.152 873.084 147.643C873.184 147.127 873.233 146.512 873.233 145.797ZM884.984 144.892V146.228H880.695V144.892H884.984ZM888.456 144.909L887.155 144.575L887.797 138.203H894.362V139.706H889.177L888.79 143.187C889.024 143.052 889.32 142.926 889.678 142.809C890.041 142.691 890.457 142.633 890.926 142.633C891.518 142.633 892.048 142.735 892.517 142.94C892.985 143.14 893.384 143.427 893.712 143.802C894.046 144.177 894.301 144.628 894.477 145.155C894.652 145.683 894.74 146.271 894.74 146.922C894.74 147.537 894.655 148.103 894.485 148.618C894.321 149.134 894.072 149.585 893.738 149.972C893.404 150.353 892.982 150.648 892.473 150.859C891.969 151.07 891.374 151.176 890.688 151.176C890.173 151.176 889.684 151.105 889.221 150.965C888.764 150.818 888.354 150.599 887.99 150.306C887.633 150.007 887.34 149.638 887.111 149.198C886.889 148.753 886.748 148.231 886.689 147.634H888.236C888.307 148.114 888.447 148.519 888.658 148.847C888.869 149.175 889.145 149.424 889.484 149.594C889.83 149.758 890.231 149.84 890.688 149.84C891.075 149.84 891.418 149.772 891.717 149.638C892.016 149.503 892.268 149.31 892.473 149.058C892.678 148.806 892.833 148.501 892.938 148.144C893.05 147.786 893.105 147.385 893.105 146.939C893.105 146.535 893.05 146.16 892.938 145.814C892.827 145.469 892.66 145.167 892.438 144.909C892.221 144.651 891.954 144.452 891.638 144.312C891.321 144.165 890.958 144.092 890.548 144.092C890.003 144.092 889.59 144.165 889.309 144.312C889.033 144.458 888.749 144.657 888.456 144.909ZM898.581 144.909L897.28 144.575L897.922 138.203H904.487V139.706H899.302L898.915 143.187C899.149 143.052 899.445 142.926 899.803 142.809C900.166 142.691 900.582 142.633 901.051 142.633C901.643 142.633 902.173 142.735 902.642 142.94C903.11 143.14 903.509 143.427 903.837 143.802C904.171 144.177 904.426 144.628 904.602 145.155C904.777 145.683 904.865 146.271 904.865 146.922C904.865 147.537 904.78 148.103 904.61 148.618C904.446 149.134 904.197 149.585 903.863 149.972C903.529 150.353 903.107 150.648 902.598 150.859C902.094 151.07 901.499 151.176 900.813 151.176C900.298 151.176 899.809 151.105 899.346 150.965C898.889 150.818 898.479 150.599 898.115 150.306C897.758 150.007 897.465 149.638 897.236 149.198C897.014 148.753 896.873 148.231 896.814 147.634H898.361C898.432 148.114 898.572 148.519 898.783 148.847C898.994 149.175 899.27 149.424 899.609 149.594C899.955 149.758 900.356 149.84 900.813 149.84C901.2 149.84 901.543 149.772 901.842 149.638C902.141 149.503 902.393 149.31 902.598 149.058C902.803 148.806 902.958 148.501 903.063 148.144C903.175 147.786 903.23 147.385 903.23 146.939C903.23 146.535 903.175 146.16 903.063 145.814C902.952 145.469 902.785 145.167 902.562 144.909C902.346 144.651 902.079 144.452 901.763 144.312C901.446 144.165 901.083 144.092 900.673 144.092C900.128 144.092 899.715 144.165 899.434 144.312C899.158 144.458 898.874 144.657 898.581 144.909Z" fill="#222222"/>
<path d="M949.672 113.279C949.672 113.025 949.633 112.798 949.555 112.596C949.483 112.387 949.346 112.199 949.145 112.029C948.943 111.854 948.66 111.681 948.295 111.512C947.93 111.342 947.458 111.167 946.879 110.984C946.234 110.776 945.622 110.542 945.043 110.281C944.47 110.021 943.962 109.718 943.52 109.373C943.083 109.021 942.738 108.615 942.484 108.152C942.237 107.69 942.113 107.153 942.113 106.541C942.113 105.949 942.243 105.411 942.504 104.93C942.764 104.441 943.129 104.025 943.598 103.68C944.066 103.328 944.62 103.058 945.258 102.869C945.902 102.68 946.609 102.586 947.377 102.586C948.425 102.586 949.34 102.775 950.121 103.152C950.902 103.53 951.508 104.048 951.938 104.705C952.374 105.363 952.592 106.115 952.592 106.961H949.682C949.682 106.544 949.594 106.18 949.418 105.867C949.249 105.548 948.988 105.298 948.637 105.115C948.292 104.933 947.855 104.842 947.328 104.842C946.82 104.842 946.397 104.92 946.059 105.076C945.72 105.226 945.466 105.431 945.297 105.691C945.128 105.945 945.043 106.232 945.043 106.551C945.043 106.792 945.102 107.01 945.219 107.205C945.342 107.4 945.525 107.583 945.766 107.752C946.007 107.921 946.303 108.081 946.654 108.23C947.006 108.38 947.413 108.527 947.875 108.67C948.65 108.904 949.33 109.168 949.916 109.461C950.508 109.754 951.003 110.083 951.4 110.447C951.798 110.812 952.097 111.225 952.299 111.688C952.501 112.15 952.602 112.674 952.602 113.26C952.602 113.878 952.481 114.432 952.24 114.92C951.999 115.408 951.651 115.822 951.195 116.16C950.74 116.499 950.196 116.756 949.564 116.932C948.933 117.107 948.227 117.195 947.445 117.195C946.742 117.195 946.049 117.104 945.365 116.922C944.682 116.733 944.06 116.45 943.5 116.072C942.947 115.695 942.504 115.213 942.172 114.627C941.84 114.041 941.674 113.348 941.674 112.547H944.613C944.613 112.99 944.682 113.364 944.818 113.67C944.955 113.976 945.147 114.223 945.395 114.412C945.648 114.601 945.948 114.738 946.293 114.822C946.645 114.907 947.029 114.949 947.445 114.949C947.953 114.949 948.37 114.878 948.695 114.734C949.027 114.591 949.271 114.393 949.428 114.139C949.59 113.885 949.672 113.598 949.672 113.279ZM959.281 117.195C958.461 117.195 957.725 117.065 957.074 116.805C956.423 116.538 955.87 116.17 955.414 115.701C954.965 115.232 954.62 114.689 954.379 114.07C954.138 113.445 954.018 112.781 954.018 112.078V111.688C954.018 110.887 954.132 110.154 954.359 109.49C954.587 108.826 954.913 108.25 955.336 107.762C955.766 107.273 956.286 106.899 956.898 106.639C957.51 106.372 958.201 106.238 958.969 106.238C959.717 106.238 960.382 106.362 960.961 106.609C961.54 106.857 962.025 107.208 962.416 107.664C962.813 108.12 963.113 108.667 963.314 109.305C963.516 109.936 963.617 110.639 963.617 111.414V112.586H955.219V110.711H960.854V110.496C960.854 110.105 960.782 109.757 960.639 109.451C960.502 109.139 960.294 108.891 960.014 108.709C959.734 108.527 959.376 108.436 958.939 108.436C958.568 108.436 958.249 108.517 957.982 108.68C957.715 108.842 957.497 109.07 957.328 109.363C957.165 109.656 957.042 110.001 956.957 110.398C956.879 110.789 956.84 111.219 956.84 111.688V112.078C956.84 112.501 956.898 112.892 957.016 113.25C957.139 113.608 957.312 113.917 957.533 114.178C957.761 114.438 958.035 114.64 958.354 114.783C958.679 114.926 959.047 114.998 959.457 114.998C959.965 114.998 960.437 114.9 960.873 114.705C961.316 114.503 961.697 114.201 962.016 113.797L963.383 115.281C963.161 115.6 962.859 115.906 962.475 116.199C962.097 116.492 961.641 116.733 961.107 116.922C960.574 117.104 959.965 117.195 959.281 117.195ZM967.973 108.689V117H965.16V106.434H967.797L967.973 108.689ZM967.562 111.346H966.801C966.801 110.564 966.902 109.861 967.104 109.236C967.305 108.605 967.589 108.068 967.953 107.625C968.318 107.176 968.751 106.834 969.252 106.6C969.76 106.359 970.326 106.238 970.951 106.238C971.446 106.238 971.898 106.31 972.309 106.453C972.719 106.596 973.07 106.824 973.363 107.137C973.663 107.449 973.891 107.863 974.047 108.377C974.21 108.891 974.291 109.52 974.291 110.262V117H971.459V110.252C971.459 109.783 971.394 109.419 971.264 109.158C971.133 108.898 970.941 108.715 970.688 108.611C970.44 108.501 970.134 108.445 969.77 108.445C969.392 108.445 969.063 108.52 968.783 108.67C968.51 108.82 968.282 109.028 968.1 109.295C967.924 109.555 967.79 109.861 967.699 110.213C967.608 110.564 967.562 110.942 967.562 111.346ZM979.398 106.434V117H976.576V106.434H979.398ZM976.4 103.68C976.4 103.27 976.544 102.931 976.83 102.664C977.117 102.397 977.501 102.264 977.982 102.264C978.458 102.264 978.839 102.397 979.125 102.664C979.418 102.931 979.564 103.27 979.564 103.68C979.564 104.09 979.418 104.428 979.125 104.695C978.839 104.962 978.458 105.096 977.982 105.096C977.501 105.096 977.117 104.962 976.83 104.695C976.544 104.428 976.4 104.09 976.4 103.68ZM981.273 111.824V111.619C981.273 110.844 981.384 110.132 981.605 109.48C981.827 108.823 982.149 108.253 982.572 107.771C982.995 107.29 983.516 106.915 984.135 106.648C984.753 106.375 985.463 106.238 986.264 106.238C987.064 106.238 987.777 106.375 988.402 106.648C989.027 106.915 989.551 107.29 989.975 107.771C990.404 108.253 990.73 108.823 990.951 109.48C991.173 110.132 991.283 110.844 991.283 111.619V111.824C991.283 112.592 991.173 113.305 990.951 113.963C990.73 114.614 990.404 115.184 989.975 115.672C989.551 116.154 989.031 116.528 988.412 116.795C987.794 117.062 987.084 117.195 986.283 117.195C985.482 117.195 984.77 117.062 984.145 116.795C983.526 116.528 983.002 116.154 982.572 115.672C982.149 115.184 981.827 114.614 981.605 113.963C981.384 113.305 981.273 112.592 981.273 111.824ZM984.086 111.619V111.824C984.086 112.267 984.125 112.68 984.203 113.064C984.281 113.449 984.405 113.787 984.574 114.08C984.75 114.367 984.978 114.591 985.258 114.754C985.538 114.917 985.88 114.998 986.283 114.998C986.674 114.998 987.009 114.917 987.289 114.754C987.569 114.591 987.794 114.367 987.963 114.08C988.132 113.787 988.256 113.449 988.334 113.064C988.419 112.68 988.461 112.267 988.461 111.824V111.619C988.461 111.189 988.419 110.786 988.334 110.408C988.256 110.024 988.129 109.686 987.953 109.393C987.784 109.093 987.559 108.859 987.279 108.689C986.999 108.52 986.661 108.436 986.264 108.436C985.867 108.436 985.528 108.52 985.248 108.689C984.975 108.859 984.75 109.093 984.574 109.393C984.405 109.686 984.281 110.024 984.203 110.408C984.125 110.786 984.086 111.189 984.086 111.619ZM995.824 108.738V117H993.012V106.434H995.658L995.824 108.738ZM999.008 106.365L998.959 108.973C998.822 108.953 998.656 108.937 998.461 108.924C998.272 108.904 998.1 108.895 997.943 108.895C997.546 108.895 997.201 108.947 996.908 109.051C996.622 109.148 996.381 109.295 996.186 109.49C995.997 109.686 995.854 109.923 995.756 110.203C995.665 110.483 995.613 110.802 995.6 111.16L995.033 110.984C995.033 110.301 995.102 109.673 995.238 109.1C995.375 108.52 995.574 108.016 995.834 107.586C996.101 107.156 996.426 106.824 996.811 106.59C997.195 106.355 997.634 106.238 998.129 106.238C998.285 106.238 998.445 106.251 998.607 106.277C998.77 106.297 998.904 106.326 999.008 106.365ZM1013.73 112.283H1016.65C1016.6 113.24 1016.33 114.09 1015.86 114.832C1015.4 115.574 1014.75 116.154 1013.92 116.57C1013.09 116.987 1012.1 117.195 1010.93 117.195C1010.02 117.195 1009.2 117.039 1008.48 116.727C1007.76 116.408 1007.14 115.952 1006.62 115.359C1006.12 114.767 1005.73 114.051 1005.46 113.211C1005.2 112.371 1005.06 111.43 1005.06 110.389V109.402C1005.06 108.361 1005.2 107.42 1005.47 106.58C1005.75 105.734 1006.15 105.014 1006.66 104.422C1007.18 103.829 1007.81 103.374 1008.53 103.055C1009.25 102.736 1010.06 102.576 1010.95 102.576C1012.14 102.576 1013.14 102.791 1013.95 103.221C1014.77 103.65 1015.4 104.243 1015.85 104.998C1016.31 105.753 1016.58 106.613 1016.67 107.576H1013.74C1013.71 107.003 1013.6 106.518 1013.4 106.121C1013.21 105.717 1012.91 105.415 1012.51 105.213C1012.12 105.005 1011.6 104.9 1010.95 104.9C1010.46 104.9 1010.04 104.992 1009.67 105.174C1009.31 105.356 1009 105.633 1008.75 106.004C1008.51 106.375 1008.32 106.844 1008.2 107.41C1008.08 107.97 1008.02 108.628 1008.02 109.383V110.389C1008.02 111.124 1008.08 111.772 1008.19 112.332C1008.3 112.885 1008.47 113.354 1008.7 113.738C1008.93 114.116 1009.23 114.402 1009.59 114.598C1009.96 114.786 1010.41 114.881 1010.93 114.881C1011.54 114.881 1012.05 114.783 1012.45 114.588C1012.84 114.393 1013.15 114.103 1013.35 113.719C1013.57 113.335 1013.7 112.856 1013.73 112.283ZM1021.37 106.434V117H1018.55V106.434H1021.37ZM1018.37 103.68C1018.37 103.27 1018.52 102.931 1018.8 102.664C1019.09 102.397 1019.47 102.264 1019.96 102.264C1020.43 102.264 1020.81 102.397 1021.1 102.664C1021.39 102.931 1021.54 103.27 1021.54 103.68C1021.54 104.09 1021.39 104.428 1021.1 104.695C1020.81 104.962 1020.43 105.096 1019.96 105.096C1019.47 105.096 1019.09 104.962 1018.8 104.695C1018.52 104.428 1018.37 104.09 1018.37 103.68ZM1028.87 106.434V108.426H1022.72V106.434H1028.87ZM1024.24 103.826H1027.05V113.816C1027.05 114.122 1027.09 114.357 1027.17 114.52C1027.26 114.682 1027.38 114.796 1027.54 114.861C1027.71 114.92 1027.91 114.949 1028.16 114.949C1028.33 114.949 1028.49 114.943 1028.63 114.93C1028.77 114.91 1028.89 114.891 1028.99 114.871L1029 116.941C1028.76 117.02 1028.5 117.081 1028.22 117.127C1027.94 117.173 1027.63 117.195 1027.29 117.195C1026.67 117.195 1026.13 117.094 1025.67 116.893C1025.21 116.684 1024.86 116.352 1024.61 115.896C1024.37 115.441 1024.24 114.842 1024.24 114.1V103.826ZM1033.44 106.434V117H1030.62V106.434H1033.44ZM1030.44 103.68C1030.44 103.27 1030.59 102.931 1030.87 102.664C1031.16 102.397 1031.54 102.264 1032.03 102.264C1032.5 102.264 1032.88 102.397 1033.17 102.664C1033.46 102.931 1033.61 103.27 1033.61 103.68C1033.61 104.09 1033.46 104.428 1033.17 104.695C1032.88 104.962 1032.5 105.096 1032.03 105.096C1031.54 105.096 1031.16 104.962 1030.87 104.695C1030.59 104.428 1030.44 104.09 1030.44 103.68ZM1044.17 114.803V117H1036.15V114.803H1044.17ZM1044.02 108.055L1037.28 117H1035.39V115.33L1042.1 106.434H1044.02V108.055ZM1043.02 106.434V108.641H1035.55V106.434H1043.02ZM1050.65 117.195C1049.83 117.195 1049.09 117.065 1048.44 116.805C1047.79 116.538 1047.24 116.17 1046.78 115.701C1046.33 115.232 1045.99 114.689 1045.75 114.07C1045.51 113.445 1045.38 112.781 1045.38 112.078V111.688C1045.38 110.887 1045.5 110.154 1045.73 109.49C1045.95 108.826 1046.28 108.25 1046.7 107.762C1047.13 107.273 1047.65 106.899 1048.27 106.639C1048.88 106.372 1049.57 106.238 1050.34 106.238C1051.08 106.238 1051.75 106.362 1052.33 106.609C1052.91 106.857 1053.39 107.208 1053.78 107.664C1054.18 108.12 1054.48 108.667 1054.68 109.305C1054.88 109.936 1054.98 110.639 1054.98 111.414V112.586H1046.59V110.711H1052.22V110.496C1052.22 110.105 1052.15 109.757 1052.01 109.451C1051.87 109.139 1051.66 108.891 1051.38 108.709C1051.1 108.527 1050.74 108.436 1050.31 108.436C1049.94 108.436 1049.62 108.517 1049.35 108.68C1049.08 108.842 1048.86 109.07 1048.7 109.363C1048.53 109.656 1048.41 110.001 1048.32 110.398C1048.25 110.789 1048.21 111.219 1048.21 111.688V112.078C1048.21 112.501 1048.27 112.892 1048.38 113.25C1048.51 113.608 1048.68 113.917 1048.9 114.178C1049.13 114.438 1049.4 114.64 1049.72 114.783C1050.05 114.926 1050.41 114.998 1050.82 114.998C1051.33 114.998 1051.8 114.9 1052.24 114.705C1052.68 114.503 1053.06 114.201 1053.38 113.797L1054.75 115.281C1054.53 115.6 1054.23 115.906 1053.84 116.199C1053.46 116.492 1053.01 116.733 1052.47 116.922C1051.94 117.104 1051.33 117.195 1050.65 117.195ZM1059.34 108.689V117H1056.53V106.434H1059.16L1059.34 108.689ZM1058.93 111.346H1058.17C1058.17 110.564 1058.27 109.861 1058.47 109.236C1058.67 108.605 1058.96 108.068 1059.32 107.625C1059.68 107.176 1060.12 106.834 1060.62 106.6C1061.13 106.359 1061.69 106.238 1062.32 106.238C1062.81 106.238 1063.27 106.31 1063.68 106.453C1064.09 106.596 1064.44 106.824 1064.73 107.137C1065.03 107.449 1065.26 107.863 1065.41 108.377C1065.58 108.891 1065.66 109.52 1065.66 110.262V117H1062.83V110.252C1062.83 109.783 1062.76 109.419 1062.63 109.158C1062.5 108.898 1062.31 108.715 1062.05 108.611C1061.81 108.501 1061.5 108.445 1061.14 108.445C1060.76 108.445 1060.43 108.52 1060.15 108.67C1059.88 108.82 1059.65 109.028 1059.47 109.295C1059.29 109.555 1059.16 109.861 1059.07 110.213C1058.98 110.564 1058.93 110.942 1058.93 111.346ZM1073.51 114.08C1073.51 113.878 1073.45 113.696 1073.33 113.533C1073.22 113.37 1073 113.221 1072.68 113.084C1072.37 112.941 1071.91 112.811 1071.32 112.693C1070.79 112.576 1070.29 112.43 1069.83 112.254C1069.37 112.072 1068.98 111.854 1068.64 111.6C1068.3 111.346 1068.04 111.046 1067.86 110.701C1067.67 110.35 1067.57 109.949 1067.57 109.5C1067.57 109.057 1067.67 108.641 1067.86 108.25C1068.05 107.859 1068.33 107.514 1068.69 107.215C1069.05 106.909 1069.49 106.671 1070.01 106.502C1070.54 106.326 1071.13 106.238 1071.79 106.238C1072.71 106.238 1073.5 106.385 1074.15 106.678C1074.82 106.971 1075.33 107.374 1075.68 107.889C1076.04 108.396 1076.21 108.976 1076.21 109.627H1073.4C1073.4 109.354 1073.34 109.109 1073.23 108.895C1073.12 108.673 1072.94 108.501 1072.7 108.377C1072.46 108.247 1072.16 108.182 1071.78 108.182C1071.47 108.182 1071.2 108.237 1070.97 108.348C1070.74 108.452 1070.57 108.595 1070.44 108.777C1070.33 108.953 1070.27 109.148 1070.27 109.363C1070.27 109.526 1070.3 109.673 1070.37 109.803C1070.44 109.926 1070.55 110.04 1070.71 110.145C1070.86 110.249 1071.07 110.346 1071.31 110.438C1071.57 110.522 1071.88 110.6 1072.25 110.672C1073.01 110.828 1073.69 111.033 1074.29 111.287C1074.89 111.535 1075.37 111.873 1075.72 112.303C1076.07 112.726 1076.24 113.283 1076.24 113.973C1076.24 114.441 1076.14 114.871 1075.93 115.262C1075.72 115.652 1075.42 115.994 1075.03 116.287C1074.64 116.574 1074.17 116.798 1073.63 116.961C1073.09 117.117 1072.48 117.195 1071.8 117.195C1070.82 117.195 1069.98 117.02 1069.3 116.668C1068.62 116.316 1068.11 115.87 1067.76 115.33C1067.41 114.783 1067.24 114.223 1067.24 113.65H1069.91C1069.92 114.035 1070.02 114.344 1070.2 114.578C1070.39 114.812 1070.63 114.982 1070.91 115.086C1071.21 115.19 1071.52 115.242 1071.86 115.242C1072.22 115.242 1072.53 115.193 1072.77 115.096C1073.01 114.992 1073.19 114.855 1073.31 114.686C1073.44 114.51 1073.51 114.308 1073.51 114.08Z" fill="#222222"/>
</svg>
